<svg id="Infeon_logo-Icon" xmlns="http://www.w3.org/2000/svg" width="340" height="340" viewBox="0 0 340 340">
  <rect id="Rectangle_2613" data-name="Rectangle 2613" width="340" height="340" fill="none"/>
  <g id="Group_4904" data-name="Group 4904" transform="translate(-168.72 -209.086)">
    <path id="Union_34" data-name="Union 34" d="M-2970.152,11608.563l-33.194-32.792,170.712-168.632,56.9,56.212-147,145.212a33.639,33.639,0,0,1-23.71,9.7A33.639,33.639,0,0,1-2970.152,11608.563ZM-3089.579,11487a33.124,33.124,0,0,1,0-46.844l42.16-42.156,65.58,65.58-65.58,65.579Z" transform="translate(3276 -11084.348)" fill="#031d8e"/>
    <path id="Union_35" data-name="Union 35" d="M-3089.579,11591.674a33.126,33.126,0,0,1,0-46.844l42.158-42.16,65.583,65.582-65.583,65.579Zm86.234-136.076,33.194-32.791a33.824,33.824,0,0,1,47.419,0l147,145.212-56.905,56.213Z" transform="translate(3276 -11189.02)" fill="#0d3efb"/>
  </g>
</svg>
