<svg id="Group_19067" data-name="Group 19067" xmlns="http://www.w3.org/2000/svg" xmlns:xlink="http://www.w3.org/1999/xlink" width="562" height="374" viewBox="0 0 562 374">
  <defs>
    <linearGradient id="linear-gradient" y1="0.5" x2="1" y2="0.5" gradientUnits="objectBoundingBox">
      <stop offset="0" stop-color="#e1473d"/>
      <stop offset="1" stop-color="#e9605a"/>
    </linearGradient>
    <linearGradient id="linear-gradient-3" y1="0.5" x2="1" y2="0.5" gradientUnits="objectBoundingBox">
      <stop offset="0" stop-color="#febbba"/>
      <stop offset="1" stop-color="#ff928e"/>
    </linearGradient>
    <linearGradient id="linear-gradient-6" x1="78.445" y1="1.605" x2="80.445" y2="4.278" xlink:href="#linear-gradient-3"/>
    <linearGradient id="linear-gradient-7" x1="0.339" y1="0.706" x2="2.358" y2="-1.072" xlink:href="#linear-gradient-3"/>
    <linearGradient id="linear-gradient-11" x1="-41.409" y1="-14.69" x2="-41.731" y2="-15.756" xlink:href="#linear-gradient-3"/>
    <linearGradient id="linear-gradient-12" x1="-136.167" y1="-73.669" x2="-137.11" y2="-78.316" xlink:href="#linear-gradient-3"/>
  </defs>
  <rect id="Rectangle_40357" data-name="Rectangle 40357" width="562" height="374" fill="#f8f9fa"/>
  <g id="Group_19044" data-name="Group 19044" transform="translate(94.599 8.102)">
    <g id="Group_19038" data-name="Group 19038" transform="translate(0 17.977)">
      <g id="Group_19034" data-name="Group 19034">
        <path id="Path_37713" data-name="Path 37713" d="M507.408,1074.849a.583.583,0,0,1-.378-.5c-.057-.76-.1-1.535-.124-2.3a.564.564,0,0,1,.561-.58c.776-.018.566.757.72,2.816a.563.563,0,0,1-.536.6A.592.592,0,0,1,507.408,1074.849Z" transform="translate(-506.906 -1014.434)" fill="#91b3fa"/>
        <path id="Path_37714" data-name="Path 37714" d="M508.6,698.878c.142-1.458.345-2.929.6-4.371a.57.57,0,0,1,.672-.453c.859.167.3.651-.12,4.949a.568.568,0,0,1-.633.5A.583.583,0,0,1,508.6,698.878Zm2.314-11.322c.442-1.4.949-2.816,1.489-4.147a.582.582,0,0,1,1.079.435c-.537,1.328-1.026,2.691-1.458,4.064a.582.582,0,0,1-1.109-.352Zm4.6-10.595c.719-1.274,1.5-2.535,2.321-3.749a.581.581,0,0,1,.97.641c-.8,1.189-1.569,2.425-2.274,3.673A.582.582,0,0,1,515.514,676.961Zm6.78-8.613a.565.565,0,0,1-.062-.8c.972-1.1,2-2.172,3.062-3.192.545-.524,1.363.3.819.821-1.038,1-2.048,2.052-3,3.128A.585.585,0,0,1,522.294,668.348Zm8.389-7.846a.561.561,0,0,1,.106-.8c1.184-.878,2.417-1.72,3.667-2.5a.577.577,0,0,1,.634.965c-1.225.767-2.434,1.592-3.593,2.452A.59.59,0,0,1,530.683,660.5Zm10.179-5.693a.587.587,0,0,1-.321-.291.56.56,0,0,1,.268-.758c1.344-.621,2.729-1.2,4.116-1.713a.591.591,0,0,1,.752.334.56.56,0,0,1-.328.735c-1.36.5-2.717,1.07-4.034,1.679A.587.587,0,0,1,540.863,654.809Zm10.954-3.768a.586.586,0,0,1-.362-.4.561.561,0,0,1,.42-.687c1.446-.338,2.925-.624,4.4-.85a.588.588,0,0,1,.67.476.562.562,0,0,1-.474.651c-1.441.221-2.89.5-4.307.833A.589.589,0,0,1,551.817,651.042Zm11.16-2a.564.564,0,0,1,.555-.586c1.489-.039,3-.02,4.495.056a.57.57,0,1,1-.043,1.139c-1.463-.075-2.944-.093-4.4-.054A.587.587,0,0,1,562.977,649.04Zm37.175,12.391c-3.475-2.654-4.257-2.611-3.78-3.331a.583.583,0,0,1,.8-.159c1.255.813,2.493,1.685,3.682,2.593A.57.57,0,1,1,600.151,661.431ZM574.625,649.8a.569.569,0,0,1,.667-.459c1.471.261,2.952.583,4.4.956a.569.569,0,1,1-.278,1.1c-1.421-.365-2.873-.68-4.314-.936A.581.581,0,0,1,574.625,649.8Zm15.669,5.576c-3.933-1.9-4.7-1.706-4.382-2.511a.591.591,0,0,1,.75-.317c1.4.548,2.787,1.156,4.132,1.805a.569.569,0,1,1-.5,1.023Z" transform="translate(-508.372 -648.435)" fill="#91b3fa"/>
        <path id="Path_37715" data-name="Path 37715" d="M1228.362,775.217c-1.333-1.423-2.159-1.906-1.605-2.449a.586.586,0,0,1,.82.008c1.438,1.417,2.158,1.981,1.6,2.481A.662.662,0,0,1,1228.362,775.217Z" transform="translate(-1129.555 -755.864)" fill="#91b3fa"/>
      </g>
      <g id="Group_19035" data-name="Group 19035" transform="translate(13.59 57.545)">
        <path id="Path_37716" data-name="Path 37716" d="M1352.472,1078.639a.581.581,0,0,1-.378-.571c.04-.749.065-1.508.074-2.255a.566.566,0,0,1,.587-.555.587.587,0,0,1,.573.586c-.01.762-.035,1.536-.076,2.3a.567.567,0,0,1-.61.531A.6.6,0,0,1,1352.472,1078.639Z" transform="translate(-1251.734 -1075.258)" fill="#91b3fa"/>
        <path id="Path_37717" data-name="Path 37717" d="M676.541,1189.8c-1.493-.611-2.978-1.29-4.413-2.021a.572.572,0,0,1-.258-.77c.406-.787.735-.049,5.1,1.738a.574.574,0,0,1,.323.747A.591.591,0,0,1,676.541,1189.8Zm7.056,1.8c.22-.856.727-.2,5.346.615a.58.58,0,0,1,.478.662.57.57,0,0,1-.667.46c-1.58-.279-3.174-.629-4.737-1.039A.579.579,0,0,1,683.6,1191.6Zm-18.236-7.856c-1.322-.915-2.623-1.9-3.867-2.92a.566.566,0,0,1-.08-.8c.573-.678.728.111,4.605,2.794a.568.568,0,0,1,.149.8A.584.584,0,0,1,665.361,1183.74Zm31.031,10.4a.581.581,0,0,1-.379-.556.566.566,0,0,1,.6-.546c1.576.064,3.171.062,4.74-.005a.587.587,0,0,1,.613.545.564.564,0,0,1-.545.595c-1.6.069-3.229.07-4.839.005A.59.59,0,0,1,696.392,1194.144Zm12.5-.86a.585.585,0,0,1-.369-.43.562.562,0,0,1,.457-.663c1.543-.277,3.093-.624,4.607-1.029a.591.591,0,0,1,.718.4.56.56,0,0,1-.4.7c-1.546.414-3.128.767-4.7,1.051A.59.59,0,0,1,708.894,1193.284Zm11.967-3.539a.586.586,0,0,1-.33-.309.56.56,0,0,1,.3-.748c1.44-.6,2.871-1.275,4.254-2a.592.592,0,0,1,.787.239.56.56,0,0,1-.232.77c-1.411.736-2.871,1.421-4.341,2.037A.588.588,0,0,1,720.86,1189.745Zm10.859-6.03a.59.59,0,0,1-.266-.2.561.561,0,0,1,.123-.8c1.267-.9,2.511-1.864,3.7-2.866a.588.588,0,0,1,.819.066.562.562,0,0,1-.054.8c-1.21,1.023-2.478,2.007-3.772,2.925A.585.585,0,0,1,731.719,1183.715Zm9.047-8.342c-.681-.591.121-.709,2.9-4.409a.581.581,0,0,1,.938.686c-.947,1.262-1.961,2.5-3.015,3.678A.586.586,0,0,1,740.766,1175.373Zm7.234-9.984c-.795-.431-.046-.714,1.826-4.941a.582.582,0,0,1,1.065.468c-.639,1.442-1.347,2.872-2.105,4.251A.58.58,0,0,1,748,1165.389Zm4.753-11.346a.577.577,0,0,1-.357-.694c.426-1.491.793-3.012,1.088-4.521a.571.571,0,0,1,.68-.443.581.581,0,0,1,.46.675c-.3,1.54-.675,3.092-1.111,4.613a.573.573,0,0,1-.715.385Z" transform="translate(-654.059 -1138.516)" fill="#91b3fa"/>
        <path id="Path_37718" data-name="Path 37718" d="M609.395,1331.541c-1.372-1.482-2.064-2.077-1.487-2.55.6-.493.936.271,2.34,1.789a.562.562,0,0,1-.033.805A.589.589,0,0,1,609.395,1331.541Z" transform="translate(-607.703 -1294.653)" fill="#91b3fa"/>
      </g>
      <g id="Group_19037" data-name="Group 19037" transform="translate(14.417 13.78)">
        <path id="Path_37719" data-name="Path 37719" d="M621.049,816.877l8.247-1.021a36.914,36.914,0,0,0,8.943,7.63c.322,7.952-.219,8.532.63,8.816l9.5,3.166a.684.684,0,0,0,.757-.224l5.005-6.462a36.773,36.773,0,0,0,11.717-.748l6,5.767a.7.7,0,0,0,.786.126l8.9-4.334a.659.659,0,0,0,.366-.687l-1.164-8.123a35.058,35.058,0,0,0,7.628-8.676l8.322-.031a.67.67,0,0,0,.638-.456l3.078-9.3a.673.673,0,0,0-.24-.748l-6.65-5.018a35.185,35.185,0,0,0-.938-11.53c5.521-5.794,6.3-5.8,5.893-6.581-4.609-8.565-4.346-9.294-5.249-9.182l-8.247,1.021a36.913,36.913,0,0,0-8.943-7.63c-.322-7.947.22-8.532-.631-8.816-9.5-2.984-9.724-3.637-10.262-2.942l-5.005,6.462a36.77,36.77,0,0,0-11.717.748c-5.906-5.448-5.983-6.284-6.785-5.893-8.728,4.444-9.389,4.144-9.263,5.022l1.164,8.123a35.052,35.052,0,0,0-7.628,8.676c-7.944.193-8.679-.362-8.96.487-2.879,9.25-3.557,9.5-2.838,10.044l6.65,5.019a35.2,35.2,0,0,0,.938,11.53c-5.5,5.774-6.3,5.795-5.893,6.582C620.408,816.26,620.146,816.989,621.049,816.877Z" transform="translate(-613.84 -750.644)" fill="#91b3fa"/>
        <g id="Group_19036" data-name="Group 19036" transform="translate(33.553 32.851)">
          <path id="Path_37720" data-name="Path 37720" d="M862.735,1003.111a9.526,9.526,0,0,1,10.361-8.769,9.819,9.819,0,0,1,9.079,10.319,9.527,9.527,0,0,1-10.361,8.769h0A9.817,9.817,0,0,1,862.735,1003.111Zm9.136,9.466.005,0Zm1.111-16.529a7.814,7.814,0,0,0-8.509,7.2,8.062,8.062,0,0,0,7.456,8.475,7.824,7.824,0,0,0,8.51-7.2A8.063,8.063,0,0,0,872.981,996.048Z" transform="translate(-862.713 -994.311)" fill="#bdd0fb"/>
        </g>
        <path id="Path_37721" data-name="Path 37721" d="M767.346,930.209h0a25.742,25.742,0,0,1-3.892-1.854.859.859,0,0,1-.381-1.041.842.842,0,0,1,.064-.133.872.872,0,0,1,1.19-.293,24.09,24.09,0,0,0,4.521,2.045h0A23.044,23.044,0,0,0,797.8,915.557q.164-.435.312-.88c3.971-11.994-2.779-24.927-14.947-28.984-12.152-4.048-25.3,2.3-29.263,14.256-2.357,7.121-.3,11.9-.574,12.632a.877.877,0,0,1-1.665-.128,24.07,24.07,0,0,1,.918-14c7.511-19.884,35.808-21.1,45.669-1.974a24.089,24.089,0,0,1,1.519,18.752q-.159.482-.337.954a24.007,24.007,0,0,1-12.062,13.16,25.131,25.131,0,0,1-19.056,1.209Q767.825,930.39,767.346,930.209Z" transform="translate(-732.53 -864.993)" fill="#bdd0fb"/>
      </g>
    </g>
    <g id="Group_19043" data-name="Group 19043" transform="translate(97.518 0)">
      <g id="Group_19039" data-name="Group 19039">
        <path id="Path_37722" data-name="Path 37722" d="M1230.525,773.783a.353.353,0,0,1-.229-.3c-.034-.461-.06-.931-.075-1.4a.343.343,0,0,1,.34-.352c.471-.01.344.46.437,1.708a.342.342,0,0,1-.326.366A.359.359,0,0,1,1230.525,773.783Z" transform="translate(-1230.221 -737.132)" fill="#91b3fa"/>
        <path id="Path_37723" data-name="Path 37723" d="M1231.25,545.7c.086-.885.209-1.777.366-2.651a.346.346,0,0,1,.408-.275c.521.1.181.4-.073,3a.344.344,0,0,1-.384.306A.354.354,0,0,1,1231.25,545.7Zm1.4-6.869c.268-.851.576-1.708.9-2.516a.353.353,0,0,1,.655.264c-.326.806-.622,1.632-.885,2.466a.353.353,0,0,1-.673-.214Zm2.788-6.427c.436-.773.91-1.538,1.408-2.274a.353.353,0,0,1,.588.389c-.488.722-.952,1.471-1.38,2.228A.353.353,0,0,1,1235.443,532.4Zm4.113-5.225a.343.343,0,0,1-.037-.488c.59-.666,1.215-1.318,1.858-1.936.331-.318.827.18.5.5-.63.606-1.242,1.245-1.82,1.9A.355.355,0,0,1,1239.556,527.174Zm5.089-4.76a.341.341,0,0,1,.064-.484c.718-.532,1.467-1.043,2.225-1.518a.35.35,0,0,1,.385.586c-.743.465-1.476.966-2.18,1.487A.358.358,0,0,1,1244.645,522.415Zm6.175-3.453a.355.355,0,0,1-.194-.176.34.34,0,0,1,.163-.46c.815-.377,1.656-.727,2.5-1.039a.359.359,0,0,1,.456.2.34.34,0,0,1-.2.446c-.825.306-1.648.649-2.447,1.018A.357.357,0,0,1,1250.821,518.961Zm6.646-2.286a.355.355,0,0,1-.22-.243.34.34,0,0,1,.255-.417c.877-.205,1.775-.379,2.667-.515a.357.357,0,0,1,.406.289.341.341,0,0,1-.288.4c-.874.134-1.753.3-2.613.505A.358.358,0,0,1,1257.466,516.676Zm6.77-1.214a.342.342,0,0,1,.337-.355c.9-.024,1.821-.012,2.727.034a.346.346,0,1,1-.026.691c-.887-.045-1.786-.056-2.672-.033A.356.356,0,0,1,1264.237,515.461Zm22.552,7.517c-2.108-1.61-2.583-1.584-2.293-2.021a.353.353,0,0,1,.486-.1c.761.493,1.513,1.022,2.234,1.573A.346.346,0,1,1,1286.789,522.979Zm-15.486-7.057a.346.346,0,0,1,.4-.279c.892.159,1.791.353,2.671.58a.345.345,0,1,1-.168.669c-.862-.222-1.743-.413-2.617-.568A.353.353,0,0,1,1271.3,515.921Zm9.506,3.383c-2.386-1.153-2.851-1.035-2.659-1.523a.359.359,0,0,1,.455-.192c.847.333,1.691.7,2.506,1.1a.347.347,0,0,1,.166.464A.351.351,0,0,1,1280.809,519.3Z" transform="translate(-1231.11 -515.094)" fill="#91b3fa"/>
        <path id="Path_37724" data-name="Path 37724" d="M1667.9,592.008c-.808-.864-1.31-1.156-.974-1.486a.356.356,0,0,1,.5,0c.872.859,1.309,1.2.974,1.505A.4.4,0,0,1,1667.9,592.008Z" transform="translate(-1607.958 -580.267)" fill="#91b3fa"/>
      </g>
      <g id="Group_19040" data-name="Group 19040" transform="translate(8.244 34.91)">
        <path id="Path_37725" data-name="Path 37725" d="M1743.193,776.083a.352.352,0,0,1-.229-.346c.024-.455.039-.915.045-1.368a.343.343,0,0,1,.356-.336.356.356,0,0,1,.348.355c-.006.462-.021.932-.046,1.4a.344.344,0,0,1-.37.322A.358.358,0,0,1,1743.193,776.083Z" transform="translate(-1682.079 -774.032)" fill="#91b3fa"/>
        <path id="Path_37726" data-name="Path 37726" d="M1333.132,843.518c-.906-.371-1.806-.783-2.677-1.226a.347.347,0,0,1-.156-.467c.246-.477.446-.03,3.1,1.055a.348.348,0,0,1,.2.453A.359.359,0,0,1,1333.132,843.518Zm4.28,1.091c.133-.519.441-.123,3.243.373a.352.352,0,0,1,.29.4.346.346,0,0,1-.4.279c-.959-.169-1.925-.382-2.873-.63A.351.351,0,0,1,1337.412,844.609Zm-11.063-4.766c-.8-.555-1.592-1.151-2.346-1.771a.343.343,0,0,1-.048-.488c.348-.411.442.068,2.794,1.7a.345.345,0,0,1,.09.483A.354.354,0,0,1,1326.35,839.843Zm18.825,6.312a.353.353,0,0,1-.23-.337.343.343,0,0,1,.361-.332c.956.039,1.924.038,2.876,0a.356.356,0,0,1,.372.331.342.342,0,0,1-.33.361c-.972.042-1.959.043-2.935,0A.362.362,0,0,1,1345.175,846.155Zm7.584-.522a.355.355,0,0,1-.224-.261.341.341,0,0,1,.277-.4c.936-.168,1.876-.378,2.8-.625a.358.358,0,0,1,.436.243.34.34,0,0,1-.241.425c-.937.251-1.9.465-2.853.637A.356.356,0,0,1,1352.759,845.633Zm7.26-2.147a.356.356,0,0,1-.2-.188.34.34,0,0,1,.18-.454c.874-.366,1.742-.774,2.581-1.211a.359.359,0,0,1,.478.145.34.34,0,0,1-.141.467c-.856.446-1.742.862-2.633,1.236A.357.357,0,0,1,1360.019,843.486Zm6.588-3.659a.358.358,0,0,1-.161-.122.34.34,0,0,1,.074-.483c.769-.546,1.523-1.13,2.242-1.738a.357.357,0,0,1,.5.04.341.341,0,0,1-.033.488c-.734.621-1.5,1.218-2.288,1.775A.356.356,0,0,1,1366.606,839.828Zm5.489-5.061c-.413-.359.073-.43,1.757-2.675a.352.352,0,0,1,.569.416c-.574.766-1.19,1.516-1.829,2.231A.355.355,0,0,1,1372.095,834.767Zm4.389-6.057c-.482-.261-.028-.433,1.108-3a.353.353,0,0,1,.646.284c-.387.875-.817,1.742-1.277,2.579A.352.352,0,0,1,1376.484,828.71Zm2.884-6.883a.35.35,0,0,1-.217-.421c.259-.9.481-1.828.66-2.743a.346.346,0,0,1,.412-.268.353.353,0,0,1,.279.409c-.183.934-.41,1.876-.674,2.8a.347.347,0,0,1-.434.234Z" transform="translate(-1319.493 -812.407)" fill="#91b3fa"/>
        <path id="Path_37727" data-name="Path 37727" d="M1292.4,929.508c-.832-.9-1.252-1.26-.9-1.547s.568.164,1.42,1.085a.341.341,0,0,1-.02.489A.357.357,0,0,1,1292.4,929.508Z" transform="translate(-1291.371 -907.13)" fill="#91b3fa"/>
      </g>
      <g id="Group_19042" data-name="Group 19042" transform="translate(8.746 8.36)">
        <path id="Path_37728" data-name="Path 37728" d="M1299.467,617.282l5-.62a22.39,22.39,0,0,0,5.425,4.629c.2,4.824-.133,5.176.382,5.348l5.766,1.921a.415.415,0,0,0,.459-.136l3.036-3.92a22.309,22.309,0,0,0,7.108-.454l3.64,3.5a.424.424,0,0,0,.477.077l5.4-2.629a.4.4,0,0,0,.222-.417l-.706-4.928a21.268,21.268,0,0,0,4.628-5.264l5.049-.019a.406.406,0,0,0,.387-.276l1.867-5.639a.408.408,0,0,0-.145-.454l-4.034-3.044a21.347,21.347,0,0,0-.569-6.995c3.349-3.515,3.82-3.518,3.575-3.993-2.8-5.2-2.637-5.638-3.185-5.571l-5,.62a22.389,22.389,0,0,0-5.425-4.629c-.2-4.821.133-5.176-.382-5.348-5.761-1.81-5.9-2.206-6.225-1.785l-3.037,3.92a22.305,22.305,0,0,0-7.108.454c-3.583-3.305-3.63-3.812-4.116-3.575-5.3,2.7-5.7,2.514-5.619,3.046l.706,4.928a21.26,21.26,0,0,0-4.628,5.264c-4.819.117-5.266-.22-5.436.3-1.747,5.612-2.158,5.764-1.722,6.093l4.034,3.044a21.35,21.35,0,0,0,.569,6.995c-3.338,3.5-3.821,3.515-3.575,3.993C1299.078,616.907,1298.919,617.349,1299.467,617.282Z" transform="translate(-1295.094 -577.1)" fill="#91b3fa"/>
        <g id="Group_19041" data-name="Group 19041" transform="translate(20.356 19.93)">
          <path id="Path_37729" data-name="Path 37729" d="M1446.089,730.263a5.779,5.779,0,0,1,6.286-5.32,5.957,5.957,0,0,1,5.508,6.26,5.779,5.779,0,0,1-6.286,5.32h0A5.956,5.956,0,0,1,1446.089,730.263Zm5.543,5.743h0Zm.674-10.028a4.741,4.741,0,0,0-5.162,4.369,4.891,4.891,0,0,0,4.523,5.141,4.746,4.746,0,0,0,5.162-4.369A4.891,4.891,0,0,0,1452.3,725.978Z" transform="translate(-1446.076 -724.924)" fill="#bdd0fb"/>
        </g>
        <path id="Path_37730" data-name="Path 37730" d="M1388.22,686.036h0a15.62,15.62,0,0,1-2.361-1.125.521.521,0,0,1-.231-.631.539.539,0,0,1,.039-.081.529.529,0,0,1,.722-.178,14.612,14.612,0,0,0,2.743,1.241h0a13.98,13.98,0,0,0,17.564-8.115q.1-.264.189-.534a14.139,14.139,0,0,0-26.821-8.935c-1.43,4.32-.18,7.219-.348,7.664a.532.532,0,0,1-1.01-.078,14.6,14.6,0,0,1,.557-8.495c4.557-12.063,21.723-12.8,27.705-1.2a14.615,14.615,0,0,1,.921,11.376q-.1.292-.2.579a14.563,14.563,0,0,1-7.318,7.984,15.245,15.245,0,0,1-11.56.734Q1388.511,686.146,1388.22,686.036Z" transform="translate(-1367.099 -646.472)" fill="#bdd0fb"/>
      </g>
    </g>
  </g>
  <g id="Group_19051" data-name="Group 19051" transform="translate(89.578 43.078)">
    <g id="Group_19045" data-name="Group 19045" transform="translate(73.957 209.38)">
      <path id="Path_37731" data-name="Path 37731" d="M1077.389,2245.957h-52.138c-3.654,0-7.028,2.663-7.028,4.51v113.179c0,1.847,3.374,3.666,7.028,3.666h52.138c3.654,0,7.883-1.818,7.883-3.666V2250.467C1085.272,2248.62,1081.043,2245.957,1077.389,2245.957Z" transform="translate(-1018.223 -2245.957)" fill="#6450e8"/>
    </g>
    <g id="Group_19046" data-name="Group 19046" transform="translate(0 248.938)">
      <path id="Path_37732" data-name="Path 37732" d="M535.081,2541.307c0-.956-3.295-1.944-6.949-1.944H476.585c-3.654,0-6.918.988-6.918,1.944v78c0,.956,3.264,1.858,6.918,1.858h51.547c3.654,0,6.949-.9,6.949-1.858Z" transform="translate(-469.667 -2539.363)" fill="#6450e8"/>
    </g>
    <g id="Group_19047" data-name="Group 19047" transform="translate(295.76 61.572)">
      <path id="Path_37733" data-name="Path 37733" d="M2729.625,1153.745c0-2.348-3.93-4.12-7.584-4.12h-52.183c-3.654,0-6.465,1.771-6.465,4.12v260.1c0,2.348,2.811,4.945,6.465,4.945h52.183c3.654,0,7.584-2.6,7.584-4.945Z" transform="translate(-2663.393 -1149.625)" fill="#6450e8"/>
    </g>
    <g id="Group_19048" data-name="Group 19048" transform="translate(149.687 159.678)">
      <path id="Path_37734" data-name="Path 37734" d="M1644.527,1880.629c0-1.73-3.151-3.329-6.806-3.329h-51.547c-3.654,0-6.243,1.6-6.243,3.329v164.405c0,1.729,2.589,3.324,6.243,3.324h51.547c3.654,0,6.806-1.594,6.806-3.324Z" transform="translate(-1579.931 -1877.3)" fill="#6450e8"/>
    </g>
    <g id="Group_19049" data-name="Group 19049" transform="translate(223.078 108.981)">
      <path id="Path_37735" data-name="Path 37735" d="M2188.888,1504.5c0-1.941-2.894-3.232-6.548-3.232h-51.547c-3.654,0-6.5,1.291-6.5,3.232v215.173c0,1.941,2.847,3.35,6.5,3.35h51.547c3.654,0,6.548-1.409,6.548-3.35Z" transform="translate(-2124.292 -1501.269)" fill="#6450e8"/>
    </g>
    <g id="Group_19050" data-name="Group 19050" transform="translate(282.852 0)">
      <path id="Path_37736" data-name="Path 37736" d="M2568.219,755.7l41.725-61.419a3,3,0,0,1,4.98-.037l43.017,61.419a3.208,3.208,0,0,1-2.477,5.084h-84.742A3.207,3.207,0,0,1,2568.219,755.7Z" transform="translate(-2567.649 -692.932)" fill="#6450e8"/>
    </g>
  </g>
  <g id="Group_19054" data-name="Group 19054" transform="translate(362.968 178.084)">
    <g id="Group_19053" data-name="Group 19053" transform="translate(0 0)">
      <circle id="Ellipse_46" data-name="Ellipse 46" cx="41.342" cy="41.342" r="41.342" transform="translate(0 58.466) rotate(-45)" fill="#dcb518"/>
      <circle id="Ellipse_47" data-name="Ellipse 47" cx="39.967" cy="39.967" r="39.967" transform="translate(1.944 58.466) rotate(-45)" fill="#fed42d"/>
      <path id="Path_37737" data-name="Path 37737" d="M2680.792,1936.388a.917.917,0,0,1-.817-1.33,37.652,37.652,0,0,1,33.775-20.8,38.119,38.119,0,0,1,6.82.614.917.917,0,1,1-.329,1.8,36.291,36.291,0,0,0-6.491-.584,35.829,35.829,0,0,0-32.138,19.788A.917.917,0,0,1,2680.792,1936.388Z" transform="translate(-2655.283 -1893.607)" fill="#fff" opacity="0.78"/>
      <circle id="Ellipse_48" data-name="Ellipse 48" cx="33.827" cy="33.827" r="33.827" transform="translate(11.498 59.337) rotate(-45)" fill="#fff" opacity="0.78"/>
      <g id="Group_19052" data-name="Group 19052" transform="translate(44.438 35.396)">
        <path id="Path_37738" data-name="Path 37738" d="M2838.65,2072.69v-3.68a30.025,30.025,0,0,1-10.326-2.239,2.129,2.129,0,0,1-1.177-2.515l.935-3.428a2.146,2.146,0,0,1,2.912-1.4,24.918,24.918,0,0,0,9.534,2.008c3.7,0,6.451-1.253,6.451-3.821,0-2.317-2.129-3.7-7.265-5.073-7.327-2-12.589-5.2-12.589-11.65,0-5.825,4.259-10.271,11.649-11.461v-3.681a2.144,2.144,0,0,1,2.145-2.144h2.162a2.144,2.144,0,0,1,2.144,2.144v3.3a27.355,27.355,0,0,1,8.185,1.47,2.133,2.133,0,0,1,1.333,2.576l-.86,3.171a2.138,2.138,0,0,1-2.823,1.444,22.328,22.328,0,0,0-8.028-1.457c-4.384,0-5.637,1.816-5.637,3.444,0,2,2.63,3.382,8.33,5.136,8.142,2.443,11.524,5.825,11.524,11.9,0,5.574-4.134,10.585-12.15,11.838v4.119a2.144,2.144,0,0,1-2.144,2.144h-2.163A2.144,2.144,0,0,1,2838.65,2072.69Z" transform="translate(-2827.071 -2023.602)" fill="#fed42d"/>
      </g>
    </g>
    <rect id="Rectangle_40348" data-name="Rectangle 40348" width="81.007" height="15.43" rx="3.634" transform="translate(17.963 111.429)" fill="#2be4ac"/>
    <rect id="Rectangle_40349" data-name="Rectangle 40349" width="81.007" height="15.43" rx="3.634" transform="translate(18.026 128.85)" fill="#2be4ac"/>
    <rect id="Rectangle_40350" data-name="Rectangle 40350" width="81.007" height="15.43" rx="3.634" transform="translate(18.09 146.272)" fill="#2be4ac"/>
    <rect id="Rectangle_40351" data-name="Rectangle 40351" width="81.007" height="15.43" rx="3.634" transform="translate(18.153 163.242)" fill="#2be4ac"/>
    <rect id="Rectangle_40352" data-name="Rectangle 40352" width="81.007" height="15.43" rx="3.634" transform="translate(18.217 180.213)" fill="#2be4ac"/>
  </g>
  <g id="Group_19057" data-name="Group 19057" transform="translate(275.21 196.407)">
    <g id="Group_19056" data-name="Group 19056" transform="translate(0 0)">
      <circle id="Ellipse_49" data-name="Ellipse 49" cx="41.342" cy="41.342" r="41.342" transform="translate(0 58.466) rotate(-45)" fill="#dcb518"/>
      <circle id="Ellipse_50" data-name="Ellipse 50" cx="39.967" cy="39.967" r="39.967" transform="translate(1.944 58.466) rotate(-45)" fill="#fed42d"/>
      <path id="Path_37739" data-name="Path 37739" d="M2029.873,2072.3a.917.917,0,0,1-.818-1.33,37.652,37.652,0,0,1,33.774-20.795,38.151,38.151,0,0,1,6.82.613.917.917,0,1,1-.329,1.8,36.3,36.3,0,0,0-6.491-.584,35.828,35.828,0,0,0-32.138,19.788A.916.916,0,0,1,2029.873,2072.3Z" transform="translate(-2004.364 -2029.515)" fill="#fff" opacity="0.78"/>
      <circle id="Ellipse_51" data-name="Ellipse 51" cx="33.827" cy="33.827" r="33.827" transform="translate(11.498 59.337) rotate(-45)" fill="#fff" opacity="0.78"/>
      <g id="Group_19055" data-name="Group 19055" transform="translate(44.438 35.396)">
        <path id="Path_37740" data-name="Path 37740" d="M2187.732,2208.6v-3.68a30.024,30.024,0,0,1-10.326-2.239,2.128,2.128,0,0,1-1.177-2.515l.935-3.428a2.146,2.146,0,0,1,2.913-1.4,24.919,24.919,0,0,0,9.534,2.007c3.7,0,6.451-1.253,6.451-3.821,0-2.317-2.129-3.695-7.265-5.073-7.328-2-12.589-5.2-12.589-11.65,0-5.825,4.259-10.272,11.649-11.462v-3.681a2.144,2.144,0,0,1,2.144-2.144h2.163a2.144,2.144,0,0,1,2.144,2.144v3.3a27.359,27.359,0,0,1,8.185,1.47,2.133,2.133,0,0,1,1.333,2.576l-.86,3.171a2.139,2.139,0,0,1-2.823,1.444,22.316,22.316,0,0,0-8.028-1.458c-4.384,0-5.636,1.816-5.636,3.445,0,2,2.63,3.382,8.33,5.136,8.142,2.442,11.524,5.824,11.524,11.9,0,5.574-4.134,10.585-12.15,11.837v4.119a2.144,2.144,0,0,1-2.145,2.144h-2.162A2.144,2.144,0,0,1,2187.732,2208.6Z" transform="translate(-2176.153 -2159.508)" fill="#fed42d"/>
      </g>
    </g>
    <rect id="Rectangle_40353" data-name="Rectangle 40353" width="81.007" height="15.43" rx="3.634" transform="translate(17.963 109.626)" fill="#2be4ac"/>
    <rect id="Rectangle_40354" data-name="Rectangle 40354" width="81.007" height="15.43" rx="3.634" transform="translate(18.026 127.047)" fill="#2be4ac"/>
    <rect id="Rectangle_40355" data-name="Rectangle 40355" width="81.007" height="15.43" rx="3.634" transform="translate(18.09 144.468)" fill="#2be4ac"/>
    <rect id="Rectangle_40356" data-name="Rectangle 40356" width="81.007" height="15.43" rx="3.634" transform="translate(18.154 161.89)" fill="#2be4ac"/>
  </g>
  <g id="Group_19058" data-name="Group 19058" transform="translate(118.908 96.644)">
    <path id="Path_37741" data-name="Path 37741" d="M851.041,2915.924a.674.674,0,0,1-.516-.238q-.588-.692-1.164-1.391a.676.676,0,1,1,1.044-.859q.569.691,1.151,1.374a.676.676,0,0,1-.515,1.115Z" transform="translate(-827.368 -2678.417)" fill="url(#linear-gradient)"/>
    <path id="Path_37742" data-name="Path 37742" d="M707.5,1405.15a.674.674,0,0,1-.536-.264c-.732-.953-1.455-1.928-2.148-2.9a.676.676,0,1,1,1.1-.787c.684.957,1.4,1.919,2.12,2.86a.676.676,0,0,1-.536,1.088Zm-4.167-5.83a.675.675,0,0,1-.564-.3c-.662-1-1.315-2.02-1.941-3.041a.676.676,0,1,1,1.153-.708c.618,1.007,1.263,2.016,1.916,3a.676.676,0,0,1-.563,1.05Zm-3.747-6.108a.676.676,0,0,1-.59-.344c-.593-1.05-1.17-2.118-1.716-3.174a.676.676,0,0,1,1.2-.621c.538,1.041,1.107,2.095,1.692,3.13a.677.677,0,0,1-.589,1.009Zm-3.29-6.366a.675.675,0,0,1-.613-.389c-.511-1.088-1.006-2.2-1.472-3.3a.676.676,0,0,1,1.245-.528c.459,1.083.948,2.176,1.451,3.248a.676.676,0,0,1-.611.964Zm-2.8-6.6a.677.677,0,0,1-.633-.437c-.426-1.127-.833-2.271-1.21-3.4a.676.676,0,0,1,1.283-.428c.371,1.114.772,2.241,1.192,3.351a.677.677,0,0,1-.633.916Zm-2.266-6.8a.676.676,0,0,1-.649-.489c-.332-1.151-.645-2.324-.93-3.488a.676.676,0,1,1,1.314-.322c.28,1.146.589,2.3.916,3.435a.676.676,0,0,1-.65.864Zm-1.7-6.959a.677.677,0,0,1-.662-.543c-.237-1.181-.451-2.377-.635-3.555a.676.676,0,1,1,1.336-.209c.181,1.159.392,2.336.625,3.5a.677.677,0,0,1-.53.8A.685.685,0,0,1,689.536,1366.492Zm-1.109-7.077a.675.675,0,0,1-.671-.6c-.131-1.171-.24-2.382-.324-3.6a.676.676,0,1,1,1.349-.093c.083,1.2.19,2.387.319,3.539a.676.676,0,0,1-.6.747A.726.726,0,0,1,688.427,1359.415Zm-.495-7.147a.676.676,0,0,1-.675-.657c-.026-.912-.04-1.84-.04-2.757q0-.425,0-.851a.694.694,0,0,1,.682-.671.676.676,0,0,1,.671.682q0,.421,0,.84c0,.9.013,1.818.039,2.718a.676.676,0,0,1-.656.7Zm.06-7.166h-.03a.677.677,0,0,1-.646-.705c.053-1.193.127-2.4.221-3.6a.676.676,0,1,1,1.348.106c-.093,1.181-.166,2.377-.218,3.554A.676.676,0,0,1,687.992,1345.1Zm.56-7.145a.731.731,0,0,1-.076,0,.676.676,0,0,1-.6-.747c.132-1.181.286-2.384.458-3.577a.676.676,0,1,1,1.338.193c-.169,1.179-.322,2.368-.453,3.534A.676.676,0,0,1,688.552,1337.957Zm1.025-7.094a.677.677,0,0,1-.667-.794c.208-1.177.439-2.368.685-3.54a.676.676,0,1,1,1.323.278c-.243,1.158-.47,2.335-.676,3.5A.677.677,0,0,1,689.577,1330.863Zm1.469-7.01a.678.678,0,0,1-.658-.836c.284-1.167.588-2.34.9-3.486a.676.676,0,1,1,1.3.36c-.313,1.132-.613,2.291-.893,3.445A.677.677,0,0,1,691.046,1323.853Zm1.906-6.9a.677.677,0,0,1-.646-.877c.355-1.142.733-2.294,1.125-3.424a.676.676,0,1,1,1.278.443c-.387,1.117-.761,2.255-1.111,3.383A.677.677,0,0,1,692.953,1316.951Zm2.349-6.77a.677.677,0,0,1-.631-.919c.434-1.13.889-2.255,1.352-3.345a.676.676,0,0,1,1.245.528c-.456,1.076-.906,2.187-1.334,3.3A.677.677,0,0,1,695.3,1310.181Zm2.8-6.6a.677.677,0,0,1-.612-.962c.508-1.09,1.041-2.181,1.584-3.245a.676.676,0,0,1,1.2.615c-.536,1.049-1.062,2.126-1.563,3.2A.677.677,0,0,1,698.1,1303.582Zm59.528-3.454a12.346,12.346,0,0,1-1.941-.153.676.676,0,1,1,.213-1.336,11.222,11.222,0,0,0,3.365.018.676.676,0,1,1,.193,1.338A12.853,12.853,0,0,1,757.628,1300.128Zm5.17-1.1a.676.676,0,0,1-.266-1.3,16.312,16.312,0,0,0,2.993-1.684.676.676,0,0,1,.779,1.105,17.694,17.694,0,0,1-3.241,1.823A.68.68,0,0,1,762.8,1299.023Zm-10.4-.128a.677.677,0,0,1-.3-.069,15.152,15.152,0,0,1-3.117-2.066.676.676,0,1,1,.876-1.031,13.784,13.784,0,0,0,2.838,1.882.676.676,0,0,1-.3,1.284Zm-51.027-1.7a.676.676,0,0,1-.589-1.007c.589-1.051,1.2-2.1,1.828-3.118a.676.676,0,1,1,1.153.707c-.615,1-1.221,2.036-1.8,3.071A.675.675,0,0,1,701.367,1297.2Zm67.276-2.243a.676.676,0,0,1-.48-1.153,22.841,22.841,0,0,0,2.251-2.65.676.676,0,1,1,1.094.8,24.191,24.191,0,0,1-2.384,2.807A.674.674,0,0,1,768.643,1294.954Zm-21.711-.6a.676.676,0,0,1-.527-.251c-.432-.535-.858-1.112-1.267-1.714-.286-.423-.566-.861-.831-1.3a.676.676,0,0,1,1.158-.7c.253.42.52.837.793,1.241.387.571.79,1.117,1.2,1.622a.676.676,0,0,1-.526,1.1Zm-41.812-3.266a.676.676,0,0,1-.561-1.053c.678-1.008,1.378-2,2.082-2.958a.676.676,0,0,1,1.088.8c-.693.939-1.382,1.917-2.048,2.909A.675.675,0,0,1,705.12,1291.083Zm67.7-1.914a.676.676,0,0,1-.608-.971,16.181,16.181,0,0,0,1.158-3.232.676.676,0,0,1,1.315.318,17.564,17.564,0,0,1-1.255,3.5A.676.676,0,0,1,772.824,1289.169Zm-29.607-.927a.677.677,0,0,1-.616-.4,33.056,33.056,0,0,1-1.329-3.406.676.676,0,1,1,1.285-.421,31.685,31.685,0,0,0,1.274,3.266.677.677,0,0,1-.615.957Zm-33.839-2.931a.676.676,0,0,1-.525-1.1c.761-.94,1.551-1.867,2.345-2.756a.676.676,0,1,1,1.008.9c-.78.873-1.555,1.784-2.3,2.707A.675.675,0,0,1,709.378,1285.312Zm65.115-3.056h-.014a.676.676,0,0,1-.663-.689q0-.159,0-.319a15.245,15.245,0,0,0-.314-3.091.676.676,0,1,1,1.324-.274,16.6,16.6,0,0,1,.342,3.366c0,.115,0,.23,0,.346A.676.676,0,0,1,774.494,1282.256Zm-33.511-.808a.676.676,0,0,1-.66-.536,34.7,34.7,0,0,1-.569-3.608.676.676,0,0,1,1.346-.14,33.31,33.31,0,0,0,.546,3.467.677.677,0,0,1-.662.817Zm-26.824-1.481a.676.676,0,0,1-.481-1.152c.852-.861,1.731-1.7,2.613-2.507a.676.676,0,1,1,.91,1c-.864.786-1.725,1.613-2.561,2.457A.673.673,0,0,1,714.158,1279.967Zm58.887-4.665a.675.675,0,0,1-.613-.391c-.206-.44-.436-.876-.685-1.295a18.255,18.255,0,0,0-1.1-1.643.676.676,0,1,1,1.082-.812,19.831,19.831,0,0,1,1.18,1.764c.272.457.523.933.747,1.414a.676.676,0,0,1-.613.962Zm-53.583-.153a.676.676,0,0,1-.427-1.2c.909-.738,1.843-1.455,2.778-2.132l.094-.068a.676.676,0,0,1,.8,1.093l-.1.072c-.913.661-1.827,1.362-2.716,2.085A.675.675,0,0,1,719.462,1275.149Zm20.779-.815h0a.676.676,0,0,1-.676-.677,35.938,35.938,0,0,1,.19-3.645.676.676,0,0,1,1.345.139,34.641,34.641,0,0,0-.183,3.508A.676.676,0,0,1,740.242,1274.334Zm-14.967-3.368a.676.676,0,0,1-.361-1.248c1.026-.648,2.078-1.266,3.126-1.837a.676.676,0,1,1,.647,1.188c-1.023.557-2.049,1.161-3.051,1.793A.674.674,0,0,1,725.275,1270.966Zm43.515-1.373a.674.674,0,0,1-.459-.179,20.5,20.5,0,0,0-2.739-2.121.676.676,0,1,1,.736-1.135,21.866,21.866,0,0,1,2.92,2.261.676.676,0,0,1-.459,1.173Zm-37.226-2.052a.676.676,0,0,1-.284-1.29c1.1-.51,2.231-.983,3.346-1.406a.676.676,0,1,1,.48,1.264c-1.086.412-2.183.873-3.259,1.37A.674.674,0,0,1,731.563,1267.541Zm9.411-.323a.7.7,0,0,1-.136-.014.677.677,0,0,1-.527-.8c.14-.684.3-1.372.482-2.059-.781.188-1.565.4-2.341.63a.676.676,0,0,1-.386-1.3c1.044-.311,2.1-.586,3.15-.82a.676.676,0,0,1,1.289.409c-.345,1.129-.637,2.276-.869,3.408A.677.677,0,0,1,740.974,1267.218Zm21.841-1.525a.677.677,0,0,1-.277-.06,25.736,25.736,0,0,0-3.272-1.209.676.676,0,0,1,.384-1.3,27.105,27.105,0,0,1,3.443,1.273.677.677,0,0,1-.278,1.293Zm-6.845-2.045a.692.692,0,0,1-.114-.01,32.629,32.629,0,0,0-3.486-.394.676.676,0,0,1,.08-1.35,33.954,33.954,0,0,1,3.631.411.676.676,0,0,1-.112,1.343Zm-10.711-.138a.676.676,0,0,1-.085-1.347c1.216-.156,2.437-.259,3.629-.3a.676.676,0,1,1,.052,1.351c-1.152.044-2.332.143-3.508.295A.706.706,0,0,1,745.259,1263.51Zm-2.2-3.137a.676.676,0,0,1-.626-.931c.451-1.108.959-2.221,1.512-3.309a.676.676,0,1,1,1.205.613c-.535,1.054-1.028,2.133-1.465,3.206A.677.677,0,0,1,743.058,1260.373Zm3.233-6.385a.676.676,0,0,1-.577-1.028c.618-1.013,1.29-2.032,2-3.029a.676.676,0,0,1,1.1.784c-.691.971-1.345,1.964-1.946,2.95A.677.677,0,0,1,746.292,1253.988Zm4.164-5.817a.676.676,0,0,1-.513-1.116,34.108,34.108,0,0,1,2.516-2.64.676.676,0,1,1,.927.984,32.744,32.744,0,0,0-2.416,2.535A.676.676,0,0,1,750.456,1248.171Zm5.2-4.89a.676.676,0,0,1-.407-1.217,34.15,34.15,0,0,1,3.032-2.031.676.676,0,1,1,.692,1.162,32.865,32.865,0,0,0-2.911,1.95A.674.674,0,0,1,755.657,1243.281Zm6.132-3.668a.676.676,0,0,1-.289-1.288c1.063-.5,2.159-.964,3.349-1.413a.676.676,0,0,1,.477,1.266c-1.156.436-2.219.884-3.25,1.37A.671.671,0,0,1,761.79,1239.612Zm6.688-2.548a.676.676,0,0,1-.2-1.322c1.03-.32,2.131-.638,3.465-1a.676.676,0,0,1,.356,1.305c-1.319.359-2.405.673-3.42.988A.677.677,0,0,1,768.478,1237.064Zm6.908-1.915a.676.676,0,0,1-.173-1.33c1.108-.293,2.291-.611,3.437-.949a.676.676,0,0,1,.382,1.3c-1.162.342-2.356.663-3.473.959A.694.694,0,0,1,775.386,1235.149Zm6.856-2.078a.677.677,0,0,1-.239-1.309,25.645,25.645,0,0,0,3.18-1.428.676.676,0,1,1,.644,1.189,26.954,26.954,0,0,1-3.347,1.5A.681.681,0,0,1,782.242,1233.071Zm6.222-3.463a.676.676,0,0,1-.438-1.192,13.323,13.323,0,0,0,2.3-2.5.676.676,0,1,1,1.1.782,14.866,14.866,0,0,1-2.524,2.746A.674.674,0,0,1,788.464,1229.609Zm4.1-5.754a.677.677,0,0,1-.625-.934c.43-1.043.846-2.127,1.271-3.315a.676.676,0,1,1,1.273.456c-.433,1.209-.856,2.313-1.294,3.375A.676.676,0,0,1,792.568,1223.855Zm2.431-6.739a.677.677,0,0,1-.644-.884c.365-1.134.716-2.271,1.062-3.41a.677.677,0,0,1,1.294.394c-.349,1.146-.7,2.291-1.069,3.431A.677.677,0,0,1,795,1217.116Zm2.1-6.851a.677.677,0,0,1-.648-.873c.348-1.147.7-2.292,1.065-3.432a.676.676,0,0,1,1.288.413c-.364,1.134-.713,2.272-1.059,3.412A.677.677,0,0,1,797.1,1210.265Zm2.2-6.818a.676.676,0,0,1-.637-.9c.43-1.21.85-2.315,1.284-3.377a.676.676,0,0,1,1.252.512c-.427,1.042-.839,2.127-1.262,3.317A.676.676,0,0,1,799.3,1203.447Zm2.726-6.618a.677.677,0,0,1-.609-.971c.539-1.115,1.111-2.2,1.7-3.21a.676.676,0,1,1,1.169.679c-.571.985-1.128,2.035-1.652,3.12A.676.676,0,0,1,802.031,1196.829Zm3.6-6.183a.676.676,0,0,1-.553-1.064c.7-1,1.446-1.967,2.222-2.885a.676.676,0,0,1,1.033.874c-.75.886-1.472,1.823-2.147,2.787A.675.675,0,0,1,805.631,1190.646Zm4.621-5.458a.676.676,0,0,1-.474-1.159c.638-.626,1.31-1.243,2-1.834q.353-.3.711-.6a.676.676,0,0,1,.86,1.044q-.347.286-.69.581c-.665.572-1.315,1.168-1.931,1.773A.675.675,0,0,1,810.252,1185.188Zm5.513-4.568a.676.676,0,0,1-.39-1.229c.994-.7,2.022-1.364,3.055-1.972a.676.676,0,0,1,.687,1.165c-1,.591-2,1.235-2.964,1.913A.672.672,0,0,1,815.765,1180.62Zm6.169-3.631a.677.677,0,0,1-.294-1.286c1.1-.528,2.226-1.01,3.348-1.432a.676.676,0,1,1,.476,1.266c-1.085.408-2.174.874-3.238,1.386A.673.673,0,0,1,821.934,1176.989Zm6.7-2.515a.676.676,0,0,1-.178-1.329c1.178-.322,2.376-.589,3.56-.792a.676.676,0,1,1,.229,1.333c-1.142.2-2.3.453-3.432.764A.68.68,0,0,1,828.633,1174.474Zm7.051-1.208a.676.676,0,0,1-.046-1.351,35.2,35.2,0,0,1,3.651-.064.676.676,0,1,1-.047,1.352,33.858,33.858,0,0,0-3.511.062Z" transform="translate(-687.217 -1171.831)" fill="#6450e8"/>
    <path id="Path_37743" data-name="Path 37743" d="M1839.71,1176.086a.683.683,0,0,1-.134-.013c-.577-.116-1.163-.217-1.74-.3a.676.676,0,0,1,.195-1.339c.6.088,1.21.193,1.812.314a.676.676,0,0,1-.133,1.339Z" transform="translate(-1682.208 -1174.075)" fill="url(#linear-gradient)"/>
  </g>
  <g id="Group_19061" data-name="Group 19061" transform="translate(240.936 36.004)">
    <path id="Path_37744" data-name="Path 37744" d="M1652.747,1204.872s2.655,15.949-8.842,19.161-23.9,3.6-26.677,8.481c0,0,.823-31.606,32.247-32.315Z" transform="translate(-1613.871 -1135.735)" fill="#6450e8"/>
    <path id="Path_37745" data-name="Path 37745" d="M1924.411,1206.953s7.925,13.754,5.1,18.33c-2.691,4.353-33.237,23.292-36.211,25.129a.3.3,0,0,1-.4-.081h0a4.066,4.066,0,0,1-.6-3.638c1.9-5.986,7.744-23.809,11.239-28.632C1907.761,1212.237,1924.411,1206.953,1924.411,1206.953Z" transform="translate(-1851.694 -1141.578)" fill="#18c792"/>
    <path id="Path_37746" data-name="Path 37746" d="M1970.973,1268.352a.364.364,0,0,0,.288-.047c.167-.107,16.716-10.769,23.661-15.635a3.813,3.813,0,0,0,1.555-3.858,56.73,56.73,0,0,0-3.322-11.042.365.365,0,0,0-.669.292,55.97,55.97,0,0,1,3.275,10.891,3.082,3.082,0,0,1-1.258,3.119c-6.933,4.858-23.471,15.513-23.637,15.619a.365.365,0,0,0,.107.66Z" transform="translate(-1919.686 -1168.051)" fill="#fff"/>
    <path id="Path_37747" data-name="Path 37747" d="M1643.263,918.808s-10.713-11.714-15.931-10.4c-4.963,1.249-32.253,24.636-34.9,26.916a.3.3,0,0,0-.043.4h0a4.066,4.066,0,0,0,3.287,1.667c6.281,0,25.036-.181,30.69-2.053C1633.191,933.08,1643.263,918.808,1643.263,918.808Z" transform="translate(-1592.326 -883.194)" fill="#18c792"/>
    <path id="Path_37748" data-name="Path 37748" d="M1675.41,938.66a.364.364,0,0,0,.324-.072c.152-.126,15.309-12.667,22.037-17.807a3.084,3.084,0,0,1,3.354-.256,55.987,55.987,0,0,1,9.391,6.416.365.365,0,1,0,.48-.549,55.628,55.628,0,0,0-9.519-6.506,3.814,3.814,0,0,0-4.148.315c-6.74,5.148-21.907,17.7-22.059,17.824a.365.365,0,0,0,.142.635Z" transform="translate(-1663.971 -892.809)" fill="#fff"/>
    <path id="Path_37749" data-name="Path 37749" d="M1891.564,783.667a82,82,0,0,1-17.989,18.214c-23.644,17.409-44.034,26.115-49.9,28.436a3.114,3.114,0,0,1-3.137-.517,54.877,54.877,0,0,1-15.629-21.012,4.523,4.523,0,0,1,.692-4.65,235.687,235.687,0,0,1,41.621-38.263,82,82,0,0,1,22.634-11.584C1881.736,763.633,1888.273,776.286,1891.564,783.667Z" transform="translate(-1775.943 -749.945)" fill="#2be4ac"/>
    <path id="Path_37750" data-name="Path 37750" d="M2288.927,726.4a85.088,85.088,0,0,1,34.487-3.977,1.529,1.529,0,0,1,1.337,1.826,85.087,85.087,0,0,1-14.118,31.526C2307.341,748.394,2300.8,735.741,2288.927,726.4Z" transform="translate(-2195.01 -722.053)" fill="#6450e8"/>
    <g id="Group_19059" data-name="Group 19059" transform="translate(71.9 18.377)">
      <path id="Path_37751" data-name="Path 37751" d="M2131.032,860.872c-6.138,4.492-7.205,13.473-2.384,20.06s13.7,8.286,19.841,3.794,7.205-13.472,2.384-20.059S2137.169,856.38,2131.032,860.872Z" transform="translate(-2125.629 -858.362)" fill="#18c792"/>
      <path id="Path_37752" data-name="Path 37752" d="M2151.726,877.957c-4.89,3.579-5.741,10.735-1.9,15.984s10.919,6.6,15.81,3.023,5.74-10.735,1.9-15.984S2156.616,874.378,2151.726,877.957Z" transform="translate(-2144.483 -873.585)" fill="#fff"/>
      <path id="Path_37753" data-name="Path 37753" d="M2263.537,916.969a.365.365,0,0,0,.383-.135,9.213,9.213,0,0,0-.112-10.871,9.582,9.582,0,0,0-2.148-2.131.365.365,0,0,0-.425.593,8.839,8.839,0,0,1,1.984,1.969,8.476,8.476,0,0,1,.116,10,.364.364,0,0,0,.074.51A.355.355,0,0,0,2263.537,916.969Z" transform="translate(-2242.821 -897.642)" fill="#bdd0fb"/>
    </g>
    <g id="Group_19060" data-name="Group 19060" transform="translate(54.363 39.621)">
      <path id="Path_37754" data-name="Path 37754" d="M1999.119,1017.59c-4.054,2.967-4.76,8.9-1.575,13.252s9.053,5.474,13.108,2.506,4.76-8.9,1.575-13.252S2003.174,1014.623,1999.119,1017.59Z" transform="translate(-1995.55 -1015.932)" fill="#18c792"/>
      <path id="Path_37755" data-name="Path 37755" d="M2012.791,1028.877a7.8,7.8,0,1,0,10.444,2A7.529,7.529,0,0,0,2012.791,1028.877Z" transform="translate(-2008.006 -1025.988)" fill="#fff"/>
      <path id="Path_37756" data-name="Path 37756" d="M2085.829,1053.973a.364.364,0,0,0,.383-.135,6.209,6.209,0,0,0-.073-7.329,6.417,6.417,0,0,0-1.448-1.436.365.365,0,1,0-.424.593,5.7,5.7,0,0,1,1.283,1.274,5.474,5.474,0,0,1,.077,6.461.364.364,0,0,0,.074.51A.353.353,0,0,0,2085.829,1053.973Z" transform="translate(-2072.175 -1041.085)" fill="#bdd0fb"/>
    </g>
  </g>
  <g id="Group_19066" data-name="Group 19066" transform="translate(198.335 157.727)">
    <path id="Path_37757" data-name="Path 37757" d="M1611.04,3135.718s-.751,4.25-1.119,8.457a2.9,2.9,0,0,0,2.773,3.141c5.6.233,17.587.687,21.887.495a.943.943,0,0,0,.83-1.292,2.111,2.111,0,0,0-1.08-1.138l-19.8-9.1Z" transform="translate(-1564.938 -2932.028)" fill="#fed42d"/>
    <path id="Path_37758" data-name="Path 37758" d="M1613.729,3112.158l.6,5.084s3.468,1.615,5.836-.2l-1.436-5.665Z" transform="translate(-1568.242 -2910.966)" fill="url(#linear-gradient-3)"/>
    <path id="Path_37759" data-name="Path 37759" d="M1516.2,2408.279c-.261,1.328-1.4,66.249,5.541,95.342a.988.988,0,0,1-.579,1.149,17.2,17.2,0,0,1-5.652,1.149,1.7,1.7,0,0,1-1.687-1.221c-1.984-6.75-11.489-40.57-12.729-72.878-1.385-36.1,0-1.229,0-1.229l.813-22.315Z" transform="translate(-1470.26 -2302.661)" fill="#2b1b92"/>
    <path id="Path_37760" data-name="Path 37760" d="M1434.062,3152.164s-1.2,2.146-2.352,7.847a1.769,1.769,0,0,0,1.556,2.118c1.85.182,4.7.416,6.979.4a1.763,1.763,0,0,0,1.746-1.967,14.871,14.871,0,0,0-3.472-8.157Z" transform="translate(-1410.732 -2946.257)" fill="#fed42d"/>
    <path id="Path_37761" data-name="Path 37761" d="M1441.6,3101.748l1.41,7.688s1.393,1.037,4.15.285l-.673-8.271Z" transform="translate(-1419.322 -2902.38)" fill="url(#linear-gradient-3)"/>
    <path id="Path_37762" data-name="Path 37762" d="M1399.34,2400.015c-5.675,34.253,1.231,84.659,3.561,94.525a1.538,1.538,0,0,0,1.242,1.168,10.326,10.326,0,0,0,4.439-.177,1.41,1.41,0,0,0,1.014-1.3c.312-7.976-.25-56.942,5.038-76.293a4.4,4.4,0,0,1,1.7-2.425l10.264-7.3.787-11.8Z" transform="translate(-1380.867 -2292.405)" fill="#3827aa"/>
    <g id="Group_19062" data-name="Group 19062" transform="translate(16.354 16.365)">
      <path id="Path_37763" data-name="Path 37763" d="M1435.926,1923.831c-17.009-.281-35.776,4.466-35.776,4.466-5.07,29.583-.887,63.705-.887,63.705,13.168,3.453,28.022-2.111,28.022-2.111,2.188-12.365,12.4-47.164,12.4-47.164a56.033,56.033,0,0,0,20.794-6.6c-4.3-4.985-6.328-11.328-7.208-15.077A57.078,57.078,0,0,1,1435.926,1923.831Z" transform="translate(-1397.641 -1897.488)" fill="#fed42d"/>
      <path id="Path_37764" data-name="Path 37764" d="M1843.158,1747.576a3.255,3.255,0,0,0-3.786-1.063c-2.5,10.573-15.627,19.146-29.111,23.336.881,3.749,2.908,10.092,7.208,15.077C1839.847,1772.344,1843.158,1747.576,1843.158,1747.576Z" transform="translate(-1754.632 -1746.287)" fill="url(#linear-gradient-3)"/>
    </g>
    <g id="Group_19063" data-name="Group 19063" transform="translate(101.094 0)">
      <path id="Path_37765" data-name="Path 37765" d="M2029.563,1643.068c.175.556-1.85,1.4-3.042-.871-.042-1.089-.7-5.757-.053-6.644,3.467-4.727,10.189-10.652,10.189-10.652a1.6,1.6,0,0,1,.2,2.222l-3.261,3.4a15.788,15.788,0,0,1,1.9,3.764,4.57,4.57,0,0,1-.456,3.363c-.572,1.031-1.353,2.372-2.092,3.421A4.513,4.513,0,0,1,2029.563,1643.068Z" transform="translate(-2026.183 -1624.9)" fill="url(#linear-gradient-6)"/>
      <path id="Path_37766" data-name="Path 37766" d="M2045.533,1682.928l-2.972,2.519-.933,2.508,2.649,2.939s.891-4.976,1.553-6.054S2046.149,1683.243,2045.533,1682.928Z" transform="translate(-2039.546 -1675.105)" fill="url(#linear-gradient-7)"/>
    </g>
    <path id="Path_37767" data-name="Path 37767" d="M1304.054,1991.269l-6.524-16.47s-15.887,10.795-18.5,24.481a37.6,37.6,0,0,1,13.811,3.7C1294.016,1996.519,1304.054,1991.269,1304.054,1991.269Z" transform="translate(-1278.668 -1927.625)" fill="#fed42d"/>
    <path id="Path_37768" data-name="Path 37768" d="M1315.613,2163.868s-17.837,10.081-23.856,1.473a6.765,6.765,0,0,1-1.241-5.257,37.6,37.6,0,0,0-13.811-3.7,18.889,18.889,0,0,0,2.053,12.949c10.542,19.285,39.215-1.066,39.215-1.066Z" transform="translate(-1276.343 -2084.728)" fill="url(#linear-gradient-3)"/>
    <g id="Group_19064" data-name="Group 19064" transform="translate(37.087 51.77)">
      <path id="Path_37769" data-name="Path 37769" d="M1551.469,2070.207l9.735-34a.991.991,0,0,1,.838-.714c1.764-.206,6.875-.784,12.776-1.283,7.108-.6,15.362-1.088,20.295-.674a1,1,0,0,1,.813,1.431c-2.8,5.675-14.343,28.759-20.12,36.32a1,1,0,0,1-.8.394l-22.587-.21A1,1,0,0,1,1551.469,2070.207Z" transform="translate(-1551.43 -2030.083)" fill="#2be4ac"/>
      <path id="Path_37770" data-name="Path 37770" d="M1726.9,2010.075l7.058-1.176a.507.507,0,0,1,.564.658l-.7,2.117a.507.507,0,0,1-.414.344l-6.792.907a.506.506,0,0,1-.56-.617l.432-1.849A.506.506,0,0,1,1726.9,2010.075Z" transform="translate(-1702.503 -2008.892)" fill="#18c792"/>
      <path id="Path_37771" data-name="Path 37771" d="M1693.113,2029.622l.582-3.028a.7.7,0,0,1,.617-.565l14.256-1.447a.7.7,0,0,1,.751.86l-.906,3.774a.7.7,0,0,1-.646.536l-13.931.7A.7.7,0,0,1,1693.113,2029.622Z" transform="translate(-1674 -2022.464)" fill="#18c792"/>
      <path id="Path_37772" data-name="Path 37772" d="M1563.139,2171.193s-1.356-5.576-.809-7.554,1.607-4.522,5.14-3.957a51.682,51.682,0,0,1,7.7,2.053,2.022,2.022,0,0,1-2.9,1.746l1.665,1.288s-.238,2.063-2.506.961l1.548,1.708a1.8,1.8,0,0,1-2.642.608C1568.67,2166.959,1567.87,2171.865,1563.139,2171.193Z" transform="translate(-1560.748 -2139.283)" fill="url(#linear-gradient-3)"/>
    </g>
    <path id="Path_37773" data-name="Path 37773" d="M1518.888,1839.252l-5.412,15.651a.564.564,0,0,0,.257.679c1.475.816,6.79,3.173,13.2-.888a2.656,2.656,0,0,0,1.223-1.9l1.753-13.546Z" transform="translate(-1481.478 -1810.353)" fill="url(#linear-gradient-3)"/>
    <g id="Group_19065" data-name="Group 19065" transform="translate(27.138 6.272)">
      <path id="Path_37774" data-name="Path 37774" d="M1552.144,1731.752s5.943,11.187,5.181,15.706-8.127,4.194-14.559.524l-4.495-12.079Z" transform="translate(-1530.097 -1723.618)" fill="url(#linear-gradient-11)"/>
      <path id="Path_37775" data-name="Path 37775" d="M1490.589,1689.852a.461.461,0,0,0,.2-.675,12.028,12.028,0,0,1-1.653-3.51s-1.068-.684,2.719-1.591,9.436-2.314,10.623-5.538c1.157-3.143-1.884-11.048-6.736-4.75a.461.461,0,0,1-.731.005c-.8-1.035-2.886-3.184-5.79-1.881-2.717,1.219-3.023,3.21-2.986,4.213a.458.458,0,0,1-.543.469,5.317,5.317,0,0,0-6.208,2.895c-1.267,2.785-.444,4.362.307,5.133a.46.46,0,0,1-.2.763,2.766,2.766,0,0,0-1.952,3.157c.161,2.924,3.431,2.666,4.361,2.533a.462.462,0,0,1,.41.145c.8.883,4.394,4.633,8.286,5.086a.465.465,0,0,0,.488-.615l-1.684-4.9a.463.463,0,0,1,.25-.574Z" transform="translate(-1477.635 -1671.42)" fill="#393939"/>
      <path id="Path_37776" data-name="Path 37776" d="M1549.494,1804.063s-4.231-2.9-4.541-.458,3.811,3.541,5.851,2.63Z" transform="translate(-1535.863 -1784.936)" fill="url(#linear-gradient-12)"/>
    </g>
  </g>
</svg>
