<svg xmlns="http://www.w3.org/2000/svg" xmlns:xlink="http://www.w3.org/1999/xlink" width="196" height="193" viewBox="0 0 196 193">
  <defs>
    <clipPath id="clip-path">
      <rect id="Rectangle_39601" data-name="Rectangle 39601" width="46.569" height="104.172" fill="#fff"/>
    </clipPath>
  </defs>
  <g id="Group_17270" data-name="Group 17270" transform="translate(-616 -2463)">
    <ellipse id="Ellipse_221" data-name="Ellipse 221" cx="98" cy="96.5" rx="98" ry="96.5" transform="translate(616 2463)" fill="#031d8e"/>
    <g id="Group_17260" data-name="Group 17260" transform="translate(691 2507)">
      <g id="Group_17259" data-name="Group 17259" clip-path="url(#clip-path)">
        <path id="Path_37086" data-name="Path 37086" d="M44.716,45.295a19.988,19.988,0,0,0-5.56-6.951,25.8,25.8,0,0,0-6.719-3.823A69.8,69.8,0,0,0,25.486,32.2,27.089,27.089,0,0,1,20.852,30.7a12.579,12.579,0,0,1-2.549-1.39,2.363,2.363,0,0,1-1.042-1.159,2.952,2.952,0,0,1-.232-.811,5.62,5.62,0,0,1,1.854-1.39,9.4,9.4,0,0,1,4.518-.927,9.259,9.259,0,0,1,3.823.927,4.235,4.235,0,0,1,2.433,2.664,1.114,1.114,0,0,0,1.042.695.426.426,0,0,0,.347-.115l14.017-4.518a1,1,0,0,0,.7-1.274,20.37,20.37,0,0,0-5.56-8.8,22.716,22.716,0,0,0-9.5-5.329V1.159a1.053,1.053,0,0,0-.348-.811A1.853,1.853,0,0,0,29.424,0H17.261a.7.7,0,0,0-.7.347.978.978,0,0,0-.232.811V9.152a27.294,27.294,0,0,0-8.341,3.823A20.034,20.034,0,0,0,2.2,19.346,15.72,15.72,0,0,0,.116,27.223,18.33,18.33,0,0,0,7.878,42.63a24.269,24.269,0,0,0,5.676,3.244A64.387,64.387,0,0,0,21.2,48.538c3.823,1.042,6.487,2.085,7.761,3.244a2.4,2.4,0,0,1,.7,1.159,4.766,4.766,0,0,1-1.738,4.865A6.3,6.3,0,0,1,23.4,59.543,7.871,7.871,0,0,1,19,58.269a3.982,3.982,0,0,1-1.969-3.128.7.7,0,0,0-.348-.7.977.977,0,0,0-.811-.232H1.159C.464,54.215,0,54.562,0,55.257a19.069,19.069,0,0,0,1.159,6.719,20,20,0,0,0,3.359,5.908,21.727,21.727,0,0,0,5.1,4.633,21.443,21.443,0,0,0,6.6,3.012v7.993a.406.406,0,0,0,.116.232H11.469A1.6,1.6,0,0,0,10.194,86.3l11.816,17.261a1.639,1.639,0,0,0,2.549,0L36.375,86.3A1.6,1.6,0,0,0,35.1,83.754h-4.75c0-.115.115-.115.115-.232V75.529A22.838,22.838,0,0,0,41.7,68a20.554,20.554,0,0,0,4.865-13.321,21.2,21.2,0,0,0-1.853-9.383Z" fill="#fff"/>
      </g>
    </g>
  </g>
</svg>
