<svg xmlns="http://www.w3.org/2000/svg" width="110.182" height="85" viewBox="0 0 110.182 85">
  <g id="Group_17245" data-name="Group 17245" transform="translate(630 -5815.885)">
    <path id="Path_37077" data-name="Path 37077" d="M362.413,150.987a2.14,2.14,0,0,0,.882-.2c.992-.441,24.505-10.975,24.505-30.5a15.4,15.4,0,0,0-25.387-11.724,15.4,15.4,0,0,0-25.387,11.724c0,19.525,23.491,30.058,24.505,30.5a1.982,1.982,0,0,0,.881.2Z" transform="translate(-918.163 5711)" fill="#0d3efb"/>
    <path id="Path_37078" data-name="Path 37078" d="M218.319,309.046l24.153-10.6a5.683,5.683,0,0,0-3.68-10.711l-20.737,5.289a10.264,10.264,0,0,1-1.587,5.443,6.379,6.379,0,0,1-5.906,4.1h-.243a61.037,61.037,0,0,1-29.881-7.8,2.2,2.2,0,1,1,2.2-3.813A55.318,55.318,0,0,0,206.31,298a6.436,6.436,0,0,0,6.942-5.244,4.211,4.211,0,0,0-.22-2.226.992.992,0,0,0-.529-.463c-10.754-3.371-33.342-16.109-37.507-19.7-5.576-4.827-17.41-.4-23.1,1.719l-.815.308c-2.908,1.08-7.559.308-9.124-.066a2.22,2.22,0,0,0-1.741.288,2.27,2.27,0,0,0-.97,1.476l-3.526,20.6a2.188,2.188,0,0,0,2.2,2.579c4.364-.066,16.748.353,21.222,3.019.441.265,1.014.617,1.675,1.035,6.083,3.835,19.437,12.231,36.4,12.231a51.96,51.96,0,0,0,21.09-4.517Z" transform="translate(-765.693 5587.321)" fill="#031d8e"/>
  </g>
</svg>
