<svg xmlns="http://www.w3.org/2000/svg" xmlns:xlink="http://www.w3.org/1999/xlink" width="150" height="150" viewBox="0 0 150 150">
  <defs>
    <filter id="Path_37054" x="50.392" y="57.761" width="30.868" height="30.868" filterUnits="userSpaceOnUse">
      <feOffset dy="3" input="SourceAlpha"/>
      <feGaussianBlur stdDeviation="3" result="blur"/>
      <feFlood flood-opacity="0.161"/>
      <feComposite operator="in" in2="blur"/>
      <feComposite in="SourceGraphic"/>
    </filter>
    <filter id="Path_37055" x="31" y="29" width="87.407" height="98" filterUnits="userSpaceOnUse">
      <feOffset dy="3" input="SourceAlpha"/>
      <feGaussianBlur stdDeviation="3" result="blur-2"/>
      <feFlood flood-opacity="0.161"/>
      <feComposite operator="in" in2="blur-2"/>
      <feComposite in="SourceGraphic"/>
    </filter>
  </defs>
  <g id="Group_17235" data-name="Group 17235" transform="translate(-1325 -1487)">
    <circle id="Ellipse_219" data-name="Ellipse 219" cx="75" cy="75" r="75" transform="translate(1325 1487)" fill="#031d8e"/>
    <g id="Group_17234" data-name="Group 17234" transform="translate(-1217.838 -3427.339)">
      <g transform="matrix(1, 0, 0, 1, 2542.84, 4914.34)" filter="url(#Path_37054)">
        <path id="Path_37054-2" data-name="Path 37054" d="M253.184,203.88a6.434,6.434,0,1,1-6.434,6.434A6.453,6.453,0,0,1,253.184,203.88Z" transform="translate(-187.36 -140.12)" fill="#fff"/>
      </g>
      <g transform="matrix(1, 0, 0, 1, 2542.84, 4914.34)" filter="url(#Path_37055)">
        <path id="Path_37055-2" data-name="Path 37055" d="M186.282,56.48a3.917,3.917,0,0,1-.782,1.434,5.926,5.926,0,0,1-2.217,1.434l-2.869.913L181.458,63c.261.652.13.782,0,.913l-.522.913.261,1.3a1.859,1.859,0,0,1-.782,1.956l-1.3,1.173.391,1.7a6.575,6.575,0,0,1-2.217,6.78,21.1,21.1,0,0,1-2.347,1.3,4.632,4.632,0,0,0-1.174.522,52.9,52.9,0,0,1-9.91,1.825l-.782.13c-5.085.652-7.823,4.564-9.649,8.084a2.978,2.978,0,0,1-4.042,1.434c-5.216-2.738-16.429-8.606-20.993-11.083a2.972,2.972,0,0,1-1.565-3.129,14.378,14.378,0,0,0,.261-4.042,24.815,24.815,0,0,0-2.477-8.475c-.652-1.434-1.434-2.869-2.086-4.3l-.13-.13-.13-.261c-.782-1.7-1.7-3.39-2.477-5.085a28.219,28.219,0,0,1-2.217-17.864c2.477-11.344,9.388-19.166,20.731-23.339-.13,1.565-.261,3.39-.391,4.824a3.61,3.61,0,0,1-.13,1.173c-.13,2.217-.13,4.433-.391,6.65a56.934,56.934,0,0,1-3.651,13.821c-2.086,5.085-1.434,12,3.52,15.125a9.641,9.641,0,0,0,5.476,1.565,8.382,8.382,0,0,0,4.042-.913,31.5,31.5,0,0,0,15.907,8.084,4.046,4.046,0,0,0,3.912,3.26h3.26a4.131,4.131,0,0,0,3-1.173,4.4,4.4,0,0,0,1.174-2.869,4.687,4.687,0,0,0-.261-1.434,4.273,4.273,0,0,0-3.781-2.738h-3.26a4.632,4.632,0,0,0-3.39,1.565,27.232,27.232,0,0,1-13.691-6.78,10.18,10.18,0,0,0,3-6.65V46.44a25.32,25.32,0,0,0-.261-3.129,15.381,15.381,0,0,0-2.217-5.216c-3.129-4.824-3.521-9.779-3.521-15.256,0-1.7,0-3.912.13-6.128V11.626a13.974,13.974,0,0,1,2.738-.261,38.337,38.337,0,0,1,9.258,1.173,25.471,25.471,0,0,1,14.864,9,23.816,23.816,0,0,1,5.607,15.647c0,.782-.13,1.7-.13,2.477l-.13.522.13.782a4.942,4.942,0,0,0,.782,1.7.4.4,0,0,1,.13.261l2.086,3.781,3.912,7.041a3.936,3.936,0,0,1,.261,2.738Z" transform="translate(-77.01 23.64)" fill="#fff"/>
      </g>
    </g>
  </g>
</svg>
