<svg xmlns="http://www.w3.org/2000/svg" width="126.749" height="110" viewBox="0 0 126.749 110">
  <path id="Path_33809" data-name="Path 33809" d="M207.4,685.319A10.333,10.333,0,0,0,197.084,675H90.979a10.331,10.331,0,0,0-10.32,10.32v66.385a10.331,10.331,0,0,0,10.32,10.32H140.24l0,15.392H123.666a3.792,3.792,0,1,0,0,7.583H164.4a3.792,3.792,0,1,0,0-7.583H147.826l0-15.392h49.264a10.332,10.332,0,0,0,10.32-10.32ZM90.979,682.583H197.084a2.74,2.74,0,0,1,2.737,2.736v10.5H88.242v-10.5A2.74,2.74,0,0,1,90.979,682.583Zm106.109,71.859H90.979a2.74,2.74,0,0,1-2.737-2.737V702.82h111.58l0,48.885A2.74,2.74,0,0,1,197.088,754.442Z" transform="translate(-80.659 -675)" fill="#031d8e"/>
</svg>
