<svg xmlns="http://www.w3.org/2000/svg" width="108.823" height="110" viewBox="0 0 108.823 110">
  <path id="Path_37090" data-name="Path 37090" d="M96.055,44h-9V33A33.07,33.07,0,0,0,70.735,4.42a32.349,32.349,0,0,0-32.647,0A33.068,33.068,0,0,0,21.765,33V44h-9a12.719,12.719,0,0,0-9.024,3.785A12.989,12.989,0,0,0,0,56.906V75.09a12.991,12.991,0,0,0,3.743,9.124A12.709,12.709,0,0,0,12.768,88H25.392a3.608,3.608,0,0,0,2.565-1.073,3.683,3.683,0,0,0,1.062-2.593V33a25.72,25.72,0,0,1,12.7-22.228,25.159,25.159,0,0,1,25.393,0A25.718,25.718,0,0,1,79.8,33V84.333a3.687,3.687,0,0,0,1.062,2.593A3.612,3.612,0,0,0,83.432,88h7.254a7.371,7.371,0,0,1-2.125,5.185,7.217,7.217,0,0,1-5.129,2.148H64.626a10.934,10.934,0,0,0-7.075-6.851A10.78,10.78,0,0,0,47.9,90.156a11.07,11.07,0,0,0,0,17.687,10.787,10.787,0,0,0,9.656,1.675,10.938,10.938,0,0,0,7.075-6.851H83.432a14.429,14.429,0,0,0,10.259-4.3A14.747,14.747,0,0,0,97.942,88H96.055a12.705,12.705,0,0,0,9.025-3.785,12.986,12.986,0,0,0,3.743-9.123V56.907a12.989,12.989,0,0,0-3.743-9.122A12.721,12.721,0,0,0,96.055,44ZM21.764,80.667h-9a5.5,5.5,0,0,1-3.9-1.636A5.61,5.61,0,0,1,7.254,75.09V56.907a5.615,5.615,0,0,1,1.617-3.939,5.491,5.491,0,0,1,3.9-1.634h9Zm32.647,22a3.61,3.61,0,0,1-2.565-1.073,3.7,3.7,0,0,1,0-5.185,3.6,3.6,0,0,1,5.131,0,3.7,3.7,0,0,1,0,5.185,3.612,3.612,0,0,1-2.566,1.073m47.157-27.575a5.612,5.612,0,0,1-1.616,3.941,5.494,5.494,0,0,1-3.9,1.635h-9V51.333h9a5.491,5.491,0,0,1,3.9,1.634,5.615,5.615,0,0,1,1.617,3.939Z" transform="translate(0 0)" fill="#FFFFFF" />
</svg>