<svg xmlns="http://www.w3.org/2000/svg" width="100.89" height="84.999" viewBox="0 0 100.89 84.999">
  <g id="Group_17246" data-name="Group 17246" transform="translate(-202 -2289)">
    <path id="Path_37079" data-name="Path 37079" d="M22.446,341.922H1.589a1.554,1.554,0,0,0-1.05,2.731l9.976,8.99L.539,362.612a1.6,1.6,0,0,0-.421,1.743,1.575,1.575,0,0,0,1.471,1.008H22.446a1.555,1.555,0,0,0,1.575-1.575V343.5a1.555,1.555,0,0,0-1.575-1.575Z" transform="translate(202 2008.636)" fill="#031d8e"/>
    <path id="Path_37080" data-name="Path 37080" d="M440.228,353.641l10.019-8.99a1.554,1.554,0,0,0-1.05-2.731H428.3a1.555,1.555,0,0,0-1.575,1.575v20.29a1.555,1.555,0,0,0,1.575,1.575h20.857a1.576,1.576,0,0,0,1.471-1.008,1.6,1.6,0,0,0-.421-1.743Z" transform="translate(-147.897 2008.638)" fill="#031d8e"/>
    <path id="Path_37081" data-name="Path 37081" d="M145.151,298.874h46a1.692,1.692,0,0,1,1.575,1.575v20.29a1.575,1.575,0,0,1-1.575,1.575h-46a1.692,1.692,0,0,1-1.575-1.575v-20.29A1.575,1.575,0,0,1,145.151,298.874Z" transform="translate(84.273 2043.934)" fill="#031d8e"/>
    <path id="Path_37083" data-name="Path 37083" d="M151.554,51.876a2.522,2.522,0,0,0,2.1-1.324,34.237,34.237,0,1,0-60.2,0,2.521,2.521,0,0,0,4.432-2.394,29.2,29.2,0,1,1,51.334,0,2.5,2.5,0,0,0,1.029,3.4,2.443,2.443,0,0,0,1.3.315Z" transform="translate(128.762 2289)" fill="#0d3efb"/>
    <path id="Path_37084" data-name="Path 37084" d="M224.282,109.556a1.559,1.559,0,0,0-1.234-1.039l-9.435-1.579-4.328-8.483a1.58,1.58,0,0,0-2.77,0l-4.328,8.483-9.5,1.579a1.558,1.558,0,0,0-1.233,1.039,1.621,1.621,0,0,0,.368,1.58l6.709,6.816-1.515,9.457a1.558,1.558,0,0,0,2.163,1.623l8.547-4.328,8.547,4.328h0a1.631,1.631,0,0,0,.714.151,1.514,1.514,0,0,0,1.514-1.774l-1.406-9.457,6.709-6.816A1.625,1.625,0,0,0,224.282,109.556Z" transform="translate(44.587 2208.479)" fill="#0d3efb"/>
  </g>
</svg>
