<svg xmlns="http://www.w3.org/2000/svg" width="91.449" height="110" viewBox="0 0 91.449 110">
  <g id="Group_17004" data-name="Group 17004" transform="translate(-1609.674 -390)">
    <path id="Path_33804" data-name="Path 33804" d="M1701.12,409.084c0-12.524-23.007-19.084-45.724-19.084s-45.722,6.56-45.722,19.084v71.832c0,12.524,23.008,19.084,45.725,19.084s45.724-6.56,45.724-19.084ZM1655.4,395.721c25.6,0,39.562,7.7,39.562,11.66s-13.964,11.661-39.562,11.661-39.562-7.7-39.562-11.661S1629.8,395.721,1655.4,395.721Zm0,98.559h0c-25.6,0-39.562-7.7-39.562-11.66V456.106c9.022,5.386,24.376,8.19,39.562,8.19s30.54-2.776,39.562-8.231v26.556C1694.959,486.645,1680.994,494.28,1655.4,494.28Zm0-38.313c-25.6,0-39.562-7.705-39.562-11.661V419.139c9.022,5.428,24.376,8.232,39.562,8.232s30.54-2.777,39.562-8.232v25.167C1694.959,448.262,1680.995,455.967,1655.4,455.967Z" fill="#031d8e"/>
    <path id="Path_33805" data-name="Path 33805" d="M1639.187,439.3a6.852,6.852,0,1,1-6.852-6.852,6.851,6.851,0,0,1,6.852,6.852" fill="#031d8e"/>
    <path id="Path_33806" data-name="Path 33806" d="M1639.187,473.76a6.852,6.852,0,1,1-6.852-6.852,6.852,6.852,0,0,1,6.852,6.852" fill="#031d8e"/>
  </g>
</svg>
