<svg xmlns="http://www.w3.org/2000/svg" width="152.464" height="111.018" viewBox="0 0 152.464 111.018">
  <path id="Union_2" data-name="Union 2" d="M80.734-3739.033l-.027-.027-.025-.029a3.774,3.774,0,0,1-.923-2.449,3.356,3.356,0,0,1,.894-2.309,18.292,18.292,0,0,1-3.693-1.445,18.392,18.392,0,0,1-4.6-3.4,18.288,18.288,0,0,1-3.34-4.667,18.224,18.224,0,0,1-1.607-4.768H24.784a24.8,24.8,0,0,1-9.664-1.939,24.66,24.66,0,0,1-7.876-5.283,24.526,24.526,0,0,1-5.3-7.832A24.357,24.357,0,0,1,0-3782.761a24.41,24.41,0,0,1,15.861-23.014,26.673,26.673,0,0,1,9.007-15.791,27.327,27.327,0,0,1,17.72-6.513,28.4,28.4,0,0,1,4.723.4,33.3,33.3,0,0,1,4.95-8.849,31.786,31.786,0,0,1,7.529-6.925,33.3,33.3,0,0,1,9.042-4.159,35.1,35.1,0,0,1,9.8-1.386,35.135,35.135,0,0,1,9.582,1.325,33.524,33.524,0,0,1,8.911,3.991,32.226,32.226,0,0,1,7.535,6.673,33.952,33.952,0,0,1,5.178,8.693h.141a23.476,23.476,0,0,1,8.492,1.647,27.5,27.5,0,0,1,7.758,4.6,26.951,26.951,0,0,1,9.263,15.627,23.47,23.47,0,0,1,12.368,8.573,23.339,23.339,0,0,1,3.582,7.058,22.99,22.99,0,0,1,.989,8.073,24.128,24.128,0,0,1-1.43,8.188,24.284,24.284,0,0,1-3.961,7.029,24.91,24.91,0,0,1-6,5.366,25.191,25.191,0,0,1-6.878,3.058,18.593,18.593,0,0,1-5.877,11.113,18.416,18.416,0,0,1-12.453,4.845A18.594,18.594,0,0,1,97.256-3761.7a11.738,11.738,0,0,0-11.725-11.725A11.738,11.738,0,0,0,73.806-3761.7a11.7,11.7,0,0,0,5.8,10.146c0-.043,0-.086,0-.129a3.357,3.357,0,0,1,.974-2.393l.027-.027.029-.024a3.776,3.776,0,0,1,2.45-.923,3.357,3.357,0,0,1,2.393.974L93-3746.556l-7.524,7.524a3.42,3.42,0,0,1-2.373,1.051A3.42,3.42,0,0,1,80.734-3739.033Zm23.521-22.672a11.739,11.739,0,0,0,11.725,11.725,11.739,11.739,0,0,0,11.725-11.725,11.7,11.7,0,0,0-5.805-10.147c0,.043,0,.086,0,.129a3.354,3.354,0,0,1-.975,2.393,3.424,3.424,0,0,1-2.373,1.051,3.424,3.424,0,0,1-2.373-1.051l-7.516-7.516,7.388-7.557.033-.028a3.772,3.772,0,0,1,2.45-.922,3.353,3.353,0,0,1,2.393.974l.027.027.024.029a3.773,3.773,0,0,1,.923,2.449,3.361,3.361,0,0,1-.9,2.313,18.236,18.236,0,0,1,8.1,4.725,18.223,18.223,0,0,1,4.9,8.806,17.512,17.512,0,0,0,11.722-16.715v-.017a17.654,17.654,0,0,0-14.483-17.65l-.068-.013-.066-.022a3.58,3.58,0,0,1-2.5-3.019c-.958-10.689-10.806-18.135-19.059-18.134a13.2,13.2,0,0,0-1.914.137l-.022,0a3.9,3.9,0,0,1-.481.03,3.3,3.3,0,0,1-3.154-2.338l-.015-.043a26.5,26.5,0,0,0-25.622-18.571h0c-12.4,0-22.514,7.621-25.778,19.416a3.222,3.222,0,0,1-3.123,2.554,3.062,3.062,0,0,1-1.045-.184,21.349,21.349,0,0,0-6.25-.958A19.978,19.978,0,0,0,22.3-3803.311a3.454,3.454,0,0,1-2.349,3.016l-.038.012A17.921,17.921,0,0,0,6.7-3782.761a18.254,18.254,0,0,0,18.088,17.936H67.4a18.558,18.558,0,0,1,5.956-10.768,18.519,18.519,0,0,1,12.33-4.684A18.594,18.594,0,0,1,104.255-3761.7Zm-40.384-51.612a3.292,3.292,0,0,1-1.971-1.559,3.439,3.439,0,0,1-.367-2.519l.009-.035a17.538,17.538,0,0,1,6.167-8.981,17.373,17.373,0,0,1,4.84-2.615,16.839,16.839,0,0,1,5.558-.943h.876l.012.091a3.164,3.164,0,0,1,1.6.847,3.42,3.42,0,0,1,.937,2.487,3.409,3.409,0,0,1-1.01,2.5,3.458,3.458,0,0,1-2.414.921,10.5,10.5,0,0,0-10.094,7.746l-.018.067-.027.064a3.421,3.421,0,0,1-3.066,2.1A3.1,3.1,0,0,1,63.871-3813.316Z" transform="translate(0 3849)" fill="#6450e8"/>
</svg>
