<svg xmlns="http://www.w3.org/2000/svg" width="118.589" height="110.5" viewBox="0 0 118.589 110.5">
  <path id="Path_37095" data-name="Path 37095" d="M162.886,50.4a10.141,10.141,0,0,0-2.695,19.919V83.75a22.112,22.112,0,0,0-14.907,8.633l-10.528-6.738a12.647,12.647,0,1,0-2.737,4.632l10.528,6.738a21.948,21.948,0,0,0,0,17.265l-11.5,7.327h-7.622a9.9,9.9,0,0,0-.884-2.063A10.16,10.16,0,1,0,118.8,133.4a10.086,10.086,0,0,0,4.759-6.4h8.254a2.7,2.7,0,0,0,1.474-.421l12-7.622a22.134,22.134,0,0,0,14.907,8.59v13.433a10.149,10.149,0,1,0,5.39,0V127.545a22.108,22.108,0,0,0,14.949-8.633l10.4,6.612a12.361,12.361,0,0,0-.506,3.537,12.527,12.527,0,1,0,3.158-8.254l-10.317-6.57a22.337,22.337,0,0,0,0-17.223l11.455-7.327h7.58a10.146,10.146,0,0,0,14.822,5.853A10.141,10.141,0,1,0,202.218,84.3h-8.254a2.7,2.7,0,0,0-1.474.421l-11.959,7.665a22.108,22.108,0,0,0-14.949-8.633V70.317A10.141,10.141,0,0,0,162.886,50.4Zm0,5.391a4.759,4.759,0,1,1-4.717,4.758A4.72,4.72,0,0,1,162.886,55.788ZM122.164,74.822c.239-.023.512,0,.759,0a6.7,6.7,0,1,1-.758,0Zm90.2,7.159a4.766,4.766,0,0,1,3.79,2.4,4.634,4.634,0,1,1-3.79-2.4Zm-49.479,6.991a16.676,16.676,0,1,1-16.676,16.676A16.652,16.652,0,0,1,162.886,88.972ZM114.081,119.84a4.764,4.764,0,0,1,3.79,2.4,4.636,4.636,0,1,1-3.79-2.4Zm88.811,2.147a7.054,7.054,0,1,1-7.074,7.075A7.01,7.01,0,0,1,202.891,121.987Zm-40.005,24a4.759,4.759,0,1,1-4.717,4.759A4.721,4.721,0,0,1,162.886,145.99Z" transform="translate(-103.592 -50.398)" fill="#FFFFFF" />
</svg>