<svg xmlns="http://www.w3.org/2000/svg" width="100.761" height="110" viewBox="0 0 100.761 110">
  <path id="Path_37091" data-name="Path 37091" d="M322.03,59.087a31.907,31.907,0,0,0,14.2-26.725,32.08,32.08,0,1,0-64.16,0,31.9,31.9,0,0,0,14.3,26.787,50.76,50.76,0,0,0-16.643,10.4,48.989,48.989,0,0,0-15.954,36.529,3.967,3.967,0,0,0,4.2,4.2h92.366a3.967,3.967,0,0,0,4.2-4.2,50.189,50.189,0,0,0-32.5-46.992M279.313,32.362a24.837,24.837,0,1,1,49.673,0,24.837,24.837,0,1,1-49.673,0m-19.567,71.7a48.425,48.425,0,0,1,14.208-29.024,43.438,43.438,0,0,1,18.206-10.6,30,30,0,0,0,7.966,2.412V90.117a4.062,4.062,0,0,0,8.046,0V66.98a29.922,29.922,0,0,0,8.854-2.534,46.1,46.1,0,0,1,31.526,39.62Z" transform="translate(-253.769 -0.279)" fill="#FFFFFF" />
</svg>