<svg xmlns="http://www.w3.org/2000/svg" xmlns:xlink="http://www.w3.org/1999/xlink" width="196" height="193" viewBox="0 0 196 193">
  <defs>
    <clipPath id="clip-path">
      <rect id="Rectangle_39603" data-name="Rectangle 39603" width="86.655" height="81.469" fill="#fff"/>
    </clipPath>
  </defs>
  <g id="Group_17273" data-name="Group 17273" transform="translate(-165 -2463)">
    <ellipse id="Ellipse_220" data-name="Ellipse 220" cx="98" cy="96.5" rx="98" ry="96.5" transform="translate(165 2463)" fill="#031d8e"/>
    <g id="Group_17264" data-name="Group 17264" transform="translate(219.581 2519.127)">
      <g id="Group_17263" data-name="Group 17263" clip-path="url(#clip-path)">
        <path id="Path_37089" data-name="Path 37089" d="M81.47,64.806H81.1V36.775h0L81.061,16.4a2.294,2.294,0,0,0-2.294-2.289H58.591A1.588,1.588,0,0,0,57,15.7v2.479H76.99l.036,18.593h0V64.434h-20l-1.851,4.074A5.241,5.241,0,0,1,50.732,71.1H35.919a5.279,5.279,0,0,1-4.443-2.222l-1.851-4.443h-20V23.7a5.062,5.062,0,0,1,5.184-5.184H24.07c0,1.111.371,1.851.371,2.962,0,.741,2.222,7.406,6.3,11.109v4.443c-10,.741-17.776,9.629-17.776,20V61.1h10V51.845a1.851,1.851,0,1,1,3.7,0V61.1H49.993V51.845a1.851,1.851,0,1,1,3.7,0V61.1h9.629V57.029c0-10.369-7.776-19.257-18.145-20V32.958c3.7-3.333,5.925-8.888,7.036-14.072,0-.741.37-3.333.37-5.184C52.585,7.407,49.993,0,37.772,0S22.959,7.407,22.959,13.332v1.481H14.812A9.012,9.012,0,0,0,5.925,23.7V64.806h-.74A5.062,5.062,0,0,0,0,69.99,11.538,11.538,0,0,0,11.48,81.47h63.7a11.538,11.538,0,0,0,11.48-11.48,5.3,5.3,0,0,0-5.184-5.184M29.254,16.665h0v-.741c0-.741,0-1.111.37-1.111H30a11,11,0,0,1,4.074,1.481L39.994,20a1.744,1.744,0,0,0,2.222-.37,1.744,1.744,0,0,0,.371-2.222,17.987,17.987,0,0,1-1.481-4.074,7.713,7.713,0,0,0,2.221,1.482c1.481,1.111,4.814,3.7,5.184,4.074-1.111,5.184-3.7,10-7.036,12.221a5.064,5.064,0,0,1-6.666,0c-2.592-1.851-4.814-5.555-5.925-9.629.37-.741.741-1.111.741-1.851,0-1.111-.37-2.222-.37-2.963" transform="translate(0 -0.001)" fill="#fff"/>
      </g>
    </g>
  </g>
</svg>
