<svg xmlns="http://www.w3.org/2000/svg" width="112.992" height="113" viewBox="0 0 112.992 113">
  <g id="Group_17320" data-name="Group 17320" transform="translate(-761.884 -7734.5)">
    <path id="Path_37092" data-name="Path 37092" d="M173.4,48.414a55,55,0,1,0,55,55A55.059,55.059,0,0,0,173.4,48.414Zm1.864,106.238v-9.028a1.864,1.864,0,1,0-3.727,0v9.028a51.336,51.336,0,0,1-49.37-49.376h9.028a1.864,1.864,0,0,0,0-3.727h-9.028a51.336,51.336,0,0,1,49.373-49.374V61.2a1.864,1.864,0,0,0,3.727,0V52.175a51.336,51.336,0,0,1,49.373,49.376h-9.028a1.864,1.864,0,0,0,0,3.727h9.028a51.341,51.341,0,0,1-49.378,49.374Z" transform="translate(644.984 7687.586)" fill="#FFFFFF" stroke="#FFFFFF" stroke-width="3" />
    <path id="Path_37093" data-name="Path 37093" d="M302.516,194.674,276.8,205.78h0l-.037.017c-.054.023-.1.054-.147.081s-.1.05-.151.083a1.823,1.823,0,0,0-.509.509,1.324,1.324,0,0,0-.077.141c-.031.054-.06.1-.087.154l-11.117,25.756a1.86,1.86,0,0,0,2.447,2.446l25.756-11.118a1.861,1.861,0,0,0,.972-.972l11.118-25.756a1.861,1.861,0,0,0-2.447-2.446Zm-32.567,35.018,8.173-18.933,10.76,10.76Zm21.566-10.807-10.76-10.76,18.933-8.173Z" transform="translate(533.566 7576.178)" fill="#FFFFFF" stroke="#FFFFFF" stroke-width="3" />
  </g>
</svg>