<svg xmlns="http://www.w3.org/2000/svg" width="35" height="100" viewBox="0 0 35 100">
  <g id="Group_17236" data-name="Group 17236" transform="translate(-790 -1221)">
    <path id="Path_37028" data-name="Path 37028" d="M2067.767,3919.633v15.59l17.469,14.316,17.4-14.316v-15.59l-17.4,14.791Z" transform="translate(-1277.639 -2628.539)" fill="#0d3efb"/>
    <path id="Path_37029" data-name="Path 37029" d="M2067.767,3919.633v15.59l17.469,14.316,17.4-14.316v-15.59l-17.4,14.791Z" transform="translate(-1277.767 -2646.062)" fill="#0d3efb" opacity="0.8"/>
    <path id="Path_37030" data-name="Path 37030" d="M2067.767,3919.633v15.59l17.469,14.316,17.4-14.316v-15.59l-17.4,14.791Z" transform="translate(-1277.767 -2663.586)" fill="#0d3efb" opacity="0.6"/>
    <path id="Path_37031" data-name="Path 37031" d="M2067.767,3919.633v15.59l17.469,14.316,17.4-14.316v-15.59l-17.4,14.791Z" transform="translate(-1277.767 -2681.109)" fill="#0d3efb" opacity="0.4"/>
    <path id="Path_37032" data-name="Path 37032" d="M2067.767,3919.633v15.59l17.469,14.316,17.4-14.316v-15.59l-17.4,14.791Z" transform="translate(-1277.767 -2698.633)" fill="#0d3efb" opacity="0.2"/>
  </g>
</svg>
