<svg xmlns="http://www.w3.org/2000/svg" width="140.709" height="109.126" viewBox="0 0 140.709 109.126">
  <g id="Group_17006" data-name="Group 17006" transform="translate(-1299.944 -675.437)">
    <g id="Group_16328" data-name="Group 16328">
      <path id="Path_33823" data-name="Path 33823" d="M1436.63,772.937c-7.716,7.721-21.045,8.993-30.339,2.892l-1.673-1.131a2.353,2.353,0,0,0-2.632-.006c-10.16,6.85-20.049,6.868-30.246.053a2.327,2.327,0,0,0-2.615-.006c-10.142,6.761-20.031,6.744-30.255-.059a2.338,2.338,0,0,0-2.722.083,24.661,24.661,0,0,1-32.2-2.145,2.358,2.358,0,0,0-3.287,3.381A28.7,28.7,0,0,0,1325,784.222a28.163,28.163,0,0,0,12.64-4.736c10.921,6.7,21.935,6.709,32.795.018a29.125,29.125,0,0,0,32.843-.024l.428.289c11.273,7.4,26.863,5.9,36.258-3.5a2.357,2.357,0,0,0-3.333-3.334Z" fill="#2be4ac" />
      <path id="Path_33824" data-name="Path 33824" d="M1324.992,770.132a28.162,28.162,0,0,0,12.64-4.736c10.914,6.7,21.934,6.7,32.8.024a29.11,29.11,0,0,0,32.843-.03l.436.3c11.261,7.4,26.853,5.9,36.258-3.505a2.357,2.357,0,0,0-3.334-3.333c-7.722,7.727-21.033,8.993-30.326,2.909l-1.684-1.142a2.353,2.353,0,0,0-2.633-.006,29.822,29.822,0,0,1-10.184,4.524v-5.525a11.467,11.467,0,0,0,8.128-10.36c.559-5.643.111-21.168.024-23.989.824-2.516,5.136-15.739,6.42-20.627,1.42-5.454.471-9.277-2.385-10.6a6.714,6.714,0,0,0-5.378-.654c-2.592.783-4.736,3.051-6.355,6.75-.583,1.331-1.367,3.416-2.2,5.73l0-16.479c0-6.62-2.032-10.007-5.519-10.007h-.095a5.68,5.68,0,0,0-4.534,1.03c-1.708,1.307-2.633,3.528-2.746,6.444l-1.071,10.613-1.567-12.475c-.041-.595-.513-5.878-3.451-8.31a5.342,5.342,0,0,0-4.053-1.208c-4.3.5-5.937,3.169-6.232,10.189-.188,4.483-.459,13.806-.671,21.428l-6.874-17.758c-.176-.441-1.866-4.352-5.206-5.578a6.252,6.252,0,0,0-5.253.543c-1.614,1.089-3.918,4.322-2.268,9.523,1.39,4.418,3.239,11.674,5.03,18.689,1.549,6.073,3.033,11.885,4.246,16.014-.194-.006-.37-.03-.571-.03h-.117l-1.178-.171-11.786-10.837a9.338,9.338,0,0,0-6.038-2.726h-.117a6.427,6.427,0,0,0-4.641,2.119,5.966,5.966,0,0,0-1.914,4.277,7.048,7.048,0,0,0,2.609,5.177l6.8,11.179c.206.595,5.195,14.471,17.735,17.793l1.579.335.176,9.93a28.076,28.076,0,0,1-13.47-4.97,2.336,2.336,0,0,0-2.721.077h0a23.856,23.856,0,0,1-11.7,4.776,24.137,24.137,0,0,1-20.5-6.921,2.358,2.358,0,0,0-3.287,3.381A28.707,28.707,0,0,0,1324.992,770.132Zm26.674-19.419c-9.977-2.645-14.33-14.648-14.577-15.207l-7.2-11.922a2.433,2.433,0,0,0-.477-.565,3.159,3.159,0,0,1-1.272-1.849,1.382,1.382,0,0,1,.489-.925,1.947,1.947,0,0,1,1.432-.777h.047a4.85,4.85,0,0,1,2.762,1.4l12.41,11.414a2.094,2.094,0,0,0,.194.118,2.292,2.292,0,0,0,.4.247,2.164,2.164,0,0,0,.448.159c.077.018.135.065.212.077l2.238.295h.065c15.756,0,18.512,12.963,18.619,13.517a2.354,2.354,0,0,0,4.624-.89c-.023-.159-2.833-13.8-17.192-16.733-1.272-3.994-3.051-10.955-4.777-17.729-1.8-7.084-3.672-14.4-5.1-18.941-1-3.17.247-4.094.176-4.065a1.427,1.427,0,0,1,1.226-.165c1.107.4,2.143,2.162,2.456,2.9l11.109,28.673a2.372,2.372,0,0,0,2.6,1.472,2.348,2.348,0,0,0,1.949-2.262s.624-24.82.978-33.09c.236-5.483,1.084-5.59,2.568-5.56,1.042.86,1.661,3.7,1.779,5.154L1374,718.713a2.7,2.7,0,0,0,2.361,2.062,2.366,2.366,0,0,0,2.321-2.114l3.181-31.475a4.514,4.514,0,0,1,.877-3.009,1.49,1.49,0,0,1,1.161-.147c.536,0,1.426.695,1.426,5.354v30.722a2.359,2.359,0,0,0,1.99,2.326,2.331,2.331,0,0,0,2.609-1.6c.048-.141,4.671-14.36,6.627-18.818.995-2.262,2.179-3.723,3.339-4.1a2.2,2.2,0,0,1,1.8.235c.647.307.871,2.38.117,5.3-1.349,5.16-6.42,20.591-6.473,20.744a2.355,2.355,0,0,0-.118.813c.006.176.589,18.011.006,23.777-.589,5.913-5.43,6.509-5.96,6.555a2.364,2.364,0,0,0-2.191,2.35v8.052c-5.083.053-10.172-1.626-15.338-5.077a2.324,2.324,0,0,0-2.615-.006,28.5,28.5,0,0,1-12.068,4.806l-.212-11.786a2.371,2.371,0,0,0-1.873-2.268Z" fill="#2be4ac" />
    </g>
  </g>
</svg>