<svg xmlns="http://www.w3.org/2000/svg" width="121.929" height="85" viewBox="0 0 121.929 85">
  <g id="Group_17238" data-name="Group 17238" transform="translate(-357 -2104)">
    <path id="Path_37063" data-name="Path 37063" d="M252.52,131.012a24.954,24.954,0,0,1,24.954,24.954c0,14.058-8.761,13.089-11.1,31.723H254.092V171.276a.906.906,0,0,0,.713-.885,3.05,3.05,0,0,1,5.2-2.155.9.9,0,0,0,1.279,0l1.949-1.949a.9.9,0,0,0,0-1.279,3.05,3.05,0,0,1,2.155-5.2.9.9,0,0,0,.9-.9v-2.755a.9.9,0,0,0-.9-.9,3.05,3.05,0,0,1-2.155-5.2.9.9,0,0,0,0-1.28l-1.949-1.949a.9.9,0,0,0-1.279,0,3.05,3.05,0,0,1-5.2-2.155.905.905,0,0,0-.9-.9h-2.755a.9.9,0,0,0-.9.9,3.05,3.05,0,0,1-5.2,2.155.9.9,0,0,0-1.28,0l-1.949,1.949a.9.9,0,0,0,0,1.28,3.05,3.05,0,0,1-2.155,5.2.9.9,0,0,0-.9.9V158.9a.9.9,0,0,0,.9.9,3.05,3.05,0,0,1,2.155,5.2.9.9,0,0,0,0,1.279l1.949,1.949a.9.9,0,0,0,1.28,0,3.048,3.048,0,0,1,5.2,2.155.9.9,0,0,0,.713.885v16.413H238.668c-2.34-18.635-11.1-17.666-11.1-31.723a24.955,24.955,0,0,1,24.954-24.954Z" transform="translate(165.324 1972.988)" fill="#031d8e" fill-rule="evenodd"/>
    <path id="Path_37064" data-name="Path 37064" d="M266.226,424.492H293.8a4.137,4.137,0,0,1,4.124,4.126v8.9a4.136,4.136,0,0,1-4.124,4.124H289.56v4.136a3.9,3.9,0,0,1-3.892,3.892H274.356a3.9,3.9,0,0,1-3.892-3.892v-4.136h-4.24a4.138,4.138,0,0,1-4.126-4.124v-8.9a4.139,4.139,0,0,1,4.126-4.127Z" transform="translate(137.901 1739.326)" fill="#031d8e" fill-rule="evenodd"/>
    <path id="Path_37065" data-name="Path 37065" d="M323.7,228.042a6.732,6.732,0,1,0,6.732,6.732,6.732,6.732,0,0,0-6.732-6.732Z" transform="translate(94.146 1895.734)" fill="#031d8e" fill-rule="evenodd"/>
    <path id="Path_37070" data-name="Path 37070" d="M120.572,325.578a3.978,3.978,0,0,1-2.811-6.787,1.18,1.18,0,0,0,0-1.669l-2.542-2.542a1.18,1.18,0,0,0-1.669,0,3.977,3.977,0,0,1-6.787-2.811,1.18,1.18,0,0,0-1.18-1.18h-3.593a1.18,1.18,0,0,0-1.18,1.18,3.978,3.978,0,0,1-6.787,2.811,1.18,1.18,0,0,0-1.669,0l-2.542,2.542a1.18,1.18,0,0,0,0,1.669A3.977,3.977,0,0,1,87,325.578a1.18,1.18,0,0,0-1.179,1.18v3.593A1.18,1.18,0,0,0,87,331.531a3.978,3.978,0,0,1,2.811,6.787,1.179,1.179,0,0,0,0,1.669l2.542,2.542a1.18,1.18,0,0,0,1.669,0,3.976,3.976,0,0,1,6.787,2.811,1.18,1.18,0,0,0,1.18,1.18h3.593a1.179,1.179,0,0,0,1.18-1.18,3.978,3.978,0,0,1,6.787-2.811,1.18,1.18,0,0,0,1.669,0l2.542-2.542a1.18,1.18,0,0,0,0-1.669,3.977,3.977,0,0,1,2.811-6.787,1.181,1.181,0,0,0,1.18-1.18v-3.593A1.18,1.18,0,0,0,120.572,325.578Zm-16.788,11.754a8.78,8.78,0,1,1,8.78-8.78A8.78,8.78,0,0,1,103.784,337.332Z" transform="translate(271.177 1829.89)" fill="#0d3efb" fill-rule="evenodd"/>
    <path id="Path_37071" data-name="Path 37071" d="M120.572,325.578a3.978,3.978,0,0,1-2.811-6.787,1.18,1.18,0,0,0,0-1.669l-2.542-2.542a1.18,1.18,0,0,0-1.669,0,3.977,3.977,0,0,1-6.787-2.811,1.18,1.18,0,0,0-1.18-1.18h-3.593a1.18,1.18,0,0,0-1.18,1.18,3.978,3.978,0,0,1-6.787,2.811,1.18,1.18,0,0,0-1.669,0l-2.542,2.542a1.18,1.18,0,0,0,0,1.669A3.977,3.977,0,0,1,87,325.578a1.18,1.18,0,0,0-1.179,1.18v3.593A1.18,1.18,0,0,0,87,331.531a3.978,3.978,0,0,1,2.811,6.787,1.179,1.179,0,0,0,0,1.669l2.542,2.542a1.18,1.18,0,0,0,1.669,0,3.976,3.976,0,0,1,6.787,2.811,1.18,1.18,0,0,0,1.18,1.18h3.593a1.179,1.179,0,0,0,1.18-1.18,3.978,3.978,0,0,1,6.787-2.811,1.18,1.18,0,0,0,1.669,0l2.542-2.542a1.18,1.18,0,0,0,0-1.669,3.977,3.977,0,0,1,2.811-6.787,1.181,1.181,0,0,0,1.18-1.18v-3.593A1.18,1.18,0,0,0,120.572,325.578Zm-16.788,11.754a8.78,8.78,0,1,1,8.78-8.78A8.78,8.78,0,0,1,103.784,337.332Z" transform="translate(357.177 1829.89)" fill="#0d3efb" fill-rule="evenodd"/>
  </g>
</svg>
