<svg xmlns="http://www.w3.org/2000/svg" width="79.074" height="110" viewBox="0 0 79.074 110">
  <g id="Group_16318" data-name="Group 16318" transform="translate(-1359.402 -390)">
    <g id="Group_16314" data-name="Group 16314">
      <path id="Path_33801" data-name="Path 33801" d="M1428.219,500h-58.561a10.268,10.268,0,0,1-10.256-10.257V400.257A10.268,10.268,0,0,1,1369.658,390h58.561a10.268,10.268,0,0,1,10.257,10.257v89.486A10.268,10.268,0,0,1,1428.219,500Zm-58.561-102.939a3.2,3.2,0,0,0-3.195,3.2v89.486a3.2,3.2,0,0,0,3.195,3.2h58.561a3.2,3.2,0,0,0,3.2-3.2V400.257a3.2,3.2,0,0,0-3.2-3.2Z" fill="#031d8e"/>
    </g>
    <rect id="Rectangle_39296" data-name="Rectangle 39296" width="23.787" height="7.061" rx="3.531" transform="translate(1387.046 403.338)" fill="#031d8e"/>
    <g id="Group_16317" data-name="Group 16317">
      <g id="Group_16315" data-name="Group 16315">
        <path id="Path_33802" data-name="Path 33802" d="M1385.03,460.787l-8.124-8.224a3.107,3.107,0,0,1,.008-4.374l8.579-8.622a2.4,2.4,0,0,1,3.4-.009h0a2.4,2.4,0,0,1,.008,3.4l-7.388,7.426,6.938,7.025a2.4,2.4,0,0,1-.021,3.4h0A2.4,2.4,0,0,1,1385.03,460.787Z" fill="#031d8e"/>
      </g>
      <g id="Group_16316" data-name="Group 16316">
        <path id="Path_33803" data-name="Path 33803" d="M1412.848,460.787l8.124-8.224a3.106,3.106,0,0,0-.008-4.374l-8.578-8.622a2.4,2.4,0,0,0-3.4-.009h0a2.4,2.4,0,0,0-.009,3.4l7.389,7.426-6.938,7.025a2.4,2.4,0,0,0,.021,3.4h0A2.4,2.4,0,0,0,1412.848,460.787Z" fill="#031d8e"/>
      </g>
      <rect id="Rectangle_39297" data-name="Rectangle 39297" width="36.617" height="4.808" rx="2.404" transform="translate(1391.125 466.317) rotate(-73.024)" fill="#031d8e"/>
    </g>
  </g>
</svg>
