<svg xmlns="http://www.w3.org/2000/svg" width="141.667" height="85" viewBox="0 0 141.667 85">
  <g id="Group_17237" data-name="Group 17237" transform="translate(-152 -2104)">
    <path id="Path_37056" data-name="Path 37056" d="M308.3,21.15A21.15,21.15,0,1,1,287.15,0,21.15,21.15,0,0,1,308.3,21.15" transform="translate(-64.316 2104)" fill="#031d8e"/>
    <path id="Path_37057" data-name="Path 37057" d="M210,231.25a35.25,35.25,0,0,1,70.5,0Z" transform="translate(-22.416 1957.75)" fill="#031d8e"/>
    <path id="Path_37058" data-name="Path 37058" d="M490.2,98.1A14.1,14.1,0,1,1,476.1,84a14.1,14.1,0,0,1,14.1,14.1" transform="translate(-210.633 2041.3)" fill="#0d3efb"/>
    <path id="Path_37059" data-name="Path 37059" d="M542.008,251.865h-21.15a53.162,53.162,0,0,0-8.46-28.2c13.4-1.41,29.61,10.575,29.61,28.2Z" transform="translate(-248.341 1937.135)" fill="#0d3efb"/>
    <path id="Path_37060" data-name="Path 37060" d="M154.2,98.1A14.1,14.1,0,1,1,140.1,84a14.1,14.1,0,0,1,14.1,14.1" transform="translate(40.1 2041.3)" fill="#0d3efb"/>
    <path id="Path_37061" data-name="Path 37061" d="M70,251.865h21.15a48.15,48.15,0,0,1,9.164-28.2C86.213,222.255,70,234.241,70,251.865Z" transform="translate(82.002 1937.135)" fill="#0d3efb"/>
  </g>
</svg>
