<svg xmlns="http://www.w3.org/2000/svg" width="95.27" height="111" viewBox="0 0 95.27 111">
  <path id="noun-platform-3266231" d="M158.138.008a3.459,3.459,0,0,0-1.679.531L112.818,27.717a3.429,3.429,0,0,0,0,5.841l43.641,27.171h0a3.464,3.464,0,0,0,3.669,0l43.633-27.171h0a3.429,3.429,0,0,0,0-5.841L160.128.539a3.469,3.469,0,0,0-1.99-.531Zm.156,7.487,37.112,23.144L158.294,53.782,121.181,30.638ZM114.524,54.137a3.435,3.435,0,0,0-1.706,6.365l43.641,27.206a3.468,3.468,0,0,0,3.669,0L203.761,60.5a3.447,3.447,0,0,0-3.669-5.835l-41.8,26.065L116.488,54.668a3.459,3.459,0,0,0-1.962-.53Zm0,21.773a3.435,3.435,0,0,0-1.707,6.392l43.641,27.178a3.468,3.468,0,0,0,3.669,0L203.761,82.3a3.447,3.447,0,0,0-3.669-5.835l-41.8,26.057L116.488,76.467a3.463,3.463,0,0,0-1.962-.557Z" transform="translate(-110.623 0.495)" fill="#FFFFFF" stroke="#FFFFFF" stroke-width="1" />
</svg>