<svg xmlns="http://www.w3.org/2000/svg" xmlns:xlink="http://www.w3.org/1999/xlink" width="150" height="150" viewBox="0 0 150 150">
  <defs>
    <filter id="Path_37041" x="54.779" y="79.388" width="40.443" height="47.612" filterUnits="userSpaceOnUse">
      <feOffset dy="3" input="SourceAlpha"/>
      <feGaussianBlur stdDeviation="3" result="blur"/>
      <feFlood flood-opacity="0.161"/>
      <feComposite operator="in" in2="blur"/>
      <feComposite in="SourceGraphic"/>
    </filter>
    <filter id="Path_37042" x="83.558" y="79.387" width="40.443" height="47.612" filterUnits="userSpaceOnUse">
      <feOffset dy="3" input="SourceAlpha"/>
      <feGaussianBlur stdDeviation="3" result="blur-2"/>
      <feFlood flood-opacity="0.161"/>
      <feComposite operator="in" in2="blur-2"/>
      <feComposite in="SourceGraphic"/>
    </filter>
    <filter id="Path_37043" x="34.417" y="62.145" width="81.168" height="33.273" filterUnits="userSpaceOnUse">
      <feOffset dy="3" input="SourceAlpha"/>
      <feGaussianBlur stdDeviation="3" result="blur-3"/>
      <feFlood flood-opacity="0.161"/>
      <feComposite operator="in" in2="blur-3"/>
      <feComposite in="SourceGraphic"/>
    </filter>
    <filter id="Path_37044" x="40.339" y="29" width="69.323" height="49.17" filterUnits="userSpaceOnUse">
      <feOffset dy="3" input="SourceAlpha"/>
      <feGaussianBlur stdDeviation="3" result="blur-4"/>
      <feFlood flood-opacity="0.161"/>
      <feComposite operator="in" in2="blur-4"/>
      <feComposite in="SourceGraphic"/>
    </filter>
    <filter id="Path_37045" x="26" y="79.388" width="40.443" height="47.612" filterUnits="userSpaceOnUse">
      <feOffset dy="3" input="SourceAlpha"/>
      <feGaussianBlur stdDeviation="3" result="blur-5"/>
      <feFlood flood-opacity="0.161"/>
      <feComposite operator="in" in2="blur-5"/>
      <feComposite in="SourceGraphic"/>
    </filter>
  </defs>
  <g id="Group_17227" data-name="Group 17227" transform="translate(-852 -1251)">
    <circle id="Ellipse_216" data-name="Ellipse 216" cx="75" cy="75" r="75" transform="translate(852 1251)" fill="#031d8e"/>
    <g id="Group_17226" data-name="Group 17226" transform="translate(-1420 -3542.894)">
      <g transform="matrix(1, 0, 0, 1, 2272, 4793.89)" filter="url(#Path_37041)">
        <path id="Path_37041-2" data-name="Path 37041" d="M279.664,352.19v.012h-3.74a4.676,4.676,0,0,0-4.676,4.676v20.249a4.675,4.675,0,0,0,4.676,4.676h13.092a4.675,4.675,0,0,0,4.676-4.676V356.878a4.676,4.676,0,0,0-4.676-4.676h-3.74v-.012Z" transform="translate(-207.47 -266.8)" fill="#fff"/>
      </g>
      <g transform="matrix(1, 0, 0, 1, 2272, 4793.89)" filter="url(#Path_37042)">
        <path id="Path_37042-2" data-name="Path 37042" d="M490.27,352.2h-3.741v-.012h-5.611v.012h-3.74a4.676,4.676,0,0,0-4.676,4.676V377.12a4.675,4.675,0,0,0,4.676,4.676H490.27a4.675,4.675,0,0,0,4.676-4.676V356.872a4.676,4.676,0,0,0-4.676-4.676Z" transform="translate(-379.94 -266.8)" fill="#fff"/>
      </g>
      <g transform="matrix(1, 0, 0, 1, 2272, 4793.89)" filter="url(#Path_37043)">
        <path id="Path_37043-2" data-name="Path 37043" d="M187.541,247.147h3.753a.937.937,0,0,0,.938-.935v-4.676a6.556,6.556,0,0,0-6.567-6.546h-22.2v-2.182a.937.937,0,0,0-.938-.935h-3.753a.937.937,0,0,0-.938.935v2.182h-22.2a6.556,6.556,0,0,0-6.567,6.546v4.676a.937.937,0,0,0,.938.935h3.753a.937.937,0,0,0,.938-.935v-4.676a.937.937,0,0,1,.938-.935h22.2v5.611a.937.937,0,0,0,.938.935h3.753a.937.937,0,0,0,.938-.935V240.6h22.2a.937.937,0,0,1,.938.935v4.676a.937.937,0,0,0,.938.935Z" transform="translate(-85.65 -163.73)" fill="#fff"/>
      </g>
      <g transform="matrix(1, 0, 0, 1, 2272, 4793.89)" filter="url(#Path_37044)">
        <path id="Path_37044-2" data-name="Path 37044" d="M175.322,31.175h41.935a4.684,4.684,0,0,0,4.694-4.676V4.681A4.684,4.684,0,0,0,217.256.005H175.322a4.684,4.684,0,0,0-4.694,4.676V26.5a4.684,4.684,0,0,0,4.694,4.676Zm28.415-19.918a1.944,1.944,0,0,1,3.041-2.422l4.451,5.542h0a1.923,1.923,0,0,1,0,2.423l-4.452,5.542h0a1.944,1.944,0,0,1-3.04-2.423l3.48-4.328ZM193.122,20.7l2.55-11.082a1.947,1.947,0,0,1,3.8.864l-2.551,11.085a1.936,1.936,0,0,1-1.9,1.508,1.955,1.955,0,0,1-1.9-2.375Zm-11.779-6.317,4.439-5.542a1.944,1.944,0,1,1,3.044,2.419l-3.469,4.334,3.469,4.332a1.944,1.944,0,0,1-3.044,2.42L181.344,16.8a1.926,1.926,0,0,1,0-2.421Z" transform="translate(-121.29 34.99)" fill="#fff"/>
      </g>
      <g transform="matrix(1, 0, 0, 1, 2272, 4793.89)" filter="url(#Path_37045)">
        <path id="Path_37045-2" data-name="Path 37045" d="M74.673,381.8H87.765a4.675,4.675,0,0,0,4.676-4.676V356.877a4.676,4.676,0,0,0-4.676-4.676h-3.74v-.012H78.414v.012h-3.74A4.676,4.676,0,0,0,70,356.877v20.249a4.675,4.675,0,0,0,4.676,4.676Z" transform="translate(-35 -266.8)" fill="#fff"/>
      </g>
    </g>
  </g>
</svg>
