<svg xmlns="http://www.w3.org/2000/svg" width="136.715" height="110" viewBox="0 0 136.715 110">
  <g id="Group_17001" data-name="Group 17001" transform="translate(-106.101 -110)">
    <g id="Group_16300" data-name="Group 16300">
      <path id="Path_33784" data-name="Path 33784" d="M163.306,148.588a19.444,19.444,0,0,0-15.715-7.821h-.072a19.882,19.882,0,0,0-19.257,15.049c-2.208,8.822,2.026,19.393,9.855,24.594a16.847,16.847,0,0,0,9.364,3.039,16.656,16.656,0,0,0,8.887-2.73,23.674,23.674,0,0,0,10.1-13.933A20.416,20.416,0,0,0,163.306,148.588Zm-3.022,16.374h0c-1.387,4.7-3.787,8.06-7.344,10.286-3.821,2.4-7.4,2.35-11.255-.219-5.48-3.627-8.692-11.546-7.157-17.644a13.271,13.271,0,0,1,13.023-10.158h.045a13.08,13.08,0,0,1,10.557,5.24A14.032,14.032,0,0,1,160.284,164.962Z" fill="#6653e8"/>
      <g id="Group_16299" data-name="Group 16299">
        <path id="Path_33785" data-name="Path 33785" d="M167.165,177.07a3.226,3.226,0,0,0-2.976,5.725,33.975,33.975,0,0,1,17.877,30.743c-1.3-.019-67.84.013-69.5-.277-.039-12.636,7.292-24.91,18.231-30.544a3.226,3.226,0,0,0-2.95-5.738,40.914,40.914,0,0,0-21.742,36.3,6.527,6.527,0,0,0,6.744,6.712c.485.006,17.437.006,34.455.006,17.147,0,34.353,0,34.847-.006a6.518,6.518,0,0,0,6.738-6.712,40.937,40.937,0,0,0-21.722-36.211Z" fill="#6653e8"/>
      </g>
    </g>
    <path id="Path_33786" data-name="Path 33786" d="M242.815,119.119A9.129,9.129,0,0,0,233.7,110H186.042a9.131,9.131,0,0,0-9.119,9.119v26.744a9.123,9.123,0,0,0,9.114,9.119h2.014v13.326a3.231,3.231,0,0,0,5.512,2.284l15.611-15.6H233.7a9.131,9.131,0,0,0,9.119-9.119Zm-6.458,26.743a2.7,2.7,0,0,1-2.665,2.665H207.833a3.251,3.251,0,0,0-2.285.942L194.5,160.511v-8.757a3.229,3.229,0,0,0-3.227-3.227h-5.24a2.641,2.641,0,0,1-2.665-2.665V119.118h.005a2.641,2.641,0,0,1,2.665-2.665H233.7a2.693,2.693,0,0,1,2.658,2.665Z" fill="#6653e8"/>
  </g>
</svg>
