<svg xmlns="http://www.w3.org/2000/svg" xmlns:xlink="http://www.w3.org/1999/xlink" width="150" height="150" viewBox="0 0 150 150">
  <defs>
    <filter id="Path_37034" x="62.743" y="29" width="66.138" height="66.146" filterUnits="userSpaceOnUse">
      <feOffset dy="3" input="SourceAlpha"/>
      <feGaussianBlur stdDeviation="3" result="blur"/>
      <feFlood flood-opacity="0.161"/>
      <feComposite operator="in" in2="blur"/>
      <feComposite in="SourceGraphic"/>
    </filter>
    <filter id="Path_37035" x="23.389" y="41.486" width="81.427" height="45.945" filterUnits="userSpaceOnUse">
      <feOffset dy="3" input="SourceAlpha"/>
      <feGaussianBlur stdDeviation="3" result="blur-2"/>
      <feFlood flood-opacity="0.161"/>
      <feComposite operator="in" in2="blur-2"/>
      <feComposite in="SourceGraphic"/>
    </filter>
    <filter id="Path_37036" x="21" y="58.288" width="49.957" height="68.711" filterUnits="userSpaceOnUse">
      <feOffset dy="3" input="SourceAlpha"/>
      <feGaussianBlur stdDeviation="3" result="blur-3"/>
      <feFlood flood-opacity="0.161"/>
      <feComposite operator="in" in2="blur-3"/>
      <feComposite in="SourceGraphic"/>
    </filter>
    <filter id="Path_37037" x="56.551" y="58.434" width="49.956" height="68.566" filterUnits="userSpaceOnUse">
      <feOffset dy="3" input="SourceAlpha"/>
      <feGaussianBlur stdDeviation="3" result="blur-4"/>
      <feFlood flood-opacity="0.161"/>
      <feComposite operator="in" in2="blur-4"/>
      <feComposite in="SourceGraphic"/>
    </filter>
  </defs>
  <g id="Group_17225" data-name="Group 17225" transform="translate(-972 -987)">
    <circle id="Ellipse_213" data-name="Ellipse 213" cx="75" cy="75" r="75" transform="translate(972 987)" fill="#031d8e"/>
    <g id="Group_17222" data-name="Group 17222" transform="translate(0.382 0.393)">
      <g transform="matrix(1, 0, 0, 1, 971.62, 986.61)" filter="url(#Path_37034)">
        <path id="Path_37034-2" data-name="Path 37034" d="M380.643,85.409a3.806,3.806,0,0,1-3.65-2.781,21.534,21.534,0,0,0-2.109-5.117,3.774,3.774,0,0,1,.62-4.559l1.82-1.83-4.042-4.032-1.83,1.819a3.773,3.773,0,0,1-4.58.6,21.882,21.882,0,0,0-5.055-2.1,3.763,3.763,0,0,1-2.771-3.65V61.206h-5.717v2.523a3.777,3.777,0,0,1-2.812,3.66,21.728,21.728,0,0,0-5.055,2.088,3.806,3.806,0,0,1-4.549-.61l-1.82-1.82L335.05,71.1l1.778,1.768a3.9,3.9,0,0,1,.91,1.478l9.532,4.187a13.162,13.162,0,1,1,17.317,19.819v9.8a19.892,19.892,0,0,0,2.347-1.189,3.676,3.676,0,0,1,1.892-.517,3.821,3.821,0,0,1,2.7,1.116l1.788,1.788,4.042-4.032-1.819-1.84a3.777,3.777,0,0,1-.63-4.539,20.736,20.736,0,0,0,2.078-5.024,3.816,3.816,0,0,1,3.66-2.792h2.543V85.408Z" transform="translate(-263.31 -26.21)" fill="#fff"/>
      </g>
      <g transform="matrix(1, 0, 0, 1, 971.62, 986.61)" filter="url(#Path_37035)">
        <path id="Path_37035-2" data-name="Path 37035" d="M148.736,129.86,117.1,143.8l31.78,14.009,31.647-13.936Z" transform="translate(-84.71 -82.37)" fill="#fff"/>
      </g>
      <g transform="matrix(1, 0, 0, 1, 971.62, 986.61)" filter="url(#Path_37036)">
        <path id="Path_37036-2" data-name="Path 37036" d="M136.117,238.192v36.63L104.16,260.75V224.111Z" transform="translate(-74.16 -159.82)" fill="#fff"/>
      </g>
      <g transform="matrix(1, 0, 0, 1, 971.62, 986.61)" filter="url(#Path_37037)">
        <path id="Path_37037-2" data-name="Path 37037" d="M299.66,238.975v36.484l31.946-14.071V244.7a2.306,2.306,0,0,1,.01-.455l-.02-19.354Z" transform="translate(-234.11 -160.46)" fill="#fff"/>
      </g>
    </g>
  </g>
</svg>
