<svg xmlns="http://www.w3.org/2000/svg" width="119.808" height="109.982" viewBox="0 0 119.808 109.982">
  <g id="Group_16308" data-name="Group 16308" transform="translate(-399.73 -390.085)">
    <path id="Path_33794" data-name="Path 33794" d="M502.447,477.984l-.545-.805h0a6.986,6.986,0,0,0-5.767-3.091H459.479a7.562,7.562,0,0,0-3.662-6.261l-8.729-5.2a10.524,10.524,0,0,0-5.377-1.532h-21.64a7.794,7.794,0,0,0-7.351-5.2h-5.2a7.793,7.793,0,0,0-7.794,7.793v28.575a7.793,7.793,0,0,0,7.794,7.793h5.2a7.791,7.791,0,0,0,7.168-4.727h0c5.2,1.091,17.483,3.637,21.068,4.417a12.773,12.773,0,0,0,2.936.312h7.793a12.6,12.6,0,0,0,3.273-.416c5.922-1.559,32-8.1,43.488-11.118h0a6.937,6.937,0,0,0,4-10.547Zm-87.131,14.288h0a2.6,2.6,0,0,1-2.6,2.6h-5.195a2.6,2.6,0,0,1-2.6-2.6V463.7a2.6,2.6,0,0,1,2.6-2.6h5.195a2.6,2.6,0,0,1,2.6,2.6Zm82.945-9.808a1.739,1.739,0,0,1-1.14,1.054h0c-11.484,3.013-37.565,9.533-43.488,11.092a7.042,7.042,0,0,1-1.948.26h-7.793a7.157,7.157,0,0,1-1.793-.182c-3.715-.832-16.523-3.482-21.588-4.52V466.3l21.305.128a5.2,5.2,0,0,1,2.6.754l8.729,5.2a2.388,2.388,0,0,1,1.142,2.026,2.31,2.31,0,0,1-2.337,2.338H436.1a2.6,2.6,0,0,0,0,5.2h15.976a7.561,7.561,0,0,0,5.2-2.208l.364-.39h38.5a1.691,1.691,0,0,1,1.429.779l.545.806A1.738,1.738,0,0,1,498.261,482.464Z" fill="#6653e8" fill-rule="evenodd"/>
    <g id="Group_16307" data-name="Group 16307">
      <path id="Path_33795" data-name="Path 33795" d="M497.574,396.8a16.7,16.7,0,0,0-13.494-6.715h-.062a17.075,17.075,0,0,0-16.536,12.922c-1.895,7.575,1.74,16.653,8.463,21.118a14.457,14.457,0,0,0,8.04,2.61,14.3,14.3,0,0,0,7.631-2.344,20.323,20.323,0,0,0,8.673-11.964A17.529,17.529,0,0,0,497.574,396.8Zm-2.6,14.06h0a14.768,14.768,0,0,1-6.306,8.833c-3.281,2.062-6.356,2.018-9.665-.188-4.7-3.115-7.464-9.914-6.145-15.151a11.4,11.4,0,0,1,11.183-8.722h.038a11.231,11.231,0,0,1,9.065,4.5A12.049,12.049,0,0,1,494.979,410.86Z" fill="#6653e8"/>
      <g id="Group_16306" data-name="Group 16306">
        <path id="Path_33796" data-name="Path 33796" d="M500.887,421.257a2.77,2.77,0,0,0-2.555,4.915,29.176,29.176,0,0,1,15.351,26.4c-1.119-.016-58.253.011-59.682-.238-.033-10.85,6.261-21.39,15.655-26.228a2.77,2.77,0,1,0-2.533-4.926,35.13,35.13,0,0,0-18.67,31.172,5.6,5.6,0,0,0,5.791,5.763c.416.006,14.973.006,29.586.006,14.724,0,29.5,0,29.922-.006a5.6,5.6,0,0,0,5.786-5.763,35.153,35.153,0,0,0-18.652-31.094Z" fill="#6653e8"/>
      </g>
    </g>
  </g>
</svg>
