<svg xmlns="http://www.w3.org/2000/svg" width="101.352" height="110" viewBox="0 0 101.352 110">
  <g id="Group_16309" data-name="Group 16309" transform="translate(-741.249 -390)">
    <path id="Path_33797" data-name="Path 33797" d="M838.943,429.823a3.658,3.658,0,0,0-3.658,3.658V453.61a1.4,1.4,0,0,1-1.4,1.4H822.952v-3.888a5.787,5.787,0,0,0-5.78-5.781H794.689v-7.648h16.484a3.749,3.749,0,0,0,3.7-3.749V414.378c0-13-10.325-23.93-23.016-24.363a23.652,23.652,0,0,0-17.053,6.357,24.578,24.578,0,0,0-7.624,18.048v19.57a3.749,3.749,0,0,0,3.75,3.7h16.44v7.648H764.891a5.787,5.787,0,0,0-5.781,5.781v3.888h-9.2a1.35,1.35,0,0,1-1.349-1.35V433.481a3.658,3.658,0,1,0-7.316,0V453.66a8.665,8.665,0,0,0,8.665,8.665h9.2v20.889a5.787,5.787,0,0,0,5.781,5.781h8.277v7.347a3.657,3.657,0,1,0,7.315,0v-7.347h23.285v7.347A3.657,3.657,0,0,0,807.425,500h0a3.657,3.657,0,0,0,3.657-3.658v-7.347h6.089a5.787,5.787,0,0,0,5.78-5.781V462.325h10.933a8.715,8.715,0,0,0,8.716-8.715V433.481A3.658,3.658,0,0,0,838.943,429.823ZM774.5,414.3a17.109,17.109,0,0,1,5.1-12.386,16.4,16.4,0,0,1,12.014-4.586c8.795.3,15.95,7.95,15.95,17.052v16H774.5Zm41.137,67.382H766.425V452.657h49.212Z" fill="#6653e8"/>
  </g>
</svg>
