<svg id="Group_17221" data-name="Group 17221" xmlns="http://www.w3.org/2000/svg" width="35" height="100" viewBox="0 0 35 100">
  <path id="Path_37028" data-name="Path 37028" d="M2067.767,3919.633v15.59l17.469,14.316,17.4-14.316v-15.59l-17.4,14.791Z" transform="translate(-2067.639 -3849.539)" fill="#031d8e"/>
  <path id="Path_37029" data-name="Path 37029" d="M2067.767,3919.633v15.59l17.469,14.316,17.4-14.316v-15.59l-17.4,14.791Z" transform="translate(-2067.767 -3867.062)" fill="#031d8e" opacity="0.8"/>
  <path id="Path_37030" data-name="Path 37030" d="M2067.767,3919.633v15.59l17.469,14.316,17.4-14.316v-15.59l-17.4,14.791Z" transform="translate(-2067.767 -3884.586)" fill="#031d8e" opacity="0.6"/>
  <path id="Path_37031" data-name="Path 37031" d="M2067.767,3919.633v15.59l17.469,14.316,17.4-14.316v-15.59l-17.4,14.791Z" transform="translate(-2067.767 -3902.109)" fill="#031d8e" opacity="0.4"/>
  <path id="Path_37032" data-name="Path 37032" d="M2067.767,3919.633v15.59l17.469,14.316,17.4-14.316v-15.59l-17.4,14.791Z" transform="translate(-2067.767 -3919.633)" fill="#031d8e" opacity="0.2"/>
</svg>
