<svg xmlns="http://www.w3.org/2000/svg" width="62.787" height="111.5" viewBox="0 0 62.787 111.5">
  <path id="Path_37094" data-name="Path 37094" d="M272.361,134.591a21.786,21.786,0,0,0-5.685,14.7v5.667a2.21,2.21,0,0,0,4.419,0v-5.667a17.378,17.378,0,0,1,4.534-11.721,21.8,21.8,0,0,0,5.684-14.7V102.577a7.952,7.952,0,0,0-7.943-7.942,7.861,7.861,0,0,0-4.123,1.188A7.948,7.948,0,0,0,261.9,90.89a7.865,7.865,0,0,0-4.124,1.188,7.95,7.95,0,0,0-7.342-4.933,7.847,7.847,0,0,0-3.522.861v-4.2a19.432,19.432,0,1,0-15.885.014V100.84a11.3,11.3,0,0,0-6.993-2.46h-2.262a2.209,2.209,0,0,0-2.21,2.21v16.165a30.775,30.775,0,0,0,16.489,27.306l.71.374,0,10.52a2.21,2.21,0,1,0,4.419,0V143.1A2.209,2.209,0,0,0,240,141.144l-1.891-1a26.369,26.369,0,0,1-14.127-23.395V102.8h.052a7,7,0,0,1,6.993,6.993v11.156a2.21,2.21,0,0,0,4.419,0V109.792c0-.018-.006-.034-.006-.052s.006-.017.006-.026l0-33.344a3.523,3.523,0,1,1,7.046,0v33.344a2.21,2.21,0,1,0,4.419,0V95.09a3.523,3.523,0,1,1,7.045,0v14.624a2.21,2.21,0,0,0,4.419,0V98.832a3.523,3.523,0,0,1,7.046,0v10.881a2.21,2.21,0,0,0,4.419,0v-7.137a3.523,3.523,0,0,1,7.045,0V122.87a17.364,17.364,0,0,1-4.53,11.722ZM223.948,66.11a15.028,15.028,0,1,1,22.971,12.713V76.368a7.916,7.916,0,0,0-.125-1.239,11.959,11.959,0,1,0-15.635,0,7.916,7.916,0,0,0-.125,1.239v2.48a14.923,14.923,0,0,1-7.086-12.738Zm15.028,2.314a7.9,7.9,0,0,0-5.779,2.529,7.461,7.461,0,0,1-1.761-4.842,7.54,7.54,0,0,1,15.08,0,7.467,7.467,0,0,1-1.762,4.841,7.9,7.9,0,0,0-5.778-2.528Z" transform="translate(-219.026 -46.164)" fill="#FFFFFF" stroke="#FFFFFF" stroke-width="1" />
</svg>