<svg xmlns="http://www.w3.org/2000/svg" width="131.697" height="110" viewBox="0 0 131.697 110">
  <g id="Group_16320" data-name="Group 16320" transform="translate(-1792.183 -390)">
    <path id="Path_33807" data-name="Path 33807" d="M1906.216,425.363a20.624,20.624,0,0,0-19.126-13.04,20.042,20.042,0,0,0-3.029.231,32.287,32.287,0,0,0-62.885,6.267c-.3-.01-.6-.016-.905-.016a28.075,28.075,0,1,0,0,56.149h1.692a3.495,3.495,0,0,0,0-6.989h-1.692a21.086,21.086,0,1,1,0-42.172c.4,0,.8.014,1.212.041.857,3.819,3.071,9.717,8.687,11.589a3.493,3.493,0,1,0,2.213-6.627c-2.623-.875-4.045-5.3-4.371-8.1a3.26,3.26,0,0,0-.033-.471,25.3,25.3,0,0,1,49.542-7.156c-2.469,1.759-5.849,5.225-5.235,10.755a3.487,3.487,0,0,0,3.468,3.11c.124,0,.248-.007.392-.02a3.5,3.5,0,0,0,3.084-3.86c-.338-3.047,3-4.76,3.574-5.03a13.5,13.5,0,0,1,17.332,9.161,3.5,3.5,0,0,0,2.564,2.454,18.409,18.409,0,0,1-4.238,36.328H1894.1a3.495,3.495,0,1,0,0,6.989h4.362a25.446,25.446,0,0,0,25.417-25.417A25.175,25.175,0,0,0,1906.216,425.363Z" fill="#031d8e"/>
    <g id="Group_16319" data-name="Group 16319">
      <path id="Path_33808" data-name="Path 33808" d="M1877.119,487.982h-38.176a8.863,8.863,0,0,1-8.853-8.852V452.473a8.863,8.863,0,0,1,8.853-8.853h38.176a8.863,8.863,0,0,1,8.853,8.853V479.13A8.863,8.863,0,0,1,1877.119,487.982Zm-38.176-37.362a1.855,1.855,0,0,0-1.853,1.853V479.13a1.855,1.855,0,0,0,1.853,1.852h38.176a1.855,1.855,0,0,0,1.853-1.852V452.473a1.855,1.855,0,0,0-1.853-1.853Z" fill="#031d8e"/>
    </g>
    <rect id="Rectangle_39298" data-name="Rectangle 39298" width="23.88" height="7" rx="3.5" transform="translate(1846.091 493)" fill="#031d8e"/>
  </g>
</svg>
