<svg xmlns="http://www.w3.org/2000/svg" width="156.33" height="109.912" viewBox="0 0 156.33 109.912">
  <g id="Group_16298" data-name="Group 16298" transform="translate(-417.93 -110)">
    <path id="Path_33783" data-name="Path 33783" d="M476.479,219.912a29.7,29.7,0,0,1-27.242-17.779,27.448,27.448,0,0,1-18.353-50.485,30.261,30.261,0,0,1,51.744-30.193,29.252,29.252,0,0,1,44.581,5.491,34.6,34.6,0,1,1,12.45,66.892,35.034,35.034,0,0,1-5.786-.482A26.365,26.365,0,0,1,502.7,204.23,29.651,29.651,0,0,1,476.479,219.912ZM454.44,192.779l2.373,5.643a21.333,21.333,0,0,0,38.646,1.47l3.187-6.2,6.521,2.471a17.939,17.939,0,0,0,21.716-7.523l2.781-4.6,5.293.959a26.506,26.506,0,0,0,4.7.42,26.175,26.175,0,1,0-9.78-50.461l-6.086,2.453-3.463-5.574a20.826,20.826,0,0,0-32.3-3.882L481.7,134.17l-5.362-7.076a21.836,21.836,0,0,0-37.5,21.737l2.686,6.277-5.865,3.5a19.022,19.022,0,0,0,9.718,35.373,19.33,19.33,0,0,0,3.018-.238Z" fill="#0d3efb" />
  </g>
</svg>