<svg xmlns="http://www.w3.org/2000/svg" width="110" height="110" viewBox="0 0 110 110">
  <path id="Path_33793" data-name="Path 33793" d="M135.442,481.426l59.587-59.587-13.273-13.272-59.587,59.587ZM155.7,469.352l-18.216,18.215-.97.64-28.946,11.578a2.894,2.894,0,0,1-3.762-3.762l11.578-28.944.641-.972,18.214-18.215L104.451,418.1a2.893,2.893,0,0,1,0-4.093l23.156-23.156a2.893,2.893,0,0,1,4.093,0l29.792,29.792,28.1-28.1a8.675,8.675,0,0,1,12.279,0l9.178,9.178a8.675,8.675,0,0,1,0,12.281l-28.1,28.1,29.792,29.792a2.893,2.893,0,0,1,0,4.093l-23.156,23.156a2.894,2.894,0,0,1-4.094,0Zm4.093-4.093L187.543,493,206.6,473.942l-7.484-7.485-3.742,3.743c-2.73,2.729-6.823-1.365-4.093-4.093l3.741-3.743-7.484-7.485-9.531,9.531c-2.729,2.729-6.823-1.363-4.094-4.093l9.531-9.531-4.59-4.59ZM138.336,443.8,157.4,424.736l-4.59-4.59-3.742,3.741c-2.729,2.73-6.823-1.363-4.093-4.093l3.742-3.742-7.485-7.484L131.7,418.1c-2.729,2.728-6.822-1.365-4.093-4.094l9.531-9.531-7.485-7.484-19.062,19.062Zm-8.045,40.665L119.132,473.3l-7.439,18.6Zm55.557-79.989,13.272,13.274,7.836-7.835a2.888,2.888,0,0,0,0-4.092l-9.185-9.184a2.888,2.888,0,0,0-4.089,0Z" transform="translate(-103.595 -390)" fill="#0d3efb" />
</svg>