<svg xmlns="http://www.w3.org/2000/svg" width="107.123" height="110" viewBox="0 0 107.123 110">
  <path id="Path_33787" data-name="Path 33787" d="M850.853,181.5a86.679,86.679,0,0,0-7.361-16.472c11.556-20.254,13.512-39.492,3.349-49.2-7.117-6.8-18.771-7.684-32.816-2.5a84.548,84.548,0,0,0-14.135,6.891,84.475,84.475,0,0,0-14.135-6.891c-14.044-5.182-25.7-4.295-32.815,2.5s-8.542,18.4-4.012,32.666A86.652,86.652,0,0,0,756.3,165a86.652,86.652,0,0,0-7.377,16.5c-4.53,14.27-3.1,25.871,4.012,32.666,4.061,3.879,9.6,5.833,16.218,5.833a48.54,48.54,0,0,0,16.6-3.331,84.476,84.476,0,0,0,14.135-6.891,84.549,84.549,0,0,0,14.135,6.891,48.555,48.555,0,0,0,16.6,3.331c6.618,0,12.157-1.954,16.218-5.833C853.958,207.372,855.383,195.771,850.853,181.5Zm-34.39-61.565a41.491,41.491,0,0,1,14.093-2.867c4.806,0,8.738,1.29,11.424,3.855,7.093,6.774,5.425,21.291-2.786,37.159a130.347,130.347,0,0,0-13.951-17.292A128.743,128.743,0,0,0,806.5,124.535,74.143,74.143,0,0,1,816.463,119.936Zm18.806,45.028a120.7,120.7,0,0,1-15.117,19.384A119.761,119.761,0,0,1,799.89,201.47a119.794,119.794,0,0,1-20.261-17.122A121.14,121.14,0,0,1,764.489,165a121.14,121.14,0,0,1,15.14-19.348A119.887,119.887,0,0,1,799.89,128.53a119.854,119.854,0,0,1,20.262,17.122A121.174,121.174,0,0,1,835.269,164.964Zm-79.632-18.6c-3.619-11.4-2.83-20.675,2.164-25.444,2.686-2.565,6.617-3.855,11.424-3.855a41.5,41.5,0,0,1,14.093,2.867,74.143,74.143,0,0,1,9.965,4.6,128.743,128.743,0,0,0-18.745,16.256,130.3,130.3,0,0,0-13.976,17.328A75.978,75.978,0,0,1,755.637,146.368Zm27.681,63.7c-11.221,4.141-20.522,3.781-25.517-.989s-5.783-14.043-2.164-25.444a75.937,75.937,0,0,1,4.925-11.751,130.376,130.376,0,0,0,13.976,17.329,128.865,128.865,0,0,0,18.745,16.256A74.268,74.268,0,0,1,783.318,210.065Zm58.662-.989c-4.994,4.769-14.3,5.129-25.517.989a74.268,74.268,0,0,1-9.965-4.6,128.865,128.865,0,0,0,18.745-16.256,130.793,130.793,0,0,0,13.98-17.319,75.9,75.9,0,0,1,4.92,11.741C847.762,195.033,846.974,204.307,841.98,209.076Z" transform="translate(-746.329 -110)" fill="#0d3efb" />
</svg>