<svg xmlns="http://www.w3.org/2000/svg" width="118.734" height="110" viewBox="0 0 118.734 110">
  <g id="Group_17003" data-name="Group 17003" transform="translate(-1033.16 -390)">
    <g id="Group_16310" data-name="Group 16310">
      <path id="Path_33798" data-name="Path 33798" d="M1071.415,474.309l-11.828-11.975a4.523,4.523,0,0,1,.012-6.368l12.49-12.554a3.5,3.5,0,0,1,4.95-.012h0a3.5,3.5,0,0,1,.012,4.95l-10.757,10.812,10.1,10.228a3.5,3.5,0,0,1-.031,4.949h0A3.5,3.5,0,0,1,1071.415,474.309Z" fill="#031d8e"/>
    </g>
    <g id="Group_16311" data-name="Group 16311">
      <path id="Path_33799" data-name="Path 33799" d="M1111.917,474.309l11.828-11.975a4.522,4.522,0,0,0-.011-6.368l-12.49-12.554a3.5,3.5,0,0,0-4.95-.012h0a3.5,3.5,0,0,0-.013,4.95l10.758,10.812-10.1,10.228a3.5,3.5,0,0,0,.03,4.949h0A3.5,3.5,0,0,0,1111.917,474.309Z" fill="#031d8e"/>
    </g>
    <g id="Group_16312" data-name="Group 16312">
      <path id="Path_33800" data-name="Path 33800" d="M1132.842,500h-80.63a19.022,19.022,0,0,1-19.052-18.99V408.99A19.021,19.021,0,0,1,1052.212,390h80.63a19.022,19.022,0,0,1,19.052,18.99v72.02A19.024,19.024,0,0,1,1132.842,500Zm-80.63-103.023a12.032,12.032,0,0,0-12.052,12.013v72.02a12.033,12.033,0,0,0,12.052,12.013h80.63a12.035,12.035,0,0,0,12.052-12.013V408.99a12.032,12.032,0,0,0-12.052-12.013Z" fill="#031d8e"/>
    </g>
    <g id="Group_16313" data-name="Group 16313">
      <rect id="Rectangle_39294" data-name="Rectangle 39294" width="112.52" height="7" transform="translate(1036.08 414.46)" fill="#031d8e"/>
    </g>
    <rect id="Rectangle_39295" data-name="Rectangle 39295" width="53.313" height="7" rx="3.5" transform="translate(1080.288 482.359) rotate(-73.024)" fill="#031d8e"/>
  </g>
</svg>
