<svg xmlns="http://www.w3.org/2000/svg" xmlns:xlink="http://www.w3.org/1999/xlink" width="150" height="150" viewBox="0 0 150 150">
  <defs>
    <filter id="Path_37046" x="35.645" y="49.965" width="78.599" height="76.961" filterUnits="userSpaceOnUse">
      <feOffset dy="3" input="SourceAlpha"/>
      <feGaussianBlur stdDeviation="3" result="blur"/>
      <feFlood flood-opacity="0.161"/>
      <feComposite operator="in" in2="blur"/>
      <feComposite in="SourceGraphic"/>
    </filter>
    <filter id="Path_37047" x="49.855" y="28.927" width="50.178" height="34.148" filterUnits="userSpaceOnUse">
      <feOffset dy="3" input="SourceAlpha"/>
      <feGaussianBlur stdDeviation="3" result="blur-2"/>
      <feFlood flood-opacity="0.161"/>
      <feComposite operator="in" in2="blur-2"/>
      <feComposite in="SourceGraphic"/>
    </filter>
  </defs>
  <g id="Group_17229" data-name="Group 17229" transform="translate(-1233 -1251)">
    <circle id="Ellipse_215" data-name="Ellipse 215" cx="75" cy="75" r="75" transform="translate(1233 1251)" fill="#0d3efb"/>
    <g id="Group_17228" data-name="Group 17228">
      <g transform="matrix(1, 0, 0, 1, 1233, 1251)" filter="url(#Path_37046)">
        <path id="Path_37046-2" data-name="Path 37046" d="M193.681,153.44a95.893,95.893,0,0,1-29.963,0c-9.174,6.308-15.318,18.168-15.318,31.878,0,20.271,13.551,27.083,30.3,27.083s30.3-6.813,30.3-27.083C209,171.608,202.854,159.748,193.681,153.44Zm-12.035,43.317v3.112a1.15,1.15,0,0,1-1.178,1.178h-3.451a1.15,1.15,0,0,1-1.178-1.178v-3.028a7.7,7.7,0,0,1-6.733-6.9,1.265,1.265,0,0,1,.336-.925,1.353,1.353,0,0,1,.926-.421H173.9a1.262,1.262,0,0,1,1.178.925,1.9,1.9,0,0,0,1.852,1.514h3.03a3.1,3.1,0,0,0,3.114-2.607,2.8,2.8,0,0,0-.757-2.271,3.057,3.057,0,0,0-2.188-.925h-2.273a9.068,9.068,0,0,1-9.174-7.906,8.8,8.8,0,0,1,7.154-9.5v-3.028a1.15,1.15,0,0,1,1.178-1.178h3.451a1.15,1.15,0,0,1,1.178,1.178v3.028a7.619,7.619,0,0,1,6.733,6.9,1.265,1.265,0,0,1-.336.925,1.353,1.353,0,0,1-.926.421h-3.535a1.187,1.187,0,0,1-1.178-.925,1.9,1.9,0,0,0-1.852-1.514h-3.03a3.1,3.1,0,0,0-3.114,2.607,2.8,2.8,0,0,0,.757,2.271,3.142,3.142,0,0,0,2.188,1.009h2.609a9.256,9.256,0,0,1,6.565,2.86,8.775,8.775,0,0,1,2.273,6.813,8.914,8.914,0,0,1-7.154,7.571Z" transform="translate(-103.75 -97.47)" fill="#fff"/>
      </g>
      <g transform="matrix(1, 0, 0, 1, 1233, 1251)" filter="url(#Path_37047)">
        <path id="Path_37047-2" data-name="Path 37047" d="M246.091,28.935a86.584,86.584,0,0,0,12.773.928,86.591,86.591,0,0,0,12.773-.928l3.193-11.3a3.085,3.085,0,0,0-3.866-3.794,40.181,40.181,0,0,1-24.2.084A3.065,3.065,0,0,0,242.9,17.72Z" transform="translate(-183.92 21.21)" fill="#fff"/>
      </g>
    </g>
  </g>
</svg>
