<svg id="Group_4862" data-name="Group 4862" xmlns="http://www.w3.org/2000/svg" width="220" height="49.96" viewBox="0 0 220 49.96">
  <g id="Group_4860" data-name="Group 4860" transform="translate(0 0)">
    <g id="Group_7" data-name="Group 7" transform="translate(0 0)">
      <g id="Group_4842" data-name="Group 4842" transform="translate(16.653 0)">
        <path id="Path_4703" data-name="Path 4703" d="M0,0H11.776V30.42a4.906,4.906,0,0,1-4.906,4.906H0Z" transform="translate(24.98 16.653) rotate(45)" fill="#fff"/>
        <path id="Path_4702" data-name="Path 4702" d="M0,0H6.869a4.906,4.906,0,0,1,4.906,4.906v30.42H0Z" transform="translate(0 8.327) rotate(-45)" fill="#fff"/>
      </g>
      <path id="Path_4704" data-name="Path 4704" d="M0,0H13.738V8.832a4.906,4.906,0,0,1-4.906,4.906H0Z" transform="translate(19.429 25.147) rotate(135)" fill="#fff"/>
    </g>
    <path id="Path_4716" data-name="Path 4716" d="M7.32-53.67V-89.233h8.839V-53.67Zm31.17-26.15a11.135,11.135,0,0,1,5.648,1.412,9.644,9.644,0,0,1,3.818,4.053,13.367,13.367,0,0,1,1.36,6.2V-53.67H40.791V-66.8a5.742,5.742,0,0,0-1.229-3.975,4.317,4.317,0,0,0-3.373-1.36,5,5,0,0,0-2.406.654,8.483,8.483,0,0,0-2.3,1.909v15.9H23.01V-79.035h8.472v1.726A10.94,10.94,0,0,1,38.49-79.819Zm37.969,8.054H67.516v18.1H59.044v-18.1H52.82v-7.27h6.224v-3.033a13.387,13.387,0,0,1,1.412-6.3A9.929,9.929,0,0,1,64.4-92.5a11.51,11.51,0,0,1,5.779-1.438A26.389,26.389,0,0,1,76.93-93l-1.151,7.06a18.222,18.222,0,0,0-3.87-.471,4.483,4.483,0,0,0-3.19,1.124,3.92,3.92,0,0,0-1.2,3.007v3.243h8.943ZM105.276-66.9a19.14,19.14,0,0,1-.157,2.876l.052.157h-18.1a5.6,5.6,0,0,0,1.961,2.955,5.9,5.9,0,0,0,3.739,1.124,5.319,5.319,0,0,0,2.3-.471,3.725,3.725,0,0,0,1.569-1.36h8.368a9.964,9.964,0,0,1-4.262,6.224,13.99,13.99,0,0,1-8.08,2.3,15.066,15.066,0,0,1-7.243-1.7,12.068,12.068,0,0,1-4.89-4.733,13.607,13.607,0,0,1-1.726-6.851A13.8,13.8,0,0,1,80.486-73.2a11.892,11.892,0,0,1,4.759-4.707,14.391,14.391,0,0,1,7.06-1.7,13.7,13.7,0,0,1,6.616,1.6,11.838,11.838,0,0,1,4.655,4.472A12.809,12.809,0,0,1,105.276-66.9Zm-12.97-6.171a5.341,5.341,0,0,0-3.478,1.124,5.492,5.492,0,0,0-1.857,3.112H97.327a5.111,5.111,0,0,0-1.674-3.138A5.026,5.026,0,0,0,92.306-73.073Zm31.066-6.537a14.582,14.582,0,0,1,7.06,1.7,12.468,12.468,0,0,1,4.916,4.733,13.192,13.192,0,0,1,1.778,6.8,13.575,13.575,0,0,1-1.778,6.9,12.728,12.728,0,0,1-4.916,4.838,14.233,14.233,0,0,1-7.06,1.752,14.233,14.233,0,0,1-7.06-1.752,12.728,12.728,0,0,1-4.916-4.838,13.575,13.575,0,0,1-1.778-6.9,13.193,13.193,0,0,1,1.778-6.8,12.468,12.468,0,0,1,4.916-4.733A14.582,14.582,0,0,1,123.372-79.61Zm.052,19.4a5.3,5.3,0,0,0,4.105-1.752,6.243,6.243,0,0,0,1.6-4.367,6.01,6.01,0,0,0-1.6-4.236,5.338,5.338,0,0,0-4.105-1.726,5.4,5.4,0,0,0-4.158,1.726,6.01,6.01,0,0,0-1.6,4.236,6.243,6.243,0,0,0,1.6,4.367A5.36,5.36,0,0,0,123.424-60.207Zm34.2-19.612a11.135,11.135,0,0,1,5.648,1.412,9.644,9.644,0,0,1,3.818,4.053,13.366,13.366,0,0,1,1.36,6.2V-53.67h-8.525V-66.8a5.742,5.742,0,0,0-1.229-3.975,4.317,4.317,0,0,0-3.373-1.36,5,5,0,0,0-2.406.654,8.483,8.483,0,0,0-2.3,1.909v15.9h-8.472V-79.035h8.472v1.726A10.94,10.94,0,0,1,157.628-79.819Z" transform="translate(51.546 98.681)" fill="#fff"/>
  </g>
</svg>
