<svg id="Infeon_logo-icon-white" xmlns="http://www.w3.org/2000/svg" width="64" height="64" viewBox="0 0 64 64">
  <g id="Group_4905" data-name="Group 4905" transform="translate(-1.605 0.393)">
    <path id="Union_36" data-name="Union 36" d="M-4728.824,11210.211l-6.23-6.23,21.357-21.356-21.357-21.357,6.23-6.229a6.291,6.291,0,0,1,8.9,0l27.587,27.587-7.7,7.7-2.98,2.98-16.909,16.908a6.265,6.265,0,0,1-4.449,1.843A6.264,6.264,0,0,1-4728.824,11210.211Zm-23.139-23.094a6.288,6.288,0,0,1,0-8.9l8.008-8.011,12.46,12.46-12.46,12.457Z" transform="translate(4756.413 -11150.587)" fill="#fff"/>
  </g>
  <rect id="Rectangle_2615" data-name="Rectangle 2615" width="64" height="64" fill="none"/>
</svg>
