<svg xmlns="http://www.w3.org/2000/svg" width="156.319" height="35.035" viewBox="0 0 156.319 35.035"><defs><style>.a{fill:#031d8e;}.b{fill:#0d3efb;}.c{fill:#202836;}</style></defs><g transform="translate(0 0)"><g transform="translate(11.679 0)"><path class="a" d="M0,0H8.258V21.332a3.441,3.441,0,0,1-3.441,3.441H0Z" transform="translate(17.517 11.678) rotate(45)"/><path class="b" d="M0,0H4.817A3.441,3.441,0,0,1,8.258,3.441V24.773H0Z" transform="translate(0 5.839) rotate(-45)"/></g><path class="b" d="M0,0H9.634V6.193A3.441,3.441,0,0,1,6.193,9.634H0Z" transform="translate(13.625 17.635) rotate(135)"/></g><path class="c" d="M7.32-65.7V-90.641h6.2V-65.7ZM29.178-84.04a7.809,7.809,0,0,1,3.961.992,6.764,6.764,0,0,1,2.677,2.842,9.374,9.374,0,0,1,.954,4.346V-65.7H30.791v-9.2a4.027,4.027,0,0,0-.862-2.787,3.028,3.028,0,0,0-2.365-.954,3.506,3.506,0,0,0-1.687.458,5.949,5.949,0,0,0-1.614,1.339V-65.7H18.323V-83.489h5.942v1.21a7.672,7.672,0,0,1,4.914-1.761ZM55.8-78.391H49.533V-65.7H43.592V-78.391H39.227v-5.1h4.364v-2.127a9.388,9.388,0,0,1,.99-4.419,6.963,6.963,0,0,1,2.769-2.9A8.071,8.071,0,0,1,51.4-93.941a18.506,18.506,0,0,1,4.731.661l-.807,4.951a12.778,12.778,0,0,0-2.714-.331,3.144,3.144,0,0,0-2.237.789,2.749,2.749,0,0,0-.844,2.109v2.274H55.8ZM76.013-74.98a13.423,13.423,0,0,1-.11,2.017l.037.11H63.25a3.926,3.926,0,0,0,1.375,2.072,4.134,4.134,0,0,0,2.622.788,3.73,3.73,0,0,0,1.614-.331,2.613,2.613,0,0,0,1.1-.954h5.868a6.987,6.987,0,0,1-2.989,4.365A9.811,9.811,0,0,1,67.174-65.3a10.566,10.566,0,0,1-5.08-1.192,8.463,8.463,0,0,1-3.429-3.319,9.542,9.542,0,0,1-1.209-4.8A9.674,9.674,0,0,1,58.628-79.4a8.339,8.339,0,0,1,3.337-3.3,10.092,10.092,0,0,1,4.951-1.192,9.608,9.608,0,0,1,4.641,1.119,8.3,8.3,0,0,1,3.264,3.136A8.982,8.982,0,0,1,76.013-74.98Zm-9.1-4.329a3.746,3.746,0,0,0-2.439.788,3.851,3.851,0,0,0-1.3,2.182h7.262a3.584,3.584,0,0,0-1.172-2.2,3.525,3.525,0,0,0-2.349-.769ZM88.7-83.893A10.226,10.226,0,0,1,93.654-82.7,8.743,8.743,0,0,1,97.1-79.38a9.251,9.251,0,0,1,1.247,4.768,9.52,9.52,0,0,1-1.247,4.84,8.926,8.926,0,0,1-3.447,3.393A9.98,9.98,0,0,1,88.7-65.151a9.98,9.98,0,0,1-4.951-1.229A8.926,8.926,0,0,1,80.3-69.773a9.52,9.52,0,0,1-1.247-4.84A9.252,9.252,0,0,1,80.3-79.38,8.744,8.744,0,0,1,83.751-82.7,10.226,10.226,0,0,1,88.7-83.893Zm.037,13.606a3.717,3.717,0,0,0,2.879-1.229,4.378,4.378,0,0,0,1.119-3.062,4.215,4.215,0,0,0-1.119-2.971,3.744,3.744,0,0,0-2.879-1.21,3.788,3.788,0,0,0-2.916,1.21A4.215,4.215,0,0,0,84.7-74.578a4.378,4.378,0,0,0,1.119,3.062,3.758,3.758,0,0,0,2.916,1.229ZM112.725-84.04a7.809,7.809,0,0,1,3.961.992,6.764,6.764,0,0,1,2.677,2.842,9.373,9.373,0,0,1,.954,4.346V-65.7h-5.978v-9.2a4.027,4.027,0,0,0-.862-2.787,3.028,3.028,0,0,0-2.366-.954,3.506,3.506,0,0,0-1.687.458,5.949,5.949,0,0,0-1.614,1.339V-65.7h-5.942V-83.489h5.941v1.21a7.672,7.672,0,0,1,4.915-1.761Z" transform="translate(36 97.266)"/></svg>