<svg id="Group_17261" data-name="Group 17261" xmlns="http://www.w3.org/2000/svg" width="380" height="320" viewBox="0 0 380 320">
  <rect id="Rectangle_39653" data-name="Rectangle 39653" width="380" height="320" fill="#f8f9fa"/>
  <g id="Group_17242" data-name="Group 17242" transform="translate(56.46 25.565)">
    <path id="Path_36997" data-name="Path 36997" d="M82.911,93.691a18.156,18.156,0,0,1,24.952-16.684A21.944,21.944,0,0,1,149,81.861a18.884,18.884,0,0,1-1.229,37.729h-60.1a13.388,13.388,0,0,1-4.767-25.9Z" transform="translate(-74.29 -64.686)" fill="#e0e0e0"/>
    <path id="Path_36998" data-name="Path 36998" d="M364.407,292.111a11.2,11.2,0,0,1,15.4-10.295,13.54,13.54,0,0,1,25.385,3,11.652,11.652,0,0,1-.758,23.28H367.349a8.261,8.261,0,0,1-2.942-15.98Z" transform="translate(-142.641 -114.973)" fill="#e0e0e0"/>
    <g id="Group_17240" data-name="Group 17240" transform="translate(12.137 113.645)">
      <path id="Path_36999" data-name="Path 36999" d="M99.3,244.624a19.032,19.032,0,0,1,26.156-17.489,23,23,0,0,1,43.127,5.089,19.8,19.8,0,0,1-1.289,39.55h-63a14.035,14.035,0,0,1-5-27.149Z" transform="translate(-90.26 -214.219)" fill="#f0f0f0"/>
      <path id="Path_37000" data-name="Path 37000" d="M117.579,277.087a2.873,2.873,0,1,1-2.873-2.873A2.872,2.872,0,0,1,117.579,277.087Z" transform="translate(-95.438 -228.618)" fill="#e6e6e6"/>
      <path id="Path_37001" data-name="Path 37001" d="M131.829,277.087a2.873,2.873,0,1,1-2.873-2.873A2.872,2.872,0,0,1,131.829,277.087Z" transform="translate(-98.858 -228.618)" fill="#fff"/>
    </g>
    <g id="Group_17241" data-name="Group 17241" transform="translate(211.414 31.06)">
      <path id="Path_37002" data-name="Path 37002" d="M358.725,126.612A13.182,13.182,0,0,1,376.84,114.5a15.932,15.932,0,0,1,29.87,3.525,13.71,13.71,0,0,1-.893,27.391H362.186a9.72,9.72,0,0,1-3.461-18.8Z" transform="translate(-352.466 -105.554)" fill="#f5f5f5"/>
      <path id="Path_37003" data-name="Path 37003" d="M411.907,148.436a1.859,1.859,0,1,1-1.858-1.858A1.858,1.858,0,0,1,411.907,148.436Z" transform="translate(-365.84 -115.4)" fill="#fff"/>
      <path id="Path_37004" data-name="Path 37004" d="M421.126,148.436a1.859,1.859,0,1,1-1.859-1.858A1.858,1.858,0,0,1,421.126,148.436Z" transform="translate(-368.052 -115.4)" fill="#fff"/>
      <path id="Path_37005" data-name="Path 37005" d="M402.688,148.436a1.859,1.859,0,1,1-1.858-1.858A1.858,1.858,0,0,1,402.688,148.436Z" transform="translate(-363.627 -115.4)" fill="#e6e6e6"/>
    </g>
  </g>
  <g id="Shadow" transform="translate(39.073 287.394)">
    <ellipse id="_Path_" data-name="&lt;Path&gt;" cx="150.927" cy="8.814" rx="150.927" ry="8.814" fill="#f5f5f5"/>
  </g>
  <g id="Group_17244" data-name="Group 17244" transform="translate(44.998 47.464)">
    <path id="Path_37006" data-name="Path 37006" d="M170.927,97.429H156.614a45.842,45.842,0,0,0-42.235,28.023H102.989a39.267,39.267,0,1,0,0,78.534h67.939Z" transform="translate(-63.722 -96.851)" fill="#407bff"/>
    <path id="Path_37007" data-name="Path 37007" d="M157.9,99.467l-.318-.711a48.7,48.7,0,0,1,5.509-2.069l.229.744A47.716,47.716,0,0,0,157.9,99.467Z" transform="translate(-84.52 -96.687)" fill="#407bff"/>
    <path id="Path_37008" data-name="Path 37008" d="M135,114.553l-.607-.487a48.309,48.309,0,0,1,12.828-11.219l.4.667A47.558,47.558,0,0,0,135,114.553Z" transform="translate(-79.381 -98.052)" fill="#407bff"/>
    <path id="Path_37009" data-name="Path 37009" d="M170.927,97.429H156.614a45.842,45.842,0,0,0-42.235,28.023H102.989a39.267,39.267,0,1,0,0,78.534h67.939Z" transform="translate(-63.722 -96.851)" fill="#3622bb"/>
    <g id="Group_17243" data-name="Group 17243" transform="translate(0.917 3.723)">
      <path id="Path_37010" data-name="Path 37010" d="M132.29,122.66h20.535L168,109.17H144.355A46.01,46.01,0,0,0,132.29,122.66Z" transform="translate(-79.832 -103.176)" fill="#6450e8"/>
      <path id="Path_37011" data-name="Path 37011" d="M70.691,155.67A38.9,38.9,0,0,0,64.9,169.16H88.33V155.67Z" transform="translate(-64.9 -113.48)" fill="#6450e8"/>
      <path id="Path_37012" data-name="Path 37012" d="M185.925,101.47H159.272a45.364,45.364,0,0,0-8.142,4.172h19.616Z" transform="translate(-84.007 -101.47)" fill="#6450e8"/>
    </g>
  </g>
  <path id="Path_37013" data-name="Path 37013" d="M253.165,155.656a39.277,39.277,0,0,0-35.886-30.13,45.849,45.849,0,0,0-85.121,1.437,39.266,39.266,0,1,0-10.78,77.023h125.06a24.633,24.633,0,0,0,6.727-48.33Z" transform="translate(-22.799 -49.388)" fill="#6450e8"/>
  <g id="Group_17245" data-name="Group 17245" transform="translate(62.425 51.157)">
    <path id="Path_37014" data-name="Path 37014" d="M278.293,159.541l-1.767-.5-.42-1.783a36.339,36.339,0,0,0-33.036-27.744l-1.938-.109-.747-1.79a42.652,42.652,0,0,0-39.411-26.187c-.553,0-1.1.009-1.642.031a42.648,42.648,0,0,1,37.746,26.156l.747,1.79,1.938.109A36.339,36.339,0,0,1,272.8,157.261l.42,1.783,1.767.5a21.521,21.521,0,0,1-5.877,42.222h3.308a21.521,21.521,0,0,0,5.877-42.222Z" transform="translate(-111.197 -101.432)" opacity="0.2"/>
    <path id="Path_37015" data-name="Path 37015" d="M249.9,159.55l-1.767-.5-.42-1.783a36.339,36.339,0,0,0-33.036-27.744l-1.938-.109-.747-1.79a42.648,42.648,0,0,0-37.746-26.156h-.055a42.994,42.994,0,0,0-38.236,27.495l-1.012,2.669-2.748-.785c-.078-.024-.163-.047-.241-.062a36.179,36.179,0,0,0-9.684-1.324c-.568,0-1.129.016-1.7.039a36.154,36.154,0,0,0,1.7,72.269H244.02A21.521,21.521,0,0,0,249.9,159.55Z" transform="translate(-86.11 -101.441)" fill="#fff"/>
    <path id="Path_37016" data-name="Path 37016" d="M178.558,162.588v30.9H209.7v-30.9h9.838l-25.407-28.556L168.72,162.588Z" transform="translate(-104.415 -108.656)" fill="#6450e8"/>
  </g>
  <g id="Group_17247" data-name="Group 17247" transform="translate(121.932 154.598)">
    <path id="Rectangle_39642" data-name="Rectangle 39642" d="M0,0H9.687a0,0,0,0,1,0,0V15.206a4.844,4.844,0,0,1-4.844,4.844h0A4.844,4.844,0,0,1,0,15.206V0A0,0,0,0,1,0,0Z" transform="translate(4.325 21.031)" fill="#407bff"/>
    <path id="Rectangle_39643" data-name="Rectangle 39643" d="M0,0H9.687a0,0,0,0,1,0,0V15.206a4.844,4.844,0,0,1-4.844,4.844h0A4.844,4.844,0,0,1,0,15.206V0A0,0,0,0,1,0,0Z" transform="translate(4.325 21.031)" fill="#6450e8"/>
    <path id="Rectangle_39644" data-name="Rectangle 39644" d="M0,0H18.336a0,0,0,0,1,0,0V16.844a9.168,9.168,0,0,1-9.168,9.168h0A9.168,9.168,0,0,1,0,16.844V0A0,0,0,0,1,0,0Z" fill="#6450e8"/>
    <path id="Path_37017" data-name="Path 37017" d="M180.892,238.914l-18.336,2.768v-7.364h18.336Z" transform="translate(-162.556 -234.318)" opacity="0.2"/>
    <circle id="Ellipse_17" data-name="Ellipse 17" cx="2.433" cy="2.433" r="2.433" transform="translate(12.055 11.396)" fill="#fff"/>
    <circle id="Ellipse_18" data-name="Ellipse 18" cx="2.433" cy="2.433" r="2.433" transform="translate(5.568 11.396)" fill="#fff" opacity="0.5"/>
    <path id="Path_37018" data-name="Path 37018" d="M234.842,314.006H194.018a22.211,22.211,0,0,1-22.185-22.185v-4.729h3.892v4.729a18.314,18.314,0,0,0,18.293,18.293h40.824Z" transform="translate(-164.611 -246.012)" fill="#6450e8"/>
  </g>
  <g id="Server" transform="translate(192.162 125.03)">
    <g id="Group_17258" data-name="Group 17258">
      <g id="Group_17248" data-name="Group 17248" transform="translate(18.235)">
        <rect id="Rectangle_39645" data-name="Rectangle 39645" width="87.204" height="171.178" rx="13.041" fill="#fed42d"/>
        <rect id="Rectangle_39646" data-name="Rectangle 39646" width="87.204" height="171.178" rx="13.041" fill="#fed42d"/>
      </g>
      <rect id="Rectangle_39647" data-name="Rectangle 39647" width="87.204" height="171.178" rx="13.041" fill="#fed42d"/>
      <rect id="Rectangle_39648" data-name="Rectangle 39648" width="164.41" height="80.436" rx="8.694" transform="translate(83.82 3.384) rotate(90)" opacity="0.2"/>
      <rect id="Rectangle_39649" data-name="Rectangle 39649" width="164.41" height="77.287" rx="8.694" transform="translate(83.82 3.384) rotate(90)" fill="#fff"/>
      <g id="Group_17249" data-name="Group 17249" transform="translate(11.796 12.649)">
        <path id="Path_37019" data-name="Path 37019" d="M329.428,223.11H273.2a5.279,5.279,0,0,1-5.264-5.264h0a5.279,5.279,0,0,1,5.264-5.264h56.232a5.279,5.279,0,0,1,5.264,5.264h0A5.279,5.279,0,0,1,329.428,223.11Z" transform="translate(-267.932 -212.583)" fill="#407bff" opacity="0.3"/>
        <path id="Path_37020" data-name="Path 37020" d="M311.817,220.169H273.279a1.155,1.155,0,0,1-1.151-1.151h0a1.155,1.155,0,0,1,1.151-1.151h38.538a1.155,1.155,0,0,1,1.151,1.151h0A1.154,1.154,0,0,1,311.817,220.169Z" transform="translate(-268.862 -213.754)" fill="#fff"/>
        <circle id="Ellipse_19" data-name="Ellipse 19" cx="1.151" cy="1.151" r="1.151" transform="translate(55.715 4.112)" fill="#407bff"/>
        <circle id="Ellipse_20" data-name="Ellipse 20" cx="1.151" cy="1.151" r="1.151" transform="translate(60.791 4.112)" fill="#407bff"/>
        <circle id="Ellipse_21" data-name="Ellipse 21" cx="1.151" cy="1.151" r="1.151" transform="translate(50.64 4.112)" fill="#407bff"/>
      </g>
      <g id="Group_17250" data-name="Group 17250" transform="translate(11.796 29.568)">
        <path id="Path_37021" data-name="Path 37021" d="M329.428,244.845H273.2a5.279,5.279,0,0,1-5.264-5.264h0a5.279,5.279,0,0,1,5.264-5.264h56.232a5.279,5.279,0,0,1,5.264,5.264h0A5.279,5.279,0,0,1,329.428,244.845Z" transform="translate(-267.932 -234.318)" fill="#407bff" opacity="0.3"/>
        <path id="Path_37022" data-name="Path 37022" d="M311.817,241.9H273.279a1.155,1.155,0,0,1-1.151-1.151h0a1.155,1.155,0,0,1,1.151-1.151h38.538a1.155,1.155,0,0,1,1.151,1.151h0A1.154,1.154,0,0,1,311.817,241.9Z" transform="translate(-268.862 -235.489)" fill="#fff"/>
        <circle id="Ellipse_22" data-name="Ellipse 22" cx="1.151" cy="1.151" r="1.151" transform="translate(55.715 4.112)" fill="#407bff"/>
        <circle id="Ellipse_23" data-name="Ellipse 23" cx="1.151" cy="1.151" r="1.151" transform="translate(60.791 4.112)" fill="#407bff"/>
        <circle id="Ellipse_24" data-name="Ellipse 24" cx="1.151" cy="1.151" r="1.151" transform="translate(50.64 4.112)" fill="#407bff" opacity="0.3"/>
      </g>
      <g id="Group_17251" data-name="Group 17251" transform="translate(11.796 46.487)">
        <path id="Path_37023" data-name="Path 37023" d="M329.428,266.58H273.2a5.279,5.279,0,0,1-5.264-5.264h0a5.279,5.279,0,0,1,5.264-5.264h56.232a5.279,5.279,0,0,1,5.264,5.264h0A5.279,5.279,0,0,1,329.428,266.58Z" transform="translate(-267.932 -256.053)" fill="#407bff" opacity="0.3"/>
        <path id="Path_37024" data-name="Path 37024" d="M311.817,263.639H273.279a1.155,1.155,0,0,1-1.151-1.152h0a1.155,1.155,0,0,1,1.151-1.151h38.538a1.155,1.155,0,0,1,1.151,1.151h0A1.155,1.155,0,0,1,311.817,263.639Z" transform="translate(-268.862 -257.224)" fill="#fff"/>
        <circle id="Ellipse_25" data-name="Ellipse 25" cx="1.151" cy="1.151" r="1.151" transform="translate(55.715 4.113)" fill="#407bff"/>
        <circle id="Ellipse_26" data-name="Ellipse 26" cx="1.151" cy="1.151" r="1.151" transform="translate(60.791 4.113)" fill="#407bff"/>
        <circle id="Ellipse_27" data-name="Ellipse 27" cx="1.151" cy="1.151" r="1.151" transform="translate(50.64 4.113)" fill="#407bff" opacity="0.6"/>
      </g>
      <g id="Group_17252" data-name="Group 17252" transform="translate(11.796 63.406)">
        <rect id="Rectangle_39650" data-name="Rectangle 39650" width="66.76" height="10.527" rx="5.264" fill="#407bff" opacity="0.3"/>
        <path id="Path_37025" data-name="Path 37025" d="M311.817,285.374H273.279a1.155,1.155,0,0,1-1.151-1.151h0a1.155,1.155,0,0,1,1.151-1.152h38.538a1.155,1.155,0,0,1,1.151,1.152h0A1.155,1.155,0,0,1,311.817,285.374Z" transform="translate(-268.862 -278.959)" fill="#fff"/>
        <circle id="Ellipse_28" data-name="Ellipse 28" cx="1.151" cy="1.151" r="1.151" transform="translate(55.715 4.112)" fill="#407bff"/>
        <circle id="Ellipse_29" data-name="Ellipse 29" cx="1.151" cy="1.151" r="1.151" transform="translate(60.791 4.112)" fill="#407bff" opacity="0.3"/>
        <circle id="Ellipse_30" data-name="Ellipse 30" cx="1.151" cy="1.151" r="1.151" transform="translate(50.64 4.112)" fill="#407bff" opacity="0.6"/>
      </g>
      <g id="Group_17253" data-name="Group 17253" transform="translate(11.796 80.326)">
        <path id="Path_37026" data-name="Path 37026" d="M329.428,310.051H273.2a5.279,5.279,0,0,1-5.264-5.264h0a5.279,5.279,0,0,1,5.264-5.264h56.232a5.279,5.279,0,0,1,5.264,5.264h0A5.279,5.279,0,0,1,329.428,310.051Z" transform="translate(-267.932 -299.524)" fill="#407bff" opacity="0.3"/>
        <path id="Path_37027" data-name="Path 37027" d="M311.817,307.109H273.279a1.155,1.155,0,0,1-1.151-1.151h0a1.155,1.155,0,0,1,1.151-1.152h38.538a1.155,1.155,0,0,1,1.151,1.152h0A1.155,1.155,0,0,1,311.817,307.109Z" transform="translate(-268.862 -300.694)" fill="#fff"/>
        <circle id="Ellipse_31" data-name="Ellipse 31" cx="1.151" cy="1.151" r="1.151" transform="translate(55.715 4.112)" fill="#407bff"/>
        <circle id="Ellipse_32" data-name="Ellipse 32" cx="1.151" cy="1.151" r="1.151" transform="translate(60.791 4.112)" fill="#407bff" opacity="0.6"/>
        <circle id="Ellipse_33" data-name="Ellipse 33" cx="1.151" cy="1.151" r="1.151" transform="translate(50.64 4.112)" fill="#407bff"/>
      </g>
      <g id="Group_17254" data-name="Group 17254" transform="translate(11.796 97.244)">
        <path id="Path_37028" data-name="Path 37028" d="M329.428,331.786H273.2a5.279,5.279,0,0,1-5.264-5.264h0a5.279,5.279,0,0,1,5.264-5.264h56.232a5.279,5.279,0,0,1,5.264,5.264h0A5.279,5.279,0,0,1,329.428,331.786Z" transform="translate(-267.932 -321.259)" fill="#407bff" opacity="0.3"/>
        <path id="Path_37029" data-name="Path 37029" d="M311.817,328.845H273.279a1.155,1.155,0,0,1-1.151-1.151h0a1.155,1.155,0,0,1,1.151-1.151h38.538a1.154,1.154,0,0,1,1.151,1.151h0A1.155,1.155,0,0,1,311.817,328.845Z" transform="translate(-268.862 -322.43)" fill="#fff"/>
        <circle id="Ellipse_34" data-name="Ellipse 34" cx="1.151" cy="1.151" r="1.151" transform="translate(55.715 4.112)" fill="#407bff" opacity="0.3"/>
        <circle id="Ellipse_35" data-name="Ellipse 35" cx="1.151" cy="1.151" r="1.151" transform="translate(60.791 4.112)" fill="#407bff"/>
        <circle id="Ellipse_36" data-name="Ellipse 36" cx="1.151" cy="1.151" r="1.151" transform="translate(50.64 4.112)" fill="#407bff"/>
      </g>
      <g id="Group_17255" data-name="Group 17255" transform="translate(11.796 114.163)">
        <path id="Path_37030" data-name="Path 37030" d="M329.428,353.521H273.2a5.279,5.279,0,0,1-5.264-5.264h0a5.279,5.279,0,0,1,5.264-5.264h56.232a5.279,5.279,0,0,1,5.264,5.264h0A5.279,5.279,0,0,1,329.428,353.521Z" transform="translate(-267.932 -342.994)" fill="#407bff" opacity="0.3"/>
        <path id="Path_37031" data-name="Path 37031" d="M311.817,350.58H273.279a1.155,1.155,0,0,1-1.151-1.151h0a1.155,1.155,0,0,1,1.151-1.151h38.538a1.155,1.155,0,0,1,1.151,1.151h0A1.154,1.154,0,0,1,311.817,350.58Z" transform="translate(-268.862 -344.165)" fill="#fff"/>
        <circle id="Ellipse_37" data-name="Ellipse 37" cx="1.151" cy="1.151" r="1.151" transform="translate(55.715 4.112)" fill="#407bff" opacity="0.3"/>
        <circle id="Ellipse_38" data-name="Ellipse 38" cx="1.151" cy="1.151" r="1.151" transform="translate(60.791 4.112)" fill="#407bff"/>
        <circle id="Ellipse_39" data-name="Ellipse 39" cx="1.151" cy="1.151" r="1.151" transform="translate(50.64 4.112)" fill="#407bff" opacity="0.3"/>
      </g>
      <g id="Group_17256" data-name="Group 17256" transform="translate(11.796 131.082)">
        <rect id="Rectangle_39651" data-name="Rectangle 39651" width="66.76" height="10.527" rx="5.264" fill="#407bff" opacity="0.3"/>
        <path id="Path_37032" data-name="Path 37032" d="M311.817,372.315H273.279a1.155,1.155,0,0,1-1.151-1.151h0a1.155,1.155,0,0,1,1.151-1.151h38.538a1.155,1.155,0,0,1,1.151,1.151h0A1.154,1.154,0,0,1,311.817,372.315Z" transform="translate(-268.862 -365.9)" fill="#fff"/>
        <circle id="Ellipse_40" data-name="Ellipse 40" cx="1.151" cy="1.151" r="1.151" transform="translate(55.715 4.112)" fill="#407bff"/>
        <circle id="Ellipse_41" data-name="Ellipse 41" cx="1.151" cy="1.151" r="1.151" transform="translate(60.791 4.112)" fill="#407bff"/>
        <circle id="Ellipse_42" data-name="Ellipse 42" cx="1.151" cy="1.151" r="1.151" transform="translate(50.64 4.112)" fill="#407bff"/>
      </g>
      <g id="Group_17257" data-name="Group 17257" transform="translate(11.796 148.001)">
        <path id="Path_37033" data-name="Path 37033" d="M329.428,396.991H273.2a5.279,5.279,0,0,1-5.264-5.264h0a5.279,5.279,0,0,1,5.264-5.264h56.232a5.279,5.279,0,0,1,5.264,5.264h0A5.278,5.278,0,0,1,329.428,396.991Z" transform="translate(-267.932 -386.464)" fill="#407bff" opacity="0.3"/>
        <path id="Path_37034" data-name="Path 37034" d="M311.817,394.05H273.279a1.155,1.155,0,0,1-1.151-1.152h0a1.155,1.155,0,0,1,1.151-1.151h38.538a1.155,1.155,0,0,1,1.151,1.151h0A1.155,1.155,0,0,1,311.817,394.05Z" transform="translate(-268.862 -387.635)" fill="#fff"/>
        <circle id="Ellipse_43" data-name="Ellipse 43" cx="1.151" cy="1.151" r="1.151" transform="translate(55.715 4.113)" fill="#407bff"/>
        <circle id="Ellipse_44" data-name="Ellipse 44" cx="1.151" cy="1.151" r="1.151" transform="translate(60.791 4.113)" fill="#407bff"/>
        <circle id="Ellipse_45" data-name="Ellipse 45" cx="1.151" cy="1.151" r="1.151" transform="translate(50.64 4.113)" fill="#407bff" opacity="0.6"/>
      </g>
      <rect id="Rectangle_39652" data-name="Rectangle 39652" width="12.488" height="14.341" rx="2.966" transform="translate(90.077 35.342)" opacity="0.2"/>
    </g>
  </g>
  <g id="Folder" transform="translate(107.451 233.513)">
    <g id="Group_17260" data-name="Group 17260">
      <path id="Path_37035" data-name="Path 37035" d="M252.778,337.444v51.183a10.181,10.181,0,0,0,10.151,10.151h12.466l-4.454-56.491Z" transform="translate(-168.066 -336.083)" opacity="0.2"/>
      <g id="Group_17259" data-name="Group 17259" transform="translate(3.954)">
        <path id="Path_37036" data-name="Path 37036" d="M211.233,337.493l-4.976,6.206a4.736,4.736,0,0,1-3.654,1.8H157.679A4.778,4.778,0,0,0,153,349.813l-3.957,47.82a3.914,3.914,0,0,0,3.961,4.317h87.959a4.778,4.778,0,0,0,4.674-4.317l4.768-57.62a3.914,3.914,0,0,0-3.96-4.317H214.887A4.735,4.735,0,0,0,211.233,337.493Z" transform="translate(-149.032 -335.696)" fill="#407bff"/>
        <path id="Path_37037" data-name="Path 37037" d="M211.233,337.493l-4.976,6.206a4.736,4.736,0,0,1-3.654,1.8H157.679A4.778,4.778,0,0,0,153,349.813l-3.957,47.82a3.914,3.914,0,0,0,3.961,4.317h87.959a4.778,4.778,0,0,0,4.674-4.317l4.768-57.62a3.914,3.914,0,0,0-3.96-4.317H214.887A4.735,4.735,0,0,0,211.233,337.493Z" transform="translate(-149.032 -335.696)" fill="#14bb88"/>
      </g>
      <path id="Path_37038" data-name="Path 37038" d="M192.345,341.89l-4.033,5.878a4.056,4.056,0,0,1-3.381,1.7H147.982a3.859,3.859,0,0,0-4.019,4.09l3.3,45.3a4.6,4.6,0,0,0,4.616,4.089h87.959a3.859,3.859,0,0,0,4.019-4.089l-3.98-54.579a4.6,4.6,0,0,0-4.616-4.09H195.725A4.054,4.054,0,0,0,192.345,341.89Z" transform="translate(-143.952 -336.691)" fill="#2be4ac"/>
    </g>
  </g>
</svg>
