<svg id="Group_19206" data-name="Group 19206" xmlns="http://www.w3.org/2000/svg" width="562" height="374" viewBox="0 0 562 374">
  <rect id="Rectangle_40403" data-name="Rectangle 40403" width="562" height="374" fill="#fff"/>
  <g id="Group_17083" data-name="Group 17083" transform="translate(16.288 36.886)" opacity="0.05" style="mix-blend-mode: normal;isolation: isolate">
    <g id="Group_17082" data-name="Group 17082" transform="translate(222.391 21.506)">
      <path id="Path_36750" data-name="Path 36750" d="M959.182,599.579c.052,2.788,1.345.861.2-.033l-.2.033ZM1124.87,636.4a30.687,30.687,0,0,0-2.842,4.7c-2.055,4.509-4.492,8.029-4.821.511-.271-6.209-2.152-4.842,1.765-10.71,2.259-2.947,9.8-7.307,9.766-10.265-.024-2.177-3.633-.112-4.989.163-5.385,1.094-4.81-.632-8.286,4.871-1.967,3.206-1.813,2.7-5.595.97-2.823-1.275-5.317-.543-8.316-1.214-3.582-.8-4.519-.556-6.61,2.73-3.007,4.724-2.125,3.25-6.486,6.112-2.879,1.889-2.928,3.828-.308,6.191,2.675,2.41,8.378.249,6.352,7.589-.884,3.206-7.459,16.059-11.691,15.406-4.325-.668-3.783-.315-4.821,3.948-.323,1.329-1.027,2.784-1.458,4.19-.578,2.06,1.157,7.376-.865,8.4-2.258,1.14-4.105-7.379-6.208-8.846-2.142-1.493-10.567-1.615-8.424,2.427,1.285,2.422,2.491,3.2,2.053,6.093-.659,4.363,2.674,5.784,2.828,7.206.219,2.009-1.773,10.157-3.383,12.258a20.168,20.168,0,0,1-3.617,3.318c-2.572,1.806-5.179,2.169-8.069,4.013-3.725,2.094-2.918-1.643-6.247.364-3.97,2.389-1.849,5.719.209,8.356a10.219,10.219,0,0,1,2.431,7.84c-.854,3.894-1.9,3.237-4.27,6.242-1.866,2.369-2.365-.168-3.582-2.243-3.752-6.4-7.451-3.847-4.226,3.878.487,1.163,5.97,10.8,2.9,10.4-2.266-.3-5.428-11.664-5.7-14.156-.439-4.037-.136-5.008-1.55-9.132-2.6-5.972-5.452,4.68-5.743-2.811-.168-4.29,1.781-2.135-1.711-6.9-2.383-3.255-1.4-6.871-4.587-3.168-1.914,2.23-3.582,1.041-3.918,2.946-.241,1.362-1.357,2.1-2.363,2.937a23.976,23.976,0,0,0-4.88,4.156c-2.35,2.472-2.866.521-3.357,5.5l-.16,1.637c-.306,3.7-.642,4.723,1.356,7.871,2.106,3.318-.507,6.423-1.787,1.691-.933-3.449-.51-1.678-2.479-1.64-2.353.044-3.959-6.666-4.58-8.6-1.176-3.661-3.6-8.339-3.178-11.881.432-3.662.393-2.887-2.122-3.2-4.116-1.258-2.044-8.459-9.88-8.215-8.184.253-4.975.477-12.419-2.608-3.964-1.644-3.6-.74-7.061-4.081-4.879-4.717-3.944,2.89-.006,5.773,3.917,2.868,9.46.908,11.018,6.964,1.48,5.746-7.819,11.969-12.112,14.449-2.944,1.7-7.8,4.219-10.28.656l-.322-.713c-1.255-3.457-.548-3.772-2.8-7.651a49.2,49.2,0,0,1-3.722-7.664c-.4-.978-4.476-10.785-6.271-8.361-1.195,1.614,3.809,12.148,4.725,14.55.972,2.556,1.983,2.237,2.541,5.539.274,1.629,3.243,4.6,4.427,6.62,2.616,4.46,2.492,4.957,8.492,2.985,5.029-1.654,5.586-.851,3.788,4.186-2.234,6.254-3.749,8.314-8.779,12.433a12.432,12.432,0,0,0-4.577,6.052c-1.844,5.452-4.771,4.568-3.706,11.026.461,2.808.854,5.656,1.318,8.5.844,5.165.944,9.188-4.325,11.663-3.9,1.568-5.279,1.752-3.92,6.686,1.138,3.514,1.951,5.436-1.79,7.353-3.508,1.8.7,3.308-2.679,7.656-1.739,2.242-1.258,1.968-2.422,4.089-1.787,3.26-6.063,4.617-9.571,4.832-1.485.092-2.722.147-4.216.334-5.374.816-3.62-2-4.677-6.472-1.41-5.959-4.29-4.6-4.707-10.959-.185-7.177-.7-7.727-3.056-14.283-2.371-6.586,1.272-5.327,2.77-9.955.932-2.879-.3-5.875-1.4-8.508-2.637-5.77-7.817-9.341-5.663-16.46.638-2.107,3.587-3.376.918-5.1-3.9-2.516-5.74,2.5-8.045-1.152l-.51-.808c-1.6-2.654-2.284-2.554-5.164-1.095a23.421,23.421,0,0,1-10.567,2.857c-4.2.307-7.112-2.41-9.359-5.726-1.626-2.4-2.672-5.862-4.12-8.614-2.417-4.595-1.526-6.245-1.968-11.1-.711-6.318-.445-6.877,2.717-12.53,3.085-5.514,6.435-5.243,7.889-12,1.25-5.811,6.083-5.816,5.941-9.341-.123-3.048-5.212-2.025-5.515-8.46-.43-10.917,1.258-6.53,9.388-8.647,5.527-1.44.176-6.583-1.609-8.723,4.506-2.659,5.253-1.815,9.763-5.92,5.237-4.765,5.791-4.87,12.5-7,5.242-1.667,5.268-3.741,2.474-8.411-3.8-6.361-5.122-.287-8.458-2.418-2.379-1.52-2.226-6.94-.245-9.167,1.826-2.054,15.882-13.159,12.526-15.051-1.359-.765-1.153-1.145.483-2.107,2.066-1.213,4.161-1.812,6.374-3.183,8.33-5.156,6.977-4.817,16.671-1.336,1.888.677,21.047,7.57,9.956,9.034-1.524.2-5.6.553-6.811,1.122-.063,1.693,4.174,5.609,5.584,6.645,1.918,1,3.492-1.867,4.945-3.227,2.491-2.335,3.613-2.042,5.826-5.046,2.1-2.849,2.308.409,7.332-1.016,4.067-1.152,3.736-1.585,8.5-1.669,3.1-.056,7.164.138,9.266-2.565,1.307-1.68,2.058-1.2,4.241-.311,5.515,2.232,6.155,3.9,6.14-3.527-.008-3.134.791-9.037,5.048-8.984,3.715.045,5.791,6.763,8.865,6.163,1.426-.7,4.254-3.709,5.316-5.033,1.06-1.47,3.79-1.2,5.631-1.332,7.279-.509-.591-1.886,6.927-4.924,2.272-.918,9.636-3.581,11.558-2.151,1.027.764.6,1.243,2.627,0,3.8-2.332,6.759-6.177,10.766-2.045,1.573,1.846,2.041.41,4.6-.113a5.123,5.123,0,0,1,4.972,2.684c1.771,3.553-6.079,5.838-1.154,7.191,2.766.761,4.167-.753,8.871,1.237,5.073,2.145,2.507.909,7.348,1.527,5.728.731,8.518,4.839,13.977,4.1,5.04-.981,8.212,2.734,10.635-2.463,1.247-2.677,2.421-2.384,5.274-1.332,4.465,1.644,3.755,2.418,9.357,2.964,3.08.3,6.178.287,9.266.435,7.141.409,4.393,4.583,11.514,4.53a13.99,13.99,0,0,1,3.592.417c1.534.41,5.872,2.976,6.573.506.423-1.49-.158-2.74,2.293-3.058l1.351-.047c4.045.267,10.065,4.973,13.686,7.256,2.036,1.284,3.557,3.075,5.843,3.282,1.554.141,6.983,2.46,5.975,3.489-.163.169-2.66,1.438-3.5,2.1-3.449,2.7-3.562.2-7.15-1.556-2.473-1.207-3.047.786-5.452,1.545-3.223,1.017-3.1.462-1.448,2.973,1.7,2.585-3.28,1.725-5.568,3.11l-1.763,1.2c-.447.342-4.33,3.581-4.362,3.592-.979.317-.873-2.04-4.219-.807-1.538.568-4.4,1.14-5.209,2.339s-.605,1.713-2.291,1.778c-1.811.071.658,1.9-.055,3.193-.694,1.261,2.294,1.63-.124,3.464a6.572,6.572,0,0,0-1.777,1.807ZM951.559,777.7c-.938,3.037.411,3.145-1.665,6.355-1.667,2.579-.961,3.188.16,6.2,2.627,7.052,5.365,4.485,6.312-1.268.821-4.988.5-6.219,2.657-11.07.96-2.16,2.383-6.1.54-8.195-1.337-1.518-2.7,4.039-5.61,5.729-1.388.8-1.568.748-2.394,2.25Zm129.049-92.759c-.333-2.668-2.751-3.495-2.391-1.031.04.268.548,3.519,1.191,3.183.624-.328,1.02-1.551,1.2-2.152Zm2.286-.721c.985-.149.947-2.229,3.717-2.048,1.559.1,1.093-1.233,3.663-1.507,1.377-.146,3.627-1.477,3.831-2.895a34.665,34.665,0,0,1,.619-4.807c1.119-6.264-1.762-6.87-2.177-2.6a8.5,8.5,0,0,1-3.164,5.049c-2.758,2.108-1.5,1.931-3.074,3.559-1.771,1.827-5.688-.448-4.172,4.112.159.48.293.928.756,1.139ZM968.512,597.394c.224-.028,2.2-.169,2.418-.554.268-.477-4.059-4.245.2-9.468,3.807-4.667,9.585-2.708,15.33-8.56-.488-.359-.843-.7-1.493-.576-.8.155-2.614,1.743-4.778,2.3-5.867,1.5-5.062.4-11.083,3.415-1.214.608-4.4,1.543-3.416,3.414.9,1.714-.33.532-2.264,3.077-.925,1.218-2.507,2.617-.75,3.1,4.433,1.221,1.825,3.5,5.832,3.855Zm-29.319,62.761c1.166-1.741-4.6-2.29-3.1-.214.743,1.023,2.129.785,3.1.214ZM906.471,627.69c1.1-.293,1.012-2.67-.158-.972-.245.357-.439.86.158.972Zm26.079-5.2c2.091,2.952,3.322-1.367.608-1.912-1.5-.3-.992,1.149-.608,1.912ZM912.7,637.978c6.734-2.432,2.2-4.18,8.274-6.74,1.34-.565.848-3.5,6.472-5.841,6.011-2.5-3.245-1.854-5.171-2.316-8.485-2.034,3.97-13.03-.154-13-2.144.017-4.587,3.449-6.36,4.917-4.376,3.621-4.368,3.282-2.264,8.5,1.412,3.5-.418,2.874-1.968,6.5a14.159,14.159,0,0,1-2.126,4.019c-1.553,2.372-2.323,5.211,1.774,4.355l1.523-.4Zm53.641,38.008a24.851,24.851,0,0,0-.786-6.064c-.8-3.216,1.672-1.723,1.1-2.718-.007-.012-2.225-2.143-2.564-2.527-.48-.543-3.269-3.568-2.811-4.284.417-.653,2.391-1.87,3.543-1.369,1.475.641,2.679.839,1.448-1.411-.779-1.424-3.039-3.148-4.649-2.971-1.014.112-5.918,3.115-6.078,4.43-.244,2.012,1.442,5.323,2.538,6.987,2.174,3.3.417,3.461,1.689,7.013,1.364,3.8,6.222,4.815,6.568,2.914ZM942.468,654.7c-2.361.787-2.789,2.709-6.409,2.514-3.535-.191-3.067-3.908-7.131,3.808-2.636,5.008-1.052,7.223,4.421,5.363,5.631-1.913,6.773,1.936,11.108,1.1,3.492-.8,2.326-3.252.052-5.22-4.437-3.846-.973-4.122-.3-6.957.3-1.272-1.077-.775-1.739-.6ZM883,675.489c-7.606,5.255,4.882,1.658,6.85,1.284,2.652-.5,11.18-2.155,11.357,2.352l-.046.769c-.532,3.706,2.186,2.85,5.261,5.1,1.721,1.255,7.711,7.559,8.689,2.749.535-2.64,1.006-3.365,4.211-2.858,7.911,1.551,5.975,5.889,15.905,2.407,3.6-1.5,4.918-4.086,4.717-7.973-.208-3.991-2.67-.841-6.195-2.31-3.72-1.552-3.031,1.356-5.441.035-2.828-1.549-2.449-11.887-6.985-7.935-2.41,2.1,1.068,2.782.051,4.946l-.466.724c-2.137,2.412-4.053-2.538-4.964-4.175-1.554-3.756,2.874-2.074-4.907-7.533-1.253-.911-4.422-4.358-5.323-4.44-1.764-.162,1.407,6.015,2.535,7.1,2.907,2.8,5.4,2.211,2.73,7.385-1.1,1.926-3.02,2.276-5.062,1.6-3.813-1.256,8.091-.33.761-6.9-2.584-2.35-2.275-2.626-4.223-4.95-2.252-2.689-4.267-.3-7.568.005-3.009.279-3.849,1.13-5.855,3.431C884.135,671.921,888.785,671.246,883,675.489Z" transform="translate(-860.878 -577.227)" fill="#3827aa" fill-rule="evenodd"/>
    </g>
    <path id="Path_36751" data-name="Path 36751" d="M675.357,539.041c3.1-3.6-.088-4.842.73-7.04,1.752-2.514,4.53-.729,1.071-5.187-2.416-3.113-.063-4.172,2.709-6.407a34.083,34.083,0,0,1,6.037-3.979c4.856-2.732-4.6-2.216-6.17-1.9-14.348,3.641-4.622-.228-4.491-2.354.112-1.827-3.358-2.188-4.786-2.907a29.419,29.419,0,0,0-11.332-2.721c-4.97-.112-8.879.219-13.5,2.056-1.228.487-8.767,1.982-8.3,3.569,1.24,2.659,3.279,4.466-1.445,1.173-4.406-3.071-2.111.692-5.646.76-3.7.07-2.148-.052-5.383-1.067-3.732-.866-11.215,1.443-14.228,3.741-3.781,2.885,2.945,3.529-5.365,6.005-3.223.96-5.2,1.509-3.088,5.367,2.856,5.208,11.822-.221,17.29,4.384,1.759,1.48,5.513,5.531,5,8.061-.2.973-1.283,4.408.743,3.946,2.147-.491,5.893-.7,5.777,2.4-.286,7.682-5.634,6.8-3.315,13.253.835,2.323,3.111,4.489,3.4,5.659.587,2.408,1.967,3.251,3.38,5.434.973,1.5,6.478,5.98,7.785,3.707.966-1.678,1.4-6.517,3.059-9.681,3.331-6.35,2.033-2.592,7.687-5.6,4.089-2.177,2.953-4.148,8.689-5.273,4.164-.816,12.553-3.618,12.387-8.692C673.933,542.552,673.105,542.056,675.357,539.041Z" transform="translate(-457.862 -506.53)" fill="#3827aa" fill-rule="evenodd"/>
    <path id="Path_36752" data-name="Path 36752" d="M1408.789,1101.1c2.22,2.681,1.811,4.058,2.554,5.105,1.353,1.909,1.431.493,2.616,3.939.9,2.611,5.9,9.5,6.852,3.912.076-.45,1.76-6.2-.582-3.809-1.587,1.621-2.029-3.9-2.493-4.55-1.367-1.92-2.744-.372-5.631-5.69-1.339-2.468-3.565-4.716-6.51-5.073C1402.6,1094.573,1408.415,1100.713,1408.789,1101.1Z" transform="translate(-1016.905 -915.933)" fill="#3827aa" fill-rule="evenodd"/>
    <path id="Path_36753" data-name="Path 36753" d="M833.916,683.867c1.885,2.368,4.571,3.852,7.356,1.833,1.821-1.321,4.1-1.634,4.977-2.447,1.577-1.469-.947-3.911-2.974-3.736-1.357.116-4.527.193-5.483.914-1.765,1.331-1.132.631-2.637-.933C834.151,678.456,830.949,679.761,833.916,683.867Z" transform="translate(-618.87 -626.643)" fill="#3827aa" fill-rule="evenodd"/>
    <path id="Path_36754" data-name="Path 36754" d="M240.894,756.922c-2.087-2.893-4.733-1.7-8.213-2.042-5.885-.587-10.207-2.974-11.3-9.136-.779-5.945-.314-2.912-3.857-7.852-1.4-1.95-6.357-12.366-8.434-11.777-.265,3.28,5.828,13.31,5.008,14.9l-.485-.339-.787-.868c-1.671-2.115-1.32-3.289-2.933-5.182-1.817-2.131-2.419-4.6-3.793-7.176-1.561-2.922-1.6-5.522-4.4-7.269-4.135-2.573-5.713-7.168-7.074-11.716-1.182-3.947-.636-7.326-.54-11.383l.017-.978c.04-4.922-1.843-6.8-4.48-10.694-2.48-3.7-1.6-4.431-5.415-8.432a71.466,71.466,0,0,1-6.9-7.225c-4.482-5.626-5.119-5.627-12.021-7.493-5.1-1.378-2.431-3.665-10.627-2.4-5.125.795-4.27,4.437-6.971,7.678-3.376,4.052-14.285,10.459-6.455,3.2,6.678-6.2-.425-4.49-5.144-7.354-2.891-2.128-5.5-5.089-1.466-7.6,1.292-.715,7.98-3.276,3.728-4.062l-1.432-.165c-1.733-.127-8-.075-6.992-3.177,1.031-3.17,10.557,1.331,7.605-2.041-1.157-1.32-6.282-3.3-5.22-5.109l.472-.521.9-.479c4.156-1.771,3.2-4.3,8.76-5.771a12.668,12.668,0,0,1,5.508-.146c1.65.355,3.387.878,5.045,1.29a24.975,24.975,0,0,0,4.057.688l1.855-.013c8.332-.5,10.816,1.965,18.155,2.8,6.09.692,4.379,1.589,9.419-2.665,2.166-1.827,2.726-.365,5.328.9,3.987,1.942,4.256.02,8.69,1.871,2.147.9,5.469,2.1,7.054,3.756,2.487,2.6,5.4-1.157,7.527,1.9.91,1.307,1.812,1.931,2.061-.105.895-7.324,5.894.982,12.306-.505,2.928-.68,1.735-1.016,4.472-.056,2.616.919,3.888-.7,4.364-3.176.849-4.409-3.388-3.98-1.356-6.973,2.1-1.782,4.317,1.193,4.692,3.389.6,3.5.247,2.319,3.093,4.962,3.787,3.517,4.421,2.841,7.065-1.434,1.5-2.49,1.923-4.465,4.368-.3,4.856,8.27-4.331,6.643-5.8,7.868-.867.724-.737,1.278-2.171,2.352-2.825,2.117-2.543,1.717-4.079,4.6-.7,1.321-2.288,1.036-4.027,3.035-1.439,1.651-4.083,5.261-2.493,7.2a49.6,49.6,0,0,0,4.073,3.646c1.874,1.01,2.843.765,5.331,2.383a55.244,55.244,0,0,0,5.411,3.251c5.2,2.624,2.292,4.427,5.447,8.125,2.847,2.8,3.388-2.4,2.927-4.65-.642-3.135,1.128-2.422,2.92-5.571,2.072-4.229-.967-4.549-2.189-7.626-.649-1.638,1.424-.71,1.381-4.12l-.1-1.425c-.566-3.316.046-1.222,3.508-2.015l1.24-.353c1.584-.588.631-.875,3.052,1.088,3.961,2.6,3.48-.579,3.768,4.3a4.862,4.862,0,0,0,3.1,3.956c4.51,2.118,3.181-9.493,5.825-2,1.585,3.717,3.39,3.5,2.662,7.637-.322,1.836,1.881,1.822,3.734,3.015,3.352,2.16,1.962.922,4.461,4.226,1.6,2.109-1.722,1.895-4.005,3.986-4.831,3.883-5.883-.242-10.108,1.729-1.584.738-3.8,2.489-3.84,4.37,2.876.2,5.295-1.095,5.635,3.186-.421,4.7-3.986,5.331-7.273,8.319-2.484,2.26-9.263,7.822-10,10.823-1.054,4.308.529,5.106-3.276,9.427-4.6,5.181-4.735,5.059-2.722,11.6,1.175,3.82.1,4.465-1.766.919s-4.45-6.512-8.906-6.2c-2.739.195-1.554,1.648-6.821.94-2.742-.7-5.167.445-7.167,2.391-2.076,2.018-1.775,5.244-2.1,7.995-.473,4.024,1.547,10.838,5.779,12.323,5.456,1.28,4.624-5.13,7.766-5.647,2.579-.423,2.623,3.2,2.058,5.031-.528,1.709-2.678,6.38,1.191,5.541,2.614-.566,3.933-.927,4.623,2.518,1.051,5.246-.715,6.8,5.474,8.857l1.053.35c8.667,2.8,3.183-2.8,10.391-4.023,4.443-.328,6.135,2.815,12.941,1.77,2.657-.409,2.7.8,4.454,2.858,6.35,6.906,9.672,3.432,12.438,6.31,3.4,3.535,1.134,9.63,6.734,11.176,3.424.944,4.86.253,7.409,3.018,1.073,1.164,2.6,1.079,4.339,1.927,3.861,1.879,8.616,4.686,7.517,9.725-.665,3.05-6.719,5.46-6.9,12.135-.115,4.406,4.829,4.794-2.244,11.3-5.792,5.059-6.883,2.974-10.955,11.574-2.992,6.317-6.126,16.935-14.882,16.343.322.478,2.063,2.754,1.972,3.161-2.631,5.149-6.356,1.7-8.469,3.448-1.641,1.361.59,3.663-1.275,5.769-3.342,3.772-1.31,3.305-2.351,5.691-1.5,3.43-5.6.3-4.016,7.2,1.287,5.621-1.546,6.615-.83,10.159.613,3.034,3.916,5.163,3.849,6.406-1.291.724-4.893,1.516-6.3.9-2.769-1.223-2.525-2.875-3.5-3.449-3.6-2.125-4.639-4.809-4.719-9.107-.106-5.642,3.951-3.467,2.868-5.569-.538-1.046-3.087-.629-1.527-3.782,1.259-2.543,2.765-.575,1.679-4.615-.914-3.4.588-5.151.69-8.549.1-6.162-.2-2.381,1.844-8.045,1.606-4.446,1.274-13.109,2.062-18.566.514-3.56,2.261-13.222-.7-15.788-2.693-2.332-5.616-1.116-7.543-6.686-1.835-5.308-1.539-7.03-5.139-12.033-3.368-4.68-1.909-4.123-1.563-9.4.424-6.491,5.274-9.676,4.793-15.4-.588-6.991-10.6-1.779-13.144-10.905-1.238-4.436-4.184-.5-8.208-5.376l-.555-.673Zm5.478-67.525c-1.132.89-1.632,1.589-3.019,2.564-2.715,1.907.295,1.531,2.006.869,1.818-.609,1.171.364,3.71,1.24,4.161,1.439-.772,1.4-1.129,3.28-.135.715-.009,8.138,1.766,5.592.939-1.347-.784-4.2,1.83-5.965,2.456-1.658,1.141,5.3,6.187,1.6,3.524-2.587-2.755-2.8-4-3.9C251.583,692.777,250.312,687.094,246.372,689.4Z" transform="translate(-129.812 -594.856)" fill="#3827aa" fill-rule="evenodd"/>
    <path id="Path_36755" data-name="Path 36755" d="M1482.367,1092.74c-1.25,1.219.569.875-2.18,2.572-1.724,1.065.323,1.7-2.488,2.914-3.576,1.549-.49,3.259-4.146,1.557-.773-.358-2.854,1.823-1.318,4.512.821,1.434,1.1,4.183,3.438,4.738,1.676.4,1.835-.448,4.791.564,3.013,1.031,2.73-2.147,3.811-4.1.864-1.564-.277-1.074,1.608-3.362,1.154-1.4-3.488-3.538-.662-5.937,1.123-.955-.173-1.142,1.811-1.5,1.059-.19-.615-1.092-1.333-2.312C1484.446,1090.248,1484.444,1091.3,1482.367,1092.74Z" transform="translate(-1063.485 -913.324)" fill="#3827aa" fill-rule="evenodd"/>
    <path id="Path_36756" data-name="Path 36756" d="M1526.414,1122.252c-1.256.062-3.909-.189-4.49,1.188-.881,2.082-1.5.729-1.34,4.451.1,2.4-1.521,1.535-.013,3.47.48.615-.083,5.314,1.922,3.216.659-.692-.436-3.14.866-3.206.884-.046-.1,2.174,1.836,2.887.976.358,2.08,2,2.312.328.166-1.19-1.47-1.665-1.924-3.639-.383-1.673-3.315-2.2-.165-2.638,1.939-.269,1.8-1.619-.825-1.567-2.157.044-1.607-2.266-.322-2.285,2.289-.032,3.874,1.212,5.209-1.968.375-.894-.1-1.463-1.052-.835A3.38,3.38,0,0,1,1526.414,1122.252Z" transform="translate(-1097.052 -934.347)" fill="#3827aa" fill-rule="evenodd"/>
    <path id="Path_36757" data-name="Path 36757" d="M1600.637,1149.836c.559-1.622,2.035-.759-1.126-3.731-4.194-3.945-4.246-4.274-10.1-6.25-6.326-2.137-4.382,1.264-6.188,1.76-1.4.385-1.594-3.307-2.317-3.983-1.125-1.053-6.581.038-4.984.968,2.069,1.206,1.808.564,2.292,2.853.212,1,2.1.182,3.251,1.8.708,1,2.182.97,3.648,1.9,1.779,1.128,1.684.2,2.355,3.155.713,3.145-1.5,1.76-1.163,2.633.55,1.415,2.573-.312,4.148,1.193,1.143,1.091,1.637.906,3.15.141,1.918-.968,1.616-4.683,5.567.362,1.256,1.6,3,3.478,5.3,2.738,1.546-.5-1.911-1.752-2.9-3.248A6.534,6.534,0,0,1,1600.637,1149.836Z" transform="translate(-1135.813 -945.35)" fill="#3827aa" fill-rule="evenodd"/>
    <path id="Path_36758" data-name="Path 36758" d="M1509.406,1184.016c-3.961-.336,2.877,3.531,2.7.651C1512.008,1183,1510.235,1184.013,1509.406,1184.016Z" transform="translate(-1088.872 -977.711)" fill="#3827aa" fill-rule="evenodd"/>
    <path id="Path_36759" data-name="Path 36759" d="M1526.138,1184.26a2.493,2.493,0,0,0,3.715.417c1.341-1.323-3.961-1.2-3.79-.561Z" transform="translate(-1101.319 -977.67)" fill="#3827aa" fill-rule="evenodd"/>
    <path id="Path_36760" data-name="Path 36760" d="M1523.457,1191.135c.041,0,2.1,1.091,1.809,1.51C1524.366,1193.928,1522.221,1191.583,1523.457,1191.135Z" transform="translate(-1099.248 -982.877)" fill="#3827aa" fill-rule="evenodd"/>
    <path id="Path_36761" data-name="Path 36761" d="M1544.03,1185.387c.944-.22,3.283-1.509,3.609-2.343.933-2.387-1.475-2.664-1.176-1.171.1.528-1.06.665-1.857,1.4C1544.1,1183.746,1542.143,1185.47,1544.03,1185.387Z" transform="translate(-1113.263 -975.793)" fill="#3827aa" fill-rule="evenodd"/>
    <path id="Path_36762" data-name="Path 36762" d="M1538.522,1196.6s-1.575.582-1.026,1.027S1539.617,1197.368,1538.522,1196.6Z" transform="translate(-1109.196 -986.679)" fill="#3827aa" fill-rule="evenodd"/>
    <path id="Path_36763" data-name="Path 36763" d="M1516.535,1240.53c-4.419.93-5.675,3.177-9.763,4.1-2.405.544-3.694,1.323-5.72,1.859-6.032,1.594-2.338-5.253-3.6-8.768-1.09-3.033-3.153-5.092-2.375-8.307,1.026-4.246-1.67-6.45,1.906-8.005l2.052-.894c2.929-1.274,7.83-2.468,8.831-5.857,1.1-3.711,2.167-1.648,4.229-5.425,1.887-3.46,1.359-1.973,4.224-.714,3.1,1.362,2.324-3.178,4.292-4.162,1.28-.641,9.044-1.976,7.876.941-1.2,3.014-1.314,3.74,1.561,6.186s5.385,6.819,6.041-1.193c.088-1.076.177-7.458.385-7.689.721-.8,2.494,1.93,2.568,3.656.123,2.842-.032,1.375,1.845,2.794.991.748,1.467,3.625,1.846,5.031.643,2.4-1.169,2.251,2.627,4.132,2.763,1.369,1.26,2.351,2.429,5.081,2.963,5.271,3.44,3.251,4.225,9.611.124,1,.293,1.855.495,2.845.784,3.471-2.93,6.372-3.833,11.049-.653,3.38-.621,4.763-3.712,7.159-2.446,1.9-3.886,1.034-6.691.76-5.9-.579-6.079-8.5-8.556-10.4-1.446-1.107-1.824,3.291-4.041-.169C1522.948,1239.895,1521.541,1239.572,1516.535,1240.53Z" transform="translate(-1079.643 -990.755)" fill="#3827aa" fill-rule="evenodd"/>
    <path id="Path_36764" data-name="Path 36764" d="M538.181,989.238a14.219,14.219,0,0,1,3.373,1.963c1.879,1.818,3.643,3.525,6.5,2.9,2.978-.648-3.642-3.7-4.66-4-2.252-.661-.291-2.261-4.821-1.857-5.456.488-3.715,3.167-1.444,1.543A2.485,2.485,0,0,1,538.181,989.238Z" transform="translate(-411.709 -841.666)" fill="#3827aa" fill-rule="evenodd"/>
    <path id="Path_36765" data-name="Path 36765" d="M595.312,1009.6c-5.551-1.142-3.73,2.161-2.3,2.556.7.192,6.927-.1,3.971-1.96A5.748,5.748,0,0,0,595.312,1009.6Z" transform="translate(-451.082 -856.402)" fill="#3827aa" fill-rule="evenodd"/>
    <path id="Path_36766" data-name="Path 36766" d="M1645.049,1388.272c-1.995.064-1.847-2.7-2.948-1.193-1.3,1.783.891,1.542.745,2.575-.239,1.687.443,1.282,1.583,2.857.829,1.144,1.633.748,2.665.055,1.006-.675.514-1.644.757-3.039C1648.429,1386.234,1646.351,1388.076,1645.049,1388.272Z" transform="translate(-1181.773 -1118.902)" fill="#3827aa" fill-rule="evenodd"/>
    <path id="Path_36767" data-name="Path 36767" d="M660.107,804.452c-1.727,2.431,4.581,1.775,4.743,1.859.866.45-.413,1.221,1.532.868,1.1-.2,3.653,1.46,3.453-.313a20.925,20.925,0,0,0-2.91-4.307c-.336-.139-3.026.465-3.224-1.637-.04-.428.844-2.325-1.3-1.7-1.339.391-.2,3.3-1.307,4.412Z" transform="translate(-498.583 -710.098)" fill="#3827aa" fill-rule="evenodd"/>
    <path id="Path_36768" data-name="Path 36768" d="M629.267,833.4c-1.66.5-2.3-.421-3.24,1.443-.472.939-4.172,2.715-2.554,3.445.62.279,4.43-1.949,5.431-2.4,2.019-.912.671-1.073,2.9-1.882,3.919-1.422.589-3.152-.117-2.919-.128.042-.981,1.225-1.555,1.67C629.842,832.978,629.576,833.192,629.267,833.4Z" transform="translate(-473.018 -732.338)" fill="#3827aa" fill-rule="evenodd"/>
  </g>
  <g id="Infeon_logo" transform="translate(-367.998 -106.736)">
    <g id="Group_4894" data-name="Group 4894" transform="translate(459.999 232.45)">
      <g id="Group_7" data-name="Group 7" transform="translate(0 0)">
        <g id="Group_4842" data-name="Group 4842" transform="translate(28.171 0)">
          <path id="Path_4703" data-name="Path 4703" d="M0,0H19.919V51.456a8.3,8.3,0,0,1-8.3,8.3H0Z" transform="translate(42.254 28.17) rotate(45)" fill="#031d8e"/>
          <path id="Path_4702" data-name="Path 4702" d="M0,0H11.619a8.3,8.3,0,0,1,8.3,8.3V59.756H0Z" transform="translate(0 14.085) rotate(-45)" fill="#0d3efb"/>
        </g>
        <path id="Path_4704" data-name="Path 4704" d="M0,0H23.239V14.937a8.3,8.3,0,0,1-8.3,8.3H0Z" transform="translate(32.865 42.537) rotate(135)" fill="#0d3efb"/>
      </g>
      <path id="Path_4716" data-name="Path 4716" d="M7.32-25.824V-85.979H22.271v60.155ZM60.045-70.056A18.835,18.835,0,0,1,69.6-67.663a16.315,16.315,0,0,1,6.458,6.856,22.61,22.61,0,0,1,2.3,10.483v24.5H63.936v-22.2q0-4.423-2.079-6.723a7.3,7.3,0,0,0-5.706-2.3,8.456,8.456,0,0,0-4.069,1.106,14.35,14.35,0,0,0-3.892,3.229v26.891H33.86v-42.9H48.191v2.919a18.505,18.505,0,0,1,11.854-4.247Zm64.226,13.625H109.144v30.607H94.813V-56.431H84.285v-12.3H94.812v-5.131A22.644,22.644,0,0,1,97.2-84.518a16.8,16.8,0,0,1,6.679-6.989,19.468,19.468,0,0,1,9.775-2.433,44.638,44.638,0,0,1,11.412,1.6L123.12-80.4a30.822,30.822,0,0,0-6.546-.8,7.584,7.584,0,0,0-5.4,1.9,6.631,6.631,0,0,0-2.035,5.087v5.485h15.128ZM173.016-48.2a32.377,32.377,0,0,1-.265,4.865l.088.265H142.23a9.469,9.469,0,0,0,3.317,5,9.972,9.972,0,0,0,6.325,1.9,9,9,0,0,0,3.892-.8,6.3,6.3,0,0,0,2.654-2.3h14.155a16.853,16.853,0,0,1-7.21,10.529A23.665,23.665,0,0,1,151.7-24.849a25.485,25.485,0,0,1-12.254-2.875,20.413,20.413,0,0,1-8.271-8.006,23.016,23.016,0,0,1-2.917-11.589,23.335,23.335,0,0,1,2.828-11.545,20.116,20.116,0,0,1,8.049-7.962A24.343,24.343,0,0,1,151.073-69.7,23.176,23.176,0,0,1,162.268-67a20.024,20.024,0,0,1,7.873,7.564A21.666,21.666,0,0,1,173.016-48.2ZM151.076-58.645a9.035,9.035,0,0,0-5.883,1.9,9.29,9.29,0,0,0-3.14,5.264h17.516a8.645,8.645,0,0,0-2.828-5.308,8.5,8.5,0,0,0-5.665-1.856ZM203.625-69.7a24.666,24.666,0,0,1,11.943,2.875,21.09,21.09,0,0,1,8.315,8.012,22.315,22.315,0,0,1,3.008,11.5,22.963,22.963,0,0,1-3.008,11.674,21.53,21.53,0,0,1-8.315,8.184A24.074,24.074,0,0,1,203.625-24.5a24.074,24.074,0,0,1-11.942-2.964,21.53,21.53,0,0,1-8.316-8.184,22.963,22.963,0,0,1-3.008-11.674,22.316,22.316,0,0,1,3.008-11.5,21.091,21.091,0,0,1,8.315-8.006A24.666,24.666,0,0,1,203.625-69.7Zm.088,32.82a8.966,8.966,0,0,0,6.944-2.964,10.559,10.559,0,0,0,2.7-7.387,10.166,10.166,0,0,0-2.7-7.165,9.03,9.03,0,0,0-6.944-2.919A9.136,9.136,0,0,0,196.68-54.4a10.166,10.166,0,0,0-2.7,7.165,10.559,10.559,0,0,0,2.7,7.387,9.064,9.064,0,0,0,7.034,2.966ZM261.57-70.056a18.835,18.835,0,0,1,9.554,2.393,16.315,16.315,0,0,1,6.458,6.856,22.61,22.61,0,0,1,2.3,10.483v24.5H265.462v-22.2q0-4.423-2.079-6.723a7.3,7.3,0,0,0-5.706-2.3,8.456,8.456,0,0,0-4.069,1.106,14.35,14.35,0,0,0-3.892,3.229v26.891H235.384v-42.9h14.331v2.919a18.506,18.506,0,0,1,11.855-4.247Z" transform="translate(97.173 101.96)" fill="#202836"/>
    </g>
    <rect id="Rectangle_2612" data-name="Rectangle 2612" width="375.356" height="86.431" transform="translate(459.998 231)" fill="none"/>
  </g>
  <text id="Intelligent_Technology_Specialists" data-name="Intelligent Technology Specialists" transform="translate(281 254)" fill="#2e2e2e" font-size="21" font-family="SofiaPro-Medium, Sofia Pro" font-weight="500"><tspan x="-157" y="0">Intelligent Technology Specialists</tspan></text>
</svg>
