<svg xmlns="http://www.w3.org/2000/svg" width="370" height="347" viewBox="0 0 370 347">
  <g id="Group_17079" data-name="Group 17079" transform="translate(0 0)">
    <rect id="Rectangle_39465" data-name="Rectangle 39465" width="370" height="347" fill="#e9fdf7"/>
    <path id="Intersection_2" data-name="Intersection 2" d="M-1436-273.6v-.794a87.7,87.7,0,0,1,6-31.6h131v105.19A87.716,87.716,0,0,1-1347.92-186,88.043,88.043,0,0,1-1436-273.6Z" transform="translate(1669 306)" fill="#2be4ac"/>
    <path id="Intersection_1" data-name="Intersection 1" d="M0,18.423A74.927,74.927,0,0,1,2.287,0H29.894A48.276,48.276,0,0,0,74.375,66.679,47.782,47.782,0,0,0,91,63.711V91.13A74.421,74.421,0,0,1,0,18.423Z" transform="translate(91 347) rotate(180)" fill="#2be4ac"/>
    <text id="Why_Partner_With_Us" data-name="Why Partner
With Us" transform="translate(174 205)" fill="#2be4ac" font-size="32" font-family="SofiaPro-Medium, Sofia Pro" font-weight="500"><tspan x="-90" y="0">Why Partner</tspan><tspan x="-54" y="40">With Us</tspan></text>
    <path id="Union_1" data-name="Union 1" d="M-1393.522-726.91l-3.9-3.609-2.666,2.783a5.879,5.879,0,0,1-4.226,1.8h-.005q-.127,0-.254-.005t-.244.005a5.347,5.347,0,0,1-3.685-1.464l-.725-.689a5.189,5.189,0,0,1-1.286-1.981,5.825,5.825,0,0,1-2.56.592h-.006q-.127,0-.253-.005t-.244.005a5.35,5.35,0,0,1-3.687-1.464l-.725-.689a5.227,5.227,0,0,1-1.426-2.384,5.821,5.821,0,0,1-1.628.232h-.005q-.129,0-.257-.006t-.242.006a5.363,5.363,0,0,1-3.687-1.464l-.725-.69h0a5.288,5.288,0,0,1-1.651-3.85q0-.121.005-.242t-.005-.258a5.645,5.645,0,0,1,.41-2.094,5.254,5.254,0,0,1-2.1-1.205l-.724-.688a5.282,5.282,0,0,1-1.653-3.848q0-.125.006-.251t-.005-.25a5.773,5.773,0,0,1,1.61-4.013l3.054-3.185-7.14-6.092a5.232,5.232,0,0,1-1.845-3.987q0-.122.005-.244t-.005-.256a5.7,5.7,0,0,1,1.462-3.819l8.05-9.015a7,7,0,0,1,2.605-1.8,8.138,8.138,0,0,1,3.06-.6,6.92,6.92,0,0,1,2.72.532l4.422,1.886a7.554,7.554,0,0,0,2.761.47h.078a7.557,7.557,0,0,0,2.761-.469l4.42-1.886a10.521,10.521,0,0,1,4.073-.751,10.126,10.126,0,0,1,4.445.92l.8.4,1.512.752.513-.36a8.869,8.869,0,0,1,5.045-1.463,8.285,8.285,0,0,1,3.6.761l6.487,3.143a5.009,5.009,0,0,0,2.086.408h.072a5.572,5.572,0,0,0,2.733-.663l.005,0,6.623-4.121a6.174,6.174,0,0,1,3.269-.917h0a6.308,6.308,0,0,1,4.991,2.374l6.793,8.693a6.407,6.407,0,0,1,1.321,3.542h.017v.475a6.57,6.57,0,0,1-1.644,4.415l-11.2,12.378.914.844a5.809,5.809,0,0,1,1.861,4.265,5.781,5.781,0,0,1-1.557,3.96l-.683.732a5.7,5.7,0,0,1-2.984,1.686,5.431,5.431,0,0,1,.061.788,5.768,5.768,0,0,1-1.558,3.958l-.68.731a5.882,5.882,0,0,1-4.282,1.852q-.118,0-.239-.006t-.261.006a4.312,4.312,0,0,1-.44-.023,5.692,5.692,0,0,1-1.384,2.612l-.678.729a5.875,5.875,0,0,1-4.283,1.854h-.005q-.127,0-.253-.005t-.244.005a5.354,5.354,0,0,1-3.633-1.416l-1.029-.949a5.556,5.556,0,0,1-.96,1.424l-.683.733a5.858,5.858,0,0,1-4.268,1.85h-.022q-.123,0-.246-.005t-.243.005h-.011A5.331,5.331,0,0,1-1393.522-726.91Zm-2.443-6.229,4.433,4.106a2.415,2.415,0,0,0,1.649.642q.121,0,.241-.012a2.923,2.923,0,0,1-1.73-.763l-4.5-4.166Q-1395.916-733.235-1395.965-733.139Zm-12,1.2a2.4,2.4,0,0,0,.748,1.75l.725.689a2.418,2.418,0,0,0,1.674.663q.119,0,.238-.012a2.922,2.922,0,0,1-1.756-.788l-.725-.689a2.884,2.884,0,0,1-.892-1.851Q-1407.963-732.064-1407.964-731.944Zm-10.571-30.109a5.823,5.823,0,0,1,4.027,1.6l.879.834v.006a5.751,5.751,0,0,1,1.595,3.348h0a5.822,5.822,0,0,1,4.023,1.6l.726.69a5.824,5.824,0,0,1,1.806,4.211,5.618,5.618,0,0,1-.182,1.4,5.813,5.813,0,0,1,2.4,1.37l.765.725.031.046a11.756,11.756,0,0,1,1.7,3.677,5.808,5.808,0,0,1,3.866,1.6l.726.689a5.813,5.813,0,0,1,1.807,4.213,5.741,5.741,0,0,1-.493,2.283l4.165,3.857a1.9,1.9,0,0,0,1.311.508,1.916,1.916,0,0,0,1.409-.607l.68-.731a1.866,1.866,0,0,0,.494-1.057,2.4,2.4,0,0,0-.672-1.411l-5.092-4.7-.038-.036,0,0,.141-.152-.333-.335.325-.354,2.335-2.51.354.356,10.166,9.387a1.914,1.914,0,0,0,1.314.508,1.917,1.917,0,0,0,1.415-.608l.681-.731a1.859,1.859,0,0,0,.495-1.063,2.389,2.389,0,0,0-.728-1.478l-10.187-9.42.141-.151-.35-.323,2.665-2.856,11.845,10.95a1.93,1.93,0,0,0,1.311.508,1.924,1.924,0,0,0,1.414-.608l.678-.729a1.89,1.89,0,0,0,.5-1.068,2.4,2.4,0,0,0-.757-1.509l-12.283-11.38.141-.151-.349-.323,2.667-2.856,11.84,10.95a1.9,1.9,0,0,0,1.312.509,1.922,1.922,0,0,0,1.416-.608l.68-.73a1.9,1.9,0,0,0,.5-1.063,2.393,2.393,0,0,0-.756-1.51l-8.628-7.978a74.533,74.533,0,0,0-5.859-4.781l-7.455-5.344a4.545,4.545,0,0,0-2.376-.737,3.8,3.8,0,0,0-1.736.466l-2.7,1.62a6.152,6.152,0,0,1-3.169.865q-.124,0-.248-.005t-.251.005a5.82,5.82,0,0,1-4.654-2.279l-.595-.8,0,0a5.2,5.2,0,0,1-1.039-3.117q0-.123.006-.245t-.006-.256a5.723,5.723,0,0,1,2.439-4.678l3.661-2.574-.548-.273a6.72,6.72,0,0,0-2.655-.559,6.575,6.575,0,0,0-2.295.433l-4.422,1.886a11.267,11.267,0,0,1-4.34.786l-.256,0-.246,0a10.874,10.874,0,0,1-4.145-.746l-4.42-1.885a3.389,3.389,0,0,0-1.121-.25,4.317,4.317,0,0,0-1.335.3,3.178,3.178,0,0,0-1.16.777l-8.051,9.017a1.825,1.825,0,0,0-.47,1.228,1.831,1.831,0,0,0,.65,1.4l7.269,6.2,1.4-1.456a5.879,5.879,0,0,1,4.226-1.8Zm16.206,24-4.108,4.289a1.878,1.878,0,0,0-.527,1.321,1.905,1.905,0,0,0,.592,1.386l.725.689a1.9,1.9,0,0,0,1.329.526,1.921,1.921,0,0,0,1.4-.59l4.109-4.288a1.868,1.868,0,0,0,.514-1.083,2.391,2.391,0,0,0-.731-1.487l-.727-.689a2.407,2.407,0,0,0-1.411-.649A1.915,1.915,0,0,0-1402.329-738.052Zm21.877,7.377a2.429,2.429,0,0,0,1.651.641q.12,0,.239-.012a2.925,2.925,0,0,1-1.73-.762l-9.8-9.051-.141.151Zm-36.273-4.812a2.39,2.39,0,0,0,.749,1.751l.726.689a2.418,2.418,0,0,0,1.674.663q.12,0,.238-.012a2.918,2.918,0,0,1-1.755-.788l-.727-.689a2.871,2.871,0,0,1-.893-1.848Q-1416.724-735.6-1416.724-735.487Zm8.159-8.714-6.745,7.04a1.875,1.875,0,0,0-.413,1.174,1.889,1.889,0,0,0,.591,1.387l.727.689a1.9,1.9,0,0,0,1.331.526,1.923,1.923,0,0,0,1.4-.589l6.51-6.793a1.908,1.908,0,0,0,.513-1.087,2.39,2.39,0,0,0-.733-1.484l-.726-.689a2.406,2.406,0,0,0-1.408-.648A1.935,1.935,0,0,0-1408.566-744.2Zm35.4,8.353a2.42,2.42,0,0,0,1.65.641q.121,0,.241-.012a2.916,2.916,0,0,1-1.73-.762l-11.113-10.273-.141.151Zm-24.58-4.232.726.69a5.289,5.289,0,0,1,1.645,3.581q.006-.117.006-.232a4.811,4.811,0,0,0-1.5-3.487l-.726-.689a4.817,4.817,0,0,0-3.331-1.326h-.007a1.138,1.138,0,0,0-.114.011l-.013,0A5.339,5.339,0,0,1-1397.741-740.08Zm-26.954.287a2.4,2.4,0,0,0,.746,1.751h0l.725.689a2.419,2.419,0,0,0,1.674.662h0q.119,0,.237-.012a2.92,2.92,0,0,1-1.756-.788l-.728-.69a2.874,2.874,0,0,1-.891-1.85C-1424.692-739.952-1424.7-739.872-1424.7-739.793Zm11.321-12.03c-.509.541-6.3,6.569-9.8,10.211a1.876,1.876,0,0,0-.526,1.319,1.9,1.9,0,0,0,.557,1.355l.036.033.724.689a1.909,1.909,0,0,0,1.329.525,1.924,1.924,0,0,0,1.4-.589l9.731-10.157a1.878,1.878,0,0,0,.513-1.085,2.38,2.38,0,0,0-.733-1.487l-.725-.689a2.4,2.4,0,0,0-1.409-.648A1.92,1.92,0,0,0-1413.374-751.823Zm47.731,12.284a5.74,5.74,0,0,1,.14.953q.007-.13.007-.26a4.409,4.409,0,0,0-.061-.705Zm-41.146-7.957a5.322,5.322,0,0,1,2.688,1.37l.725.688a10.857,10.857,0,0,1,1.645,3.694v-.269a.684.684,0,0,1,.006-.092,9.261,9.261,0,0,0-1.536-3.509l-.684-.649a4.833,4.833,0,0,0-2.437-1.242l-.38-.071Zm38.787,4.482a2.412,2.412,0,0,0,1.651.643q.12,0,.239-.012a2.919,2.919,0,0,1-1.731-.763l-11.11-10.274-.141.151Zm-60.764-5.115a2.391,2.391,0,0,0,.751,1.75l.724.688a2.429,2.429,0,0,0,1.675.662q.118,0,.235-.012a2.92,2.92,0,0,1-1.754-.788l-.724-.687a2.881,2.881,0,0,1-.894-1.852Q-1428.765-748.248-1428.765-748.129Zm65.455-2.461,1.277,1.179a5.3,5.3,0,0,1,1.694,3.638q.006-.12.006-.24a4.809,4.809,0,0,0-1.54-3.531l-1.3-1.2Zm-56.631-6.973-7.3,7.615a1.879,1.879,0,0,0-.528,1.321,1.9,1.9,0,0,0,.594,1.385l.725.688a1.936,1.936,0,0,0,1.33.526,1.958,1.958,0,0,0,1.085-.332l7.811-8.14a1.925,1.925,0,0,0,.3-.766,5.448,5.448,0,0,0-.726-1.537l-.721-.688a2.418,2.418,0,0,0-1.411-.649A1.915,1.915,0,0,0-1419.941-757.562Zm11.091,3.767.724.689a5.294,5.294,0,0,1,1.645,3.585q.007-.119.007-.236a4.822,4.822,0,0,0-1.495-3.486l-.726-.69a4.827,4.827,0,0,0-3.334-1.327h-.005a1.341,1.341,0,0,0-.152.011A5.347,5.347,0,0,1-1408.85-753.8Zm24.6-13.948,7.453,5.345a76.841,76.841,0,0,1,6.138,5.008l5.219,4.824.139-.154-5.2-4.8a76.068,76.068,0,0,0-6.091-4.969l-7.452-5.345a7,7,0,0,0-4.05-1.193q-.125,0-.248,0A7.445,7.445,0,0,1-1384.25-767.743Zm.789-.907,7.455,5.346a77.014,77.014,0,0,1,6.186,5.047l4.848,4.481,11.157-12.338a2.673,2.673,0,0,0,.624-1.558,3.1,3.1,0,0,0-.609-1.671l-6.793-8.691a2.906,2.906,0,0,0-2.034-1.054,2.18,2.18,0,0,0-.958.313l-6.627,4.122a9.335,9.335,0,0,1-4.849,1.26q-.133,0-.265,0l-.237,0a8.371,8.371,0,0,1-3.609-.751l-6.486-3.141a4.76,4.76,0,0,0-1.856-.416,5.058,5.058,0,0,0-2.538.741l-.006,0-7.967,5.6a1.824,1.824,0,0,0-.781,1.494,1.806,1.806,0,0,0,.353,1.067l.016.021.593.8a2.409,2.409,0,0,0,1.9.9h.007a2.218,2.218,0,0,0,1.149-.3l2.693-1.618a7.86,7.86,0,0,1,4-1.032A7.986,7.986,0,0,1-1383.461-768.65Zm-31.891,9.064.724.688a5.293,5.293,0,0,1,1.634,3.684l.016,0-.015-.484a4.77,4.77,0,0,0-1.48-3.335l-.724-.689a4.827,4.827,0,0,0-3.338-1.328h-.005q-.12,0-.24.006A5.343,5.343,0,0,1-1415.353-759.587Zm-17.73-6.317a2.329,2.329,0,0,0,.824,1.784l7.629,6.508.142-.148-7.6-6.479a2.811,2.811,0,0,1-.988-1.9Q-1433.082-766.023-1433.083-765.9Zm33.275-3.465a2.326,2.326,0,0,0,.465,1.387l0,0,.593.8a2.909,2.909,0,0,0,2.314,1.105c.079,0,.158,0,.236-.009a3.368,3.368,0,0,1-2.453-1.3l-.594-.8a2.839,2.839,0,0,1-.55-1.421Q-1399.807-769.488-1399.808-769.369Zm41.516-10.448,6.792,8.692a5.981,5.981,0,0,1,1.226,3.456q0-.106.005-.213v-.033a5.488,5.488,0,0,0-1.126-3.4l-6.792-8.691a5.312,5.312,0,0,0-4.206-1.992q-.125,0-.249.006A5.825,5.825,0,0,1-1358.292-779.817Zm-17.018,3.517a5.894,5.894,0,0,1-2.31-.506l-6.483-3.14a7.294,7.294,0,0,0-3.168-.662l-.237,0a7.673,7.673,0,0,1,3.123.709l6.486,3.141a5.5,5.5,0,0,0,2.334.458C-1375.479-776.3-1375.395-776.3-1375.31-776.3Zm-35.822-1.453a8.41,8.41,0,0,1-2.945-.549l-4.419-1.885a5.927,5.927,0,0,0-2.327-.452q-.124,0-.248,0a6.346,6.346,0,0,1,2.271.488l4.422,1.885a8.069,8.069,0,0,0,3,.51Q-1411.257-777.75-1411.132-777.753Zm15.268-2.235,2.577,1.283.159-.111-1.659-.826-.8-.4a9.132,9.132,0,0,0-4-.817l-.247,0A9.529,9.529,0,0,1-1395.864-779.988Z" transform="translate(1563 888)" fill="#2be4ac"/>
  </g>
</svg>
