<svg xmlns="http://www.w3.org/2000/svg" width="370" height="347" viewBox="0 0 370 347">
  <g id="Group_17080" data-name="Group 17080" transform="translate(0 0)">
    <rect id="Rectangle_39466" data-name="Rectangle 39466" width="370" height="347" fill="#efedfd"/>
    <path id="Intersection_2" data-name="Intersection 2" d="M-1436-273.6v-.794a87.7,87.7,0,0,1,6-31.6h131v105.19A87.716,87.716,0,0,1-1347.92-186,88.043,88.043,0,0,1-1436-273.6Z" transform="translate(1669 306)" fill="#6450e8"/>
    <path id="Intersection_1" data-name="Intersection 1" d="M0,18.423A74.927,74.927,0,0,1,2.287,0H29.894A48.276,48.276,0,0,0,74.375,66.679,47.782,47.782,0,0,0,91,63.711V91.13A74.421,74.421,0,0,1,0,18.423Z" transform="translate(91 347) rotate(180)" fill="#6450e8"/>
    <text id="How_we_can_help_you_" data-name="How we can
help you?" transform="translate(185 199)" fill="#6450e8" font-size="32" font-family="SofiaPro-Medium, Sofia Pro" font-weight="500"><tspan x="-92" y="0">How We Can</tspan><tspan x="-71" y="40">Help You?</tspan></text>
    <path id="Path_36744" data-name="Path 36744" d="M214.653,97.282a6.756,6.756,0,0,0-2.983-1.738l1.188-1.188h0a6.815,6.815,0,0,0,0-9.654,6.883,6.883,0,0,0-2.973-1.737l.4-.4a6.822,6.822,0,0,0-9.211-10.05,6.622,6.622,0,0,0-1.747-3.012,6.835,6.835,0,0,0-9.654,0l-8.245,8.235a6.323,6.323,0,0,0-7.5,1.052l-10.87,10.9a12.055,12.055,0,0,0-.966,1.062,24.528,24.528,0,0,0-5.792,20.949l-11.547,9.568a1.757,1.757,0,0,0,0,2.655l8.544,7.473,9.172,10.33h0a1.746,1.746,0,0,0,1.3.579,1.709,1.709,0,0,0,1.313-.618l9.181-11.006h0a23.785,23.785,0,0,0,5.7.675h.135a24.511,24.511,0,0,0,17.32-7.25l17.185-17.185a6.845,6.845,0,0,0,0-9.654Zm-50.9,40.616-7.9-8.9-.164-.155-7.134-6.179,8.689-7.26h0a24.137,24.137,0,0,0,13.516,14.143Zm48.427-33.432-17.175,17.175a21.057,21.057,0,0,1-14.877,6.237h-.116a20.956,20.956,0,0,1-4.21-.425,19.6,19.6,0,0,1-3.224-.965,20.111,20.111,0,0,1-6.266-3.795c-.328-.29-.657-.589-.966-.9s-.627-.647-.966-.966h0a20.554,20.554,0,0,1-3.766-6.237,19.707,19.707,0,0,1-.965-3.446,21.1,21.1,0,0,1,5.03-18.093c.261-.309.55-.608.84-.9l10.871-10.871a2.9,2.9,0,0,1,3.987,0,2.82,2.82,0,0,1,0,4l-5.706,5.706a1.756,1.756,0,0,0-.5,1.351,1.778,1.778,0,0,0,.686,1.274l.193.184h0a6.3,6.3,0,0,1,.444,8.515l1.4,1.168,1.274,1.062h0a9.734,9.734,0,0,0,.212-12.281l4.518-4.518h0a6.258,6.258,0,0,0,1.844-4.451,6.353,6.353,0,0,0-.782-3.07l8.177-8.187a3.335,3.335,0,0,1,4.721,4.711l-4.4,4.364-8.612,8.6a1.748,1.748,0,0,0,2.472,2.471l8.6-8.612,4.4-4.393.067-.077L203.1,75.4a3.428,3.428,0,0,1,4.721,0,3.331,3.331,0,0,1,0,4.711l-4.605,4.605-5.946,5.956-8.824,8.814a1.762,1.762,0,0,0,2.5,2.482l8.824-8.824,5.947-5.957.25-.231h0a3.34,3.34,0,0,1,4.47,4.953l-5.387,5.387L193,109.283a1.748,1.748,0,0,0,2.472,2.471l12-12a3.428,3.428,0,0,1,4.721,0,3.341,3.341,0,0,1,0,4.711Z" transform="matrix(0.719, -0.695, 0.695, 0.719, -17.619, 174.334)" fill="#6450e8"/>
  </g>
</svg>
